<?xml version="1.0" encoding="UTF-8" standalone="no"?>
<!-- Created with Inkscape (http://www.inkscape.org/) -->

<svg
   width="201.55652mm"
   height="35.322834mm"
   viewBox="0 0 201.55652 35.322834"
   version="1.1"
   id="svg1"
   xml:space="preserve"
   inkscape:version="1.3.2 (091e20ef0f, 2023-11-25)"
   sodipodi:docname="disappointment.svg"
   inkscape:export-filename="disappointment.png"
   inkscape:export-xdpi="96"
   inkscape:export-ydpi="96"
   xmlns:inkscape="http://www.inkscape.org/namespaces/inkscape"
   xmlns:sodipodi="http://sodipodi.sourceforge.net/DTD/sodipodi-0.dtd"
   xmlns="http://www.w3.org/2000/svg"
   xmlns:svg="http://www.w3.org/2000/svg"><sodipodi:namedview
     id="namedview1"
     pagecolor="#ffffff"
     bordercolor="#000000"
     borderopacity="0.25"
     inkscape:showpageshadow="2"
     inkscape:pageopacity="0.0"
     inkscape:pagecheckerboard="0"
     inkscape:deskcolor="#d1d1d1"
     inkscape:document-units="mm"
     inkscape:zoom="1.1893044"
     inkscape:cx="383.4174"
     inkscape:cy="132.00994"
     inkscape:window-width="1920"
     inkscape:window-height="1036"
     inkscape:window-x="0"
     inkscape:window-y="0"
     inkscape:window-maximized="1"
     inkscape:current-layer="layer1" /><defs
     id="defs1"><rect
       x="59.830139"
       y="63.725536"
       width="641.46606"
       height="104.07541"
       id="rect1" /></defs><g
     inkscape:label="Layer 1"
     inkscape:groupmode="layer"
     id="layer1"
     transform="translate(-2.5754954,-2.6344689)"><path
       d="m 38.613257,20.592845 c -0.01348,0.652155 -0.439209,1.2185 -1.050379,1.447765 l -3.847912,1.471026 c -0.140829,0.572077 -0.319544,1.144438 -0.540142,1.707959 -0.220599,0.563521 -0.477938,1.105102 -0.762928,1.620747 l 1.826613,3.692399 c 0.293093,0.583253 0.221197,1.288107 -0.21165,1.776101 -0.593559,0.666891 -1.233264,1.277936 -1.915134,1.842244 l -0.515743,0.410199 c -0.71463,0.551485 -1.46629,1.043135 -2.248432,1.477515 -0.571287,0.320444 -1.275,0.226328 -1.779806,-0.182876 L 24.371986,33.26736 c -1.142251,0.331193 -2.332629,0.515077 -3.534667,0.535708 l -2.283742,3.420881 c -0.364476,0.544982 -1.007843,0.837211 -1.649156,0.699511 -0.963253,-0.203275 -1.924499,-0.488889 -2.87462,-0.860828 -0.950123,-0.37194 -1.849809,-0.814814 -2.695067,-1.319507 -0.564359,-0.334279 -0.838351,-0.98562 -0.735978,-1.633207 l 0.645599,-4.062155 C 10.37578,29.21656 9.6265975,28.273407 9.0127601,27.254767 L 4.9129427,26.99493 C 4.2644932,26.952672 3.6864654,26.537486 3.4819892,25.920904 3.2026104,25.070981 2.9844907,24.199695 2.8341831,23.309614 L 2.7339849,22.658298 C 2.6164382,21.781045 2.5615725,20.898103 2.5785057,20.005484 2.5919882,19.353325 3.0177188,18.786982 3.6288855,18.557716 L 7.4767981,17.08669 c 0.1433918,-0.578631 0.322107,-1.150991 0.5427056,-1.714512 0.2205985,-0.563521 0.4779431,-1.1051 0.7629295,-1.620745 L 6.9558193,10.059031 C 6.6627279,9.4757799 6.7346239,8.7709223 7.1674689,8.2829333 7.7610295,7.6160397 8.4007371,7.004998 9.0826052,6.4406864 L 9.5983487,6.0304879 C 10.312979,5.4790005 11.06464,4.9873514 11.846777,4.5529722 12.418066,4.2325281 13.12178,4.3266464 13.626585,4.7358466 l 3.195758,2.5885651 c 1.14225,-0.3311916 2.33263,-0.5150772 3.534667,-0.5357084 l 2.283744,-3.420881 c 0.364475,-0.5449826 1.007842,-0.8372098 1.649156,-0.6995093 0.965816,0.196721 1.927062,0.4823348 2.877185,0.8542744 0.950124,0.3719396 1.849807,0.8148154 2.695064,1.3195073 0.56436,0.334278 0.838353,0.9856192 0.735982,1.6332053 l -0.645602,4.062155 c 0.868575,0.831204 1.617755,1.774359 2.231596,2.792998 l 4.103806,0.268955 c 0.648447,0.04226 1.226472,0.457452 1.430952,1.074023 0.279379,0.849927 0.497497,1.72121 0.647806,2.61129 l 0.1002,0.651317 c 0.117543,0.877255 0.172411,1.760199 0.155475,2.652818 z m -20.064895,4.94638 A 5.6294041,5.6294041 0 1 0 22.65252,15.055113 5.6294041,5.6294041 0 1 0 18.548362,25.539225 Z"
       id="path1"
       style="fill:#d99a3b;fill-opacity:1;stroke-width:0.0703675" /><path
       id="path5"
       style="fill:none;fill-opacity:1;stroke:#3b94d9;stroke-width:1.88483;stroke-linecap:round;stroke-linejoin:round;stroke-dasharray:none;stroke-opacity:1"
       d="m 31.383587,25.409464 -0.0024,8.366179 -6.941424,-2.026789 M 8.4552259,8.821464 l 6.3524611,12.131044 6.705192,-6.696786 9.557143,19.11072" /><path
       d="m 46.530623,24.536351 q -1.003882,0.686526 -2.882113,0.686526 -0.472797,0 -1.081603,-0.148963 -0.731862,-0.17487 -1.101032,-0.453366 h -0.06477 q -0.278497,0 -0.46632,-0.1943 -0.187823,-0.1943 -0.187823,-0.472796 0,-0.680049 0.05829,-2.033671 0.06477,-1.360099 0.06477,-2.040148 0,-0.75777 -0.03238,-2.260355 -0.02591,-1.509062 -0.02591,-2.266831 0,-0.265543 0.27202,-0.556993 0.27202,-0.291449 0.54404,-0.291449 0.15544,0 1.036265,0.433936 0.997406,0.485749 1.152846,0.537563 1.839371,0.628236 3.134703,1.930044 1.522016,1.534969 1.522016,3.37434 0,1.107509 -0.52461,2.124345 -0.518133,1.016836 -1.418389,1.632118 z m -1.360098,-6.852306 q -0.66062,-0.433936 -3.050507,-1.489632 l 0.03238,1.865278 0.01943,1.858802 -0.103626,3.536256 q 0.04534,0.01943 0.136009,0.0842 0.569947,0.382123 1.437819,0.382123 1.476679,0 2.150251,-0.453367 0.628236,-0.427459 0.997406,-1.146369 0.375646,-0.725385 0.375646,-1.509061 0,-1.826419 -1.994811,-3.128227 z m 6.101014,-1.301809 q -0.31088,0 -0.537563,-0.220206 -0.226683,-0.220207 -0.226683,-0.531087 0,-0.310879 0.226683,-0.531086 0.226683,-0.220206 0.537563,-0.220206 0.31088,0 0.531086,0.220206 0.226683,0.220207 0.226683,0.531086 0,0.31088 -0.226683,0.531087 -0.220206,0.220206 -0.531086,0.220206 z m 0.29145,5.259048 q 0,0.3886 0.01943,1.165799 0.02591,0.770723 0.02591,1.159322 0,0.284973 -0.17487,0.46632 -0.174869,0.181346 -0.459842,0.181346 -0.278497,0 -0.459843,-0.181346 -0.17487,-0.181347 -0.17487,-0.46632 0,-0.388599 -0.02591,-1.159322 -0.01943,-0.777199 -0.01943,-1.165799 0,-0.608806 0.06477,-1.515538 0.06477,-0.913209 0.06477,-1.522015 0,-0.29145 0.17487,-0.472797 0.181347,-0.181346 0.459843,-0.181346 0.278497,0 0.453366,0.181346 0.181347,0.181347 0.181347,0.472797 0,0.608806 -0.06477,1.522015 -0.06477,0.906732 -0.06477,1.515538 z m 6.560856,-2.046624 q -0.356216,0 -0.498703,-0.239637 -0.09715,-0.168393 -0.168393,-0.699479 -0.485749,0.123056 -1.496108,0.453366 -1.042743,0.414506 -1.049219,1.023312 0.1943,0.07124 0.382123,0.103627 1.489632,0.265543 2.215018,0.731863 1.055695,0.680049 1.055695,1.968904 0,1.055696 -0.913209,1.593259 -0.757769,0.440413 -1.917091,0.440413 -0.848443,0 -1.619165,-0.284974 -0.997406,-0.362692 -0.997406,-1.010359 0,-0.259066 0.200776,-0.453366 0.207254,-0.1943 0.46632,-0.1943 0.200776,0 0.518133,0.31088 0.15544,0.148963 0.699479,0.246113 0.433936,0.07772 0.731863,0.07772 0.544039,0 0.958545,-0.129533 0.60233,-0.187823 0.60233,-0.595853 0,-0.880826 -1.230566,-1.191705 l -0.673572,-0.148963 q -0.861396,-0.187824 -1.224089,-0.440413 -0.52461,-0.362693 -0.52461,-1.094556 0,-1.353622 1.275902,-1.930045 0.3886,-0.17487 1.243519,-0.414506 0.854919,-0.246113 1.224089,-0.414506 0.265543,-0.11658 0.576423,-0.11658 0.278496,0 0.453366,0.181346 0.181346,0.181347 0.181346,0.472797 0,0.187823 0.07772,0.550516 0.0842,0.362693 0.0842,0.550516 0,0.29145 -0.181346,0.472796 -0.17487,0.181347 -0.453367,0.181347 z m 7.143757,5.414488 q -0.123057,0 -0.44689,-0.284974 -0.291449,-0.265543 -0.433936,-0.472796 -0.621759,0.336787 -1.094556,0.50518 -0.472796,0.17487 -0.790152,0.17487 -1.515539,0 -2.208541,-0.85492 -0.654143,-0.803105 -0.654143,-2.46113 0,-1.567352 1.075126,-2.681338 1.081602,-1.113985 2.57771,-1.113985 0.56347,0 1.262949,0.291449 0.880826,0.362693 0.880826,0.874349 0,0.17487 -0.129533,0.31088 -0.06477,0.246113 -0.103627,0.809583 -0.03238,0.563469 -0.03886,1.444295 -0.0065,0.803106 0.110104,1.269425 0.06477,0.284973 0.408029,1.139893 0.04534,0.116579 0.148963,0.343263 l 0.03886,0.110103 q 0,0.259066 -0.181346,0.427459 -0.181347,0.168394 -0.420983,0.168394 z m -1.347145,-4.501279 q 0,-0.278497 0.03238,-0.60233 0.03886,-0.330309 0.110103,-0.699479 -0.239636,-0.123057 -0.414506,-0.181347 -0.168393,-0.05829 -0.27202,-0.05829 -1.003882,0 -1.735745,0.822536 -0.725386,0.81606 -0.725386,1.884708 0,1.062173 0.375646,1.593259 0.375647,0.531086 1.126939,0.531086 0.62176,0 1.055696,-0.226683 0.23316,-0.123057 0.654143,-0.492226 -0.207253,-1.716315 -0.207253,-2.571234 z m 5.828994,4.300502 q -0.647666,0 -1.424865,-0.207253 l -0.01295,3.095844 q 0,0.284973 -0.181347,0.466319 -0.17487,0.181347 -0.453366,0.181347 -0.278496,0 -0.459843,-0.181347 -0.17487,-0.181346 -0.17487,-0.466319 l 0.01943,-2.590665 V 22.52211 q -0.01943,-1.418389 -0.09715,-2.584187 l -0.09715,-1.314763 q 0,-0.459842 0.168394,-0.777199 0.194299,-0.382123 0.563469,-0.382123 0.25259,0 0.420983,0.181347 0.17487,0.17487 0.17487,0.433936 0,0.05829 -0.01943,0.21373 -0.03238,0.200776 -0.04534,0.369169 0.556993,-0.382123 1.075126,-0.569946 0.518133,-0.194299 0.990929,-0.194299 1.327715,0 1.942998,1.178752 0.485749,0.932639 0.485749,2.467607 0,1.398959 -0.751292,2.305691 -0.796629,0.958546 -2.124345,0.958546 z m 0.44689,-5.615264 q -0.595853,0 -1.075126,0.265543 -0.343263,0.187823 -0.867872,0.686526 0.0842,1.470202 0.0842,3.089367 0.705956,0.272019 1.411912,0.272019 0.809583,0 1.237042,-0.602329 0.36917,-0.52461 0.36917,-1.360099 0,-1.178752 -0.29145,-1.761651 -0.284973,-0.589376 -0.867872,-0.589376 z m 6.645052,5.615264 q -0.647666,0 -1.424865,-0.207253 l -0.01295,3.095844 q 0,0.284973 -0.181346,0.466319 -0.17487,0.181347 -0.453366,0.181347 -0.278497,0 -0.459843,-0.181347 -0.17487,-0.181346 -0.17487,-0.466319 l 0.01943,-2.590665 V 22.52211 q -0.01943,-1.418389 -0.09715,-2.584187 l -0.09715,-1.314763 q 0,-0.459842 0.168393,-0.777199 0.1943,-0.382123 0.56347,-0.382123 0.25259,0 0.420983,0.181347 0.17487,0.17487 0.17487,0.433936 0,0.05829 -0.01943,0.21373 -0.03238,0.200776 -0.04534,0.369169 0.556993,-0.382123 1.075126,-0.569946 0.518132,-0.194299 0.990929,-0.194299 1.327715,0 1.942998,1.178752 0.485749,0.932639 0.485749,2.467607 0,1.398959 -0.751292,2.305691 -0.79663,0.958546 -2.124345,0.958546 z m 0.44689,-5.615264 q -0.595853,0 -1.075126,0.265543 -0.343263,0.187823 -0.867872,0.686526 0.0842,1.470202 0.0842,3.089367 0.705956,0.272019 1.411912,0.272019 0.809583,0 1.237042,-0.602329 0.36917,-0.52461 0.36917,-1.360099 0,-1.178752 -0.29145,-1.761651 -0.284973,-0.589376 -0.867872,-0.589376 z m 6.321219,5.770704 q -1.088079,0 -1.871755,-0.803106 -0.874349,-0.893779 -0.919686,-2.402841 -0.03886,-1.463725 0.73834,-2.577711 0.906732,-1.314762 2.525897,-1.314762 1.295332,0 1.962428,1.185229 0.531086,0.958546 0.511656,2.305691 -0.01943,1.437819 -0.751292,2.454654 -0.829013,1.152846 -2.195588,1.152846 z m 0.388599,-5.783658 q -0.952069,-0.0065 -1.483155,0.906733 -0.420983,0.731862 -0.420983,1.670978 0,0.939116 0.511657,1.463725 0.427459,0.433937 1.003882,0.433937 0.673573,0 1.159322,-0.492227 0.550516,-0.544039 0.582899,-1.470202 0.09067,-2.506467 -1.353622,-2.512944 z m 5.39506,-2.797917 q -0.31088,0 -0.537563,-0.220206 -0.226683,-0.220207 -0.226683,-0.531087 0,-0.310879 0.226683,-0.531086 0.226683,-0.220206 0.537563,-0.220206 0.31088,0 0.531086,0.220206 0.226683,0.220207 0.226683,0.531086 0,0.31088 -0.226683,0.531087 -0.220206,0.220206 -0.531086,0.220206 z m 0.29145,5.259048 q 0,0.3886 0.01943,1.165799 0.02591,0.770723 0.02591,1.159322 0,0.284973 -0.174869,0.46632 -0.17487,0.181346 -0.459843,0.181346 -0.278497,0 -0.459843,-0.181346 -0.17487,-0.181347 -0.17487,-0.46632 0,-0.388599 -0.02591,-1.159322 -0.01943,-0.777199 -0.01943,-1.165799 0,-0.608806 0.06477,-1.515538 0.06477,-0.913209 0.06477,-1.522015 0,-0.29145 0.174869,-0.472797 0.181347,-0.181346 0.459843,-0.181346 0.278497,0 0.453367,0.181346 0.181346,0.181347 0.181346,0.472797 0,0.608806 -0.06477,1.522015 -0.06477,0.906732 -0.06477,1.515538 z m 7.156708,3.400247 q -0.556993,0 -0.628236,-0.608806 l -0.181346,-1.418389 q -0.09067,-0.757769 -0.09067,-1.418388 0,-0.181347 0.01943,-0.615283 0.02591,-0.433936 0.02591,-0.615283 0,-1.398959 -0.518133,-1.398959 -0.725386,0 -1.386005,0.861396 -0.595853,0.783676 -0.932639,1.981858 -0.01295,0.25259 -0.05829,0.634713 -0.03886,0.323833 -0.03886,0.628236 0,0.1943 0.03886,0.5829 0.03886,0.388599 0.03886,0.582899 0,0.29145 -0.181347,0.472796 -0.174869,0.181347 -0.453366,0.181347 -0.284973,0 -0.459843,-0.181347 -0.17487,-0.181346 -0.17487,-0.472796 0,-0.1943 -0.04534,-0.582899 -0.03886,-0.3886 -0.03886,-0.5829 0,-0.667096 0.09067,-1.845848 0.09715,-1.185229 0.09715,-1.852325 0,-0.207253 -0.02591,-0.615283 -0.01943,-0.408029 -0.01943,-0.615282 0,-0.278497 0.181347,-0.453367 0.187823,-0.181346 0.459843,-0.181346 0.595852,0 0.654142,0.841966 l 0.01943,0.757769 q 1.088079,-1.450772 2.234448,-1.450772 1.036266,0 1.444295,0.913209 0.278497,0.608806 0.304403,1.800512 v 0.654142 l -0.0065,0.60233 q 0,0.537563 0.13601,1.392482 0.142486,0.848442 0.142486,1.379528 0,0.284973 -0.187823,0.459843 -0.181346,0.181347 -0.459843,0.181347 z m 6.308271,-5.977958 q -0.13601,0 -0.32383,-0.01295 -0.18135,-0.01295 -0.31736,-0.01295 -0.14896,0 -0.88083,0.09715 l 0.12306,3.827706 0.006,0.284973 0.006,0.33031 q 0.0259,1.418388 -0.68005,1.418388 -0.25906,0 -0.45336,-0.168393 -0.18783,-0.168393 -0.18783,-0.420983 0,-0.246113 0.0194,-0.738339 0.0194,-0.492226 0.0194,-0.738339 l -0.12953,-3.78237 q -0.472795,-0.01943 -1.437818,-0.110103 -0.576422,-0.07772 -0.576422,-0.64119 0,-0.284973 0.174869,-0.472796 0.17487,-0.187823 0.44689,-0.187823 l 1.360101,0.110103 q 0,-0.330309 -0.0324,-0.880826 -0.0259,-0.556992 -0.0259,-0.803105 0,-0.27202 0.18782,-0.44689 0.18782,-0.181346 0.45984,-0.181346 0.5829,0 0.68005,0.952069 0.0194,0.239636 0.0194,0.576422 l -0.013,0.375647 -0.006,0.401553 q 0.80311,-0.103627 0.91969,-0.103627 0.67357,0 0.88082,0.06477 0.39508,0.129533 0.39508,0.608806 0,0.284973 -0.18135,0.472796 -0.17487,0.181346 -0.45336,0.181346 z m 10.14244,6.055678 q -0.53108,0 -0.62176,-0.56347 -0.11657,-0.712432 -0.23315,-2.007764 l -0.22021,-2.007765 q -0.0648,-0.44689 -0.22021,-0.874349 -0.2202,-0.5829 -0.47927,-0.5829 -0.23964,0 -0.89378,0.40803 -0.62176,0.375646 -0.81606,0.602329 -0.006,0.608806 0.0324,1.217612 l 0.1943,1.729269 q 0.12306,1.023312 0.12306,1.690408 0,0.284973 -0.18135,0.46632 -0.17487,0.187823 -0.45336,0.187823 -0.2785,0 -0.45984,-0.187823 -0.17487,-0.181347 -0.17487,-0.46632 0,-0.783676 -0.16192,-2.312168 -0.15544,-1.534968 -0.15544,-2.318644 0,-0.686526 -0.1943,-1.068649 -0.45337,0.207253 -0.91969,0.673573 l -0.76424,0.854919 q -0.10363,0.15544 -0.33031,0.40803 0,0.388599 -0.0712,1.146368 -0.0712,0.75777 -0.0712,1.120463 0,0.194299 0.0583,0.544039 0.0648,0.34974 0.0648,0.50518 0,0.265543 -0.20078,0.446889 -0.1943,0.181347 -0.45984,0.181347 -0.73186,0 -0.73186,-1.664502 0,-0.3886 0.0712,-1.159322 0.0712,-0.770723 0.0712,-1.159322 0,-0.343263 -0.0648,-1.029789 -0.0583,-0.686526 -0.0583,-1.036266 0,-1.470202 0.66062,-1.470202 0.25258,0 0.45984,0.220206 0.21373,0.220207 0.21373,0.479273 0,0.123057 -0.0324,0.382123 -0.0324,0.259067 -0.0324,0.395077 l 0.013,0.680049 q 0.33679,-0.693003 0.99093,-1.249996 0.65415,-0.563469 1.11399,-0.563469 1.01683,0 1.39896,1.010359 0.35621,-0.472796 0.84844,-0.705956 0.49223,-0.239636 1.12694,-0.239636 1.0816,0 1.47668,1.165798 0.0777,0.23316 0.26554,1.819942 0.18135,1.113986 0.46632,3.711126 0.0194,0.259067 -0.17487,0.440413 -0.1943,0.181347 -0.4728,0.181347 z m 5.10361,-0.239637 q -1.46372,0 -2.37045,-0.731862 -0.99093,-0.809583 -0.99093,-2.266831 0,-1.683932 0.81606,-2.823824 0.8873,-1.243519 2.37045,-1.243519 1.07513,0 1.75518,0.362693 0.83549,0.446889 0.83549,1.373052 0,0.647666 -0.73187,1.178752 -0.32383,0.23316 -1.37305,0.725386 l -2.47408,1.172276 q 0.36269,0.537562 0.90025,0.809582 0.54404,0.27202 1.26295,0.27202 0.44689,0 1.04922,-0.168393 0.76425,-0.21373 0.98445,-0.556993 0.22021,-0.34974 0.4728,-0.34974 0.22668,0 0.40155,0.17487 0.18135,0.168393 0.18135,0.395076 0,0.71891 -1.15932,1.237042 -0.99093,0.440413 -1.93005,0.440413 z m -0.17487,-5.900237 q -0.79015,0 -1.31476,0.615283 -0.52461,0.608806 -0.78367,1.839371 l 1.98833,-0.945592 q 1.17228,-0.569946 1.67098,-0.990929 -0.55699,-0.518133 -1.56088,-0.518133 z m 9.38469,6.062154 q -0.557,0 -0.62824,-0.608806 l -0.18135,-1.418389 q -0.0907,-0.757769 -0.0907,-1.418388 0,-0.181347 0.0194,-0.615283 0.0259,-0.433936 0.0259,-0.615283 0,-1.398959 -0.51814,-1.398959 -0.72538,0 -1.386,0.861396 -0.59585,0.783676 -0.93264,1.981858 -0.0129,0.25259 -0.0583,0.634713 -0.0389,0.323833 -0.0389,0.628236 0,0.1943 0.0389,0.5829 0.0389,0.388599 0.0389,0.582899 0,0.29145 -0.18135,0.472796 -0.17487,0.181347 -0.45336,0.181347 -0.28498,0 -0.45985,-0.181347 -0.17487,-0.181346 -0.17487,-0.472796 0,-0.1943 -0.0453,-0.582899 -0.0389,-0.3886 -0.0389,-0.5829 0,-0.667096 0.0907,-1.845848 0.0972,-1.185229 0.0972,-1.852325 0,-0.207253 -0.0259,-0.615283 -0.0194,-0.408029 -0.0194,-0.615282 0,-0.278497 0.18135,-0.453367 0.18782,-0.181346 0.45984,-0.181346 0.59586,0 0.65415,0.841966 l 0.0194,0.757769 q 1.08808,-1.450772 2.23444,-1.450772 1.03627,0 1.4443,0.913209 0.2785,0.608806 0.3044,1.800512 v 0.654142 l -0.006,0.60233 q 0,0.537563 0.13601,1.392482 0.14248,0.848442 0.14248,1.379528 0,0.284973 -0.18782,0.459843 -0.18135,0.181347 -0.45984,0.181347 z m 6.30826,-5.977958 q -0.13601,0 -0.32383,-0.01295 -0.18135,-0.01295 -0.31736,-0.01295 -0.14896,0 -0.88082,0.09715 l 0.12305,3.827706 0.006,0.284973 0.006,0.33031 q 0.0259,1.418388 -0.68005,1.418388 -0.25907,0 -0.45337,-0.168393 -0.18782,-0.168393 -0.18782,-0.420983 0,-0.246113 0.0194,-0.738339 0.0194,-0.492226 0.0194,-0.738339 l -0.12954,-3.78237 q -0.47279,-0.01943 -1.43781,-0.110103 -0.57643,-0.07772 -0.57643,-0.64119 0,-0.284973 0.17487,-0.472796 0.17487,-0.187823 0.44689,-0.187823 l 1.3601,0.110103 q 0,-0.330309 -0.0324,-0.880826 -0.0259,-0.556992 -0.0259,-0.803105 0,-0.27202 0.18782,-0.44689 0.18783,-0.181346 0.45985,-0.181346 0.5829,0 0.68005,0.952069 0.0194,0.239636 0.0194,0.576422 l -0.013,0.375647 -0.006,0.401553 q 0.8031,-0.103627 0.91968,-0.103627 0.67357,0 0.88083,0.06477 0.39507,0.129533 0.39507,0.608806 0,0.284973 -0.18134,0.472796 -0.17487,0.181346 -0.45337,0.181346 z m 11.17872,-2.551804 q -0.41451,0 -1.04275,-0.0842 l -1.04274,-0.13601 q -0.14896,1.884708 -0.14896,3.601023 0,0.453366 0.0259,1.120462 0.0259,0.667096 0.0259,1.120462 0,0.608806 -0.0453,1.107509 l 2.04015,-0.02591 q 0.27202,0 0.45337,0.194299 0.18782,0.187824 0.18782,0.46632 0,0.284973 -0.18782,0.479273 -0.18135,0.187823 -0.45337,0.187823 -0.36269,0 -1.08808,0.01943 -0.72538,0.01295 -1.08808,0.01295 -0.42745,0 -1.28237,0.11658 -0.84845,0.123057 -1.28238,0.123057 -0.27202,0 -0.45985,-0.1943 -0.18134,-0.187823 -0.18134,-0.46632 0,-0.278496 0.18134,-0.472796 0.18783,-0.1943 0.45985,-0.1943 0.42098,0 1.39248,-0.13601 0.0648,-0.524609 0.0648,-1.198182 0,-0.446889 -0.0453,-1.088079 -0.0389,-0.647666 -0.0389,-1.088079 0,-1.496108 0.18135,-3.737032 l -0.84197,0.02591 -0.84197,0.01943 q -0.27849,0 -0.46632,-0.187823 -0.18782,-0.187823 -0.18782,-0.479273 0,-0.602329 0.60881,-0.660619 0.52461,-0.05181 1.96243,-0.05181 1.28885,0 3.23185,0.278496 0.57642,0.0842 0.57642,0.693003 0,0.304403 -0.2202,0.485749 -0.1943,0.148963 -0.44689,0.148963 z m 6.91707,8.529762 q -0.55699,0 -0.62824,-0.608806 l -0.18134,-1.418389 q -0.0907,-0.757769 -0.0907,-1.418388 0,-0.181347 0.0194,-0.615283 0.0259,-0.433936 0.0259,-0.615283 0,-1.398959 -0.51813,-1.398959 -0.72539,0 -1.38601,0.861396 -0.59585,0.783676 -0.93264,1.981858 -0.013,0.25259 -0.0583,0.634713 -0.0389,0.323833 -0.0389,0.628236 0,0.1943 0.0389,0.5829 0.0389,0.388599 0.0389,0.582899 0,0.29145 -0.18134,0.472796 -0.17487,0.181347 -0.45337,0.181347 -0.28497,0 -0.45984,-0.181347 -0.17487,-0.181346 -0.17487,-0.472796 0,-0.1943 -0.0453,-0.582899 -0.0389,-0.3886 -0.0389,-0.5829 0,-0.667096 0.0907,-1.845848 0.0971,-1.185229 0.0971,-1.852325 0,-0.207253 -0.0259,-0.615283 -0.0194,-0.408029 -0.0194,-0.615282 0,-0.278497 0.18134,-0.453367 0.18783,-0.181346 0.45985,-0.181346 0.59585,0 0.65414,0.841966 l 0.0194,0.757769 q 1.08808,-1.450772 2.23445,-1.450772 1.03626,0 1.44429,0.913209 0.2785,0.608806 0.30441,1.800512 v 0.654142 l -0.006,0.60233 q 0,0.537563 0.13601,1.392482 0.14249,0.848442 0.14249,1.379528 0,0.284973 -0.18783,0.459843 -0.18134,0.181347 -0.45984,0.181347 z m 7.94039,-6.178734 q -0.0777,0.952069 -0.0777,1.904138 0,2.156728 0.20078,3.25776 0.013,0.09067 0.013,0.148963 0,0.259067 -0.18135,0.42746 -0.18134,0.168393 -0.42098,0.168393 -0.40155,0 -0.58938,-0.582899 -0.46631,0.343263 -0.97149,0.518132 -0.49871,0.17487 -1.04275,0.17487 -1.34067,0 -2.22149,-0.893779 -0.90673,-0.913209 -0.90673,-2.344551 0,-1.729268 0.91321,-2.77201 0.91968,-1.042743 2.38341,-1.042743 0.75129,0 1.15932,0.23316 l 0.6088,0.44689 q 0.0907,-2.726674 0.21373,-3.672267 0.0842,-0.576423 0.58938,-0.576423 0.58938,0 0.58938,0.628237 0,0.900255 -0.25907,3.976669 z m -2.87564,0.168393 q -1.08808,0 -1.63212,0.647666 -0.54403,0.641189 -0.54403,1.936522 0,0.835489 0.58937,1.437818 0.59585,0.60233 1.39248,0.60233 0.54404,0 0.91969,-0.200777 0.22021,-0.11658 0.71891,-0.537563 0.0971,-0.0842 0.18782,-0.200776 l -0.0194,-1.120462 0.006,-0.751293 0.0129,-0.764246 q -0.24611,-0.524609 -0.65414,-0.783676 -0.40803,-0.265543 -0.97798,-0.265543 z m 9.98701,1.768128 q 0,0.46632 0.006,1.398959 0.006,0.932639 0.006,1.398959 0,0.142486 0.0194,0.433936 0.0259,0.29145 0.0259,0.433936 0,0.278496 -0.18782,0.453366 -0.18783,0.181347 -0.45985,0.181347 -0.4987,0 -0.63471,-0.615283 -0.80958,0.420983 -1.86528,0.420983 -0.84844,0 -1.40543,-0.375646 -0.61528,-0.414507 -0.73186,-1.211136 -0.25259,-1.716315 -0.25259,-3.056983 0,-0.887303 0.1943,-2.020718 0.0907,-0.56347 0.61528,-0.56347 0.2785,0 0.46632,0.181347 0.18782,0.174869 0.18782,0.453366 0,0.297926 -0.0971,0.952069 -0.0907,0.654143 -0.0907,0.997406 0,1.081602 0.0712,1.852324 0.0712,0.770723 0.21373,1.237042 0.21373,0.11658 0.42098,0.181347 0.20726,0.05829 0.40803,0.05829 0.86788,0 1.8329,-0.278496 l -0.006,-1.314763 -0.0129,-1.256472 q 0,-1.398958 0.12306,-2.428747 0.0712,-0.595853 0.62823,-0.595853 0.2785,0 0.46632,0.181347 0.18782,0.181346 0.17487,0.453366 z m 5.98443,-1.204658 q -0.35622,0 -0.4987,-0.239637 -0.0971,-0.168393 -0.1684,-0.699479 -0.48575,0.123056 -1.49611,0.453366 -1.04274,0.414506 -1.04922,1.023312 0.1943,0.07124 0.38213,0.103627 1.48963,0.265543 2.21502,0.731863 1.05569,0.680049 1.05569,1.968904 0,1.055696 -0.91321,1.593259 -0.75777,0.440413 -1.91709,0.440413 -0.84844,0 -1.61916,-0.284974 -0.99741,-0.362692 -0.99741,-1.010359 0,-0.259066 0.20078,-0.453366 0.20725,-0.1943 0.46632,-0.1943 0.20077,0 0.51813,0.31088 0.15544,0.148963 0.69948,0.246113 0.43393,0.07772 0.73186,0.07772 0.54404,0 0.95855,-0.129533 0.60233,-0.187823 0.60233,-0.595853 0,-0.880826 -1.23057,-1.191705 l -0.67357,-0.148963 q -0.8614,-0.187824 -1.22409,-0.440413 -0.52461,-0.362693 -0.52461,-1.094556 0,-1.353622 1.2759,-1.930045 0.3886,-0.17487 1.24352,-0.414506 0.85492,-0.246113 1.22409,-0.414506 0.26554,-0.11658 0.57642,-0.11658 0.2785,0 0.45337,0.181346 0.18134,0.181347 0.18134,0.472797 0,0.187823 0.0777,0.550516 0.0842,0.362693 0.0842,0.550516 0,0.29145 -0.18135,0.472796 -0.17487,0.181347 -0.45336,0.181347 z m 6.41837,-0.531087 q -0.13601,0 -0.32384,-0.01295 -0.18134,-0.01295 -0.31735,-0.01295 -0.14896,0 -0.88083,0.09715 l 0.12306,3.827706 0.006,0.284973 0.006,0.33031 q 0.0259,1.418388 -0.68005,1.418388 -0.25906,0 -0.45336,-0.168393 -0.18783,-0.168393 -0.18783,-0.420983 0,-0.246113 0.0194,-0.738339 0.0194,-0.492226 0.0194,-0.738339 l -0.12953,-3.78237 q -0.4728,-0.01943 -1.43782,-0.110103 -0.57642,-0.07772 -0.57642,-0.64119 0,-0.284973 0.17487,-0.472796 0.17487,-0.187823 0.44689,-0.187823 l 1.3601,0.110103 q 0,-0.330309 -0.0324,-0.880826 -0.0259,-0.556992 -0.0259,-0.803105 0,-0.27202 0.18782,-0.44689 0.18782,-0.181346 0.45984,-0.181346 0.5829,0 0.68005,0.952069 0.0194,0.239636 0.0194,0.576422 l -0.0129,0.375647 -0.006,0.401553 q 0.80311,-0.103627 0.91969,-0.103627 0.67357,0 0.88082,0.06477 0.39508,0.129533 0.39508,0.608806 0,0.284973 -0.18135,0.472796 -0.17487,0.181346 -0.45336,0.181346 z m 6.95594,0.731863 q -0.0453,0.809583 -0.64767,0.809583 -0.55699,0 -0.55699,-0.64119 0,-0.123056 -0.0194,-0.453366 l -0.0194,-0.54404 q -1.02331,0.123057 -1.6386,0.576423 -0.57642,0.420983 -0.95854,1.269426 l 0.0129,3.549209 q 0,0.654143 -0.64119,0.654143 -0.56994,0 -0.56994,-0.654143 v -4.546615 q 0,-0.21373 0.0129,-0.641189 0.0194,-0.42746 0.0194,-0.64119 0,-0.654142 0.56995,-0.654142 0.63471,0 0.64119,1.075125 1.24351,-1.198182 2.75905,-1.198182 0.52461,0 0.78368,0.395076 0.25907,0.395077 0.25907,1.191706 0,0.336786 -0.006,0.453366 z m 2.57123,-3.4132 q -0.31088,0 -0.53756,-0.220206 -0.22669,-0.220207 -0.22669,-0.531087 0,-0.310879 0.22669,-0.531086 0.22668,-0.220206 0.53756,-0.220206 0.31088,0 0.53109,0.220206 0.22668,0.220207 0.22668,0.531086 0,0.31088 -0.22668,0.531087 -0.22021,0.220206 -0.53109,0.220206 z m 0.29145,5.259048 q 0,0.3886 0.0194,1.165799 0.0259,0.770723 0.0259,1.159322 0,0.284973 -0.17487,0.46632 -0.17487,0.181346 -0.45985,0.181346 -0.27849,0 -0.45984,-0.181346 -0.17487,-0.181347 -0.17487,-0.46632 0,-0.388599 -0.0259,-1.159322 -0.0194,-0.777199 -0.0194,-1.165799 0,-0.608806 0.0648,-1.515538 0.0648,-0.913209 0.0648,-1.522015 0,-0.29145 0.17487,-0.472797 0.18134,-0.181346 0.45984,-0.181346 0.2785,0 0.45337,0.181346 0.18134,0.181347 0.18134,0.472797 0,0.608806 -0.0648,1.522015 -0.0648,0.906732 -0.0648,1.515538 z m 5.21371,3.23833 q -1.46372,0 -2.37045,-0.731862 -0.99093,-0.809583 -0.99093,-2.266831 0,-1.683932 0.81606,-2.823824 0.8873,-1.243519 2.37045,-1.243519 1.07513,0 1.75518,0.362693 0.83549,0.446889 0.83549,1.373052 0,0.647666 -0.73186,1.178752 -0.32384,0.23316 -1.37306,0.725386 l -2.47408,1.172276 q 0.36269,0.537562 0.90026,0.809582 0.54404,0.27202 1.26294,0.27202 0.44689,0 1.04922,-0.168393 0.76425,-0.21373 0.98446,-0.556993 0.2202,-0.34974 0.47279,-0.34974 0.22669,0 0.40156,0.17487 0.18134,0.168393 0.18134,0.395076 0,0.71891 -1.15932,1.237042 -0.99093,0.440413 -1.93005,0.440413 z m -0.17487,-5.900237 q -0.79015,0 -1.31476,0.615283 -0.52461,0.608806 -0.78367,1.839371 l 1.98833,-0.945592 q 1.17228,-0.569946 1.67098,-0.990929 -0.55699,-0.518133 -1.56088,-0.518133 z m 8.78884,0.615283 q -0.35622,0 -0.49871,-0.239637 -0.0971,-0.168393 -0.16839,-0.699479 -0.48575,0.123056 -1.49611,0.453366 -1.04274,0.414506 -1.04922,1.023312 0.1943,0.07124 0.38212,0.103627 1.48964,0.265543 2.21502,0.731863 1.0557,0.680049 1.0557,1.968904 0,1.055696 -0.91321,1.593259 -0.75777,0.440413 -1.91709,0.440413 -0.84845,0 -1.61917,-0.284974 -0.9974,-0.362692 -0.9974,-1.010359 0,-0.259066 0.20077,-0.453366 0.20726,-0.1943 0.46632,-0.1943 0.20078,0 0.51814,0.31088 0.15544,0.148963 0.69947,0.246113 0.43394,0.07772 0.73187,0.07772 0.54404,0 0.95854,-0.129533 0.60233,-0.187823 0.60233,-0.595853 0,-0.880826 -1.23056,-1.191705 l -0.67358,-0.148963 q -0.86139,-0.187824 -1.22408,-0.440413 -0.52461,-0.362693 -0.52461,-1.094556 0,-1.353622 1.2759,-1.930045 0.3886,-0.17487 1.24352,-0.414506 0.85492,-0.246113 1.22409,-0.414506 0.26554,-0.11658 0.57642,-0.11658 0.27849,0 0.45336,0.181346 0.18135,0.181347 0.18135,0.472797 0,0.187823 0.0777,0.550516 0.0842,0.362693 0.0842,0.550516 0,0.29145 -0.18135,0.472796 -0.17487,0.181347 -0.45336,0.181347 z"
       id="text5"
       style="font-size:13.2642px;font-family:'Comic Sans MS';-inkscape-font-specification:'Comic Sans MS';fill:#3b94d9;stroke:#3b94d9;stroke-width:0.773872;stroke-linecap:round;stroke-linejoin:round"
       aria-label="Disappointment Industries" /></g></svg>
