<?xml version="1.0" encoding="UTF-8" standalone="no"?>
<!-- Created with Inkscape (http://www.inkscape.org/) -->

<svg
   width="40.137657mm"
   height="16.254879mm"
   viewBox="0 0 40.137657 16.254879"
   version="1.1"
   id="svg5"
   inkscape:version="1.2.2 (b0a8486541, 2022-12-01)"
   sodipodi:docname="marcsello-corp-log-ideas.svg"
   xmlns:inkscape="http://www.inkscape.org/namespaces/inkscape"
   xmlns:sodipodi="http://sodipodi.sourceforge.net/DTD/sodipodi-0.dtd"
   xmlns="http://www.w3.org/2000/svg"
   xmlns:svg="http://www.w3.org/2000/svg">
  <sodipodi:namedview
     id="namedview7"
     pagecolor="#ffffff"
     bordercolor="#dab9b9"
     borderopacity="1"
     inkscape:showpageshadow="0"
     inkscape:pageopacity="1"
     inkscape:pagecheckerboard="0"
     inkscape:deskcolor="#ffffff"
     inkscape:document-units="mm"
     showgrid="false"
     showguides="true"
     inkscape:zoom="1.0683582"
     inkscape:cx="100.62168"
     inkscape:cy="132.44622"
     inkscape:window-width="1920"
     inkscape:window-height="1006"
     inkscape:window-x="1920"
     inkscape:window-y="25"
     inkscape:window-maximized="1"
     inkscape:current-layer="layer1">
    <sodipodi:guide
       position="-129.73167,-24.910634"
       orientation="0,-1"
       id="guide1840"
       inkscape:locked="false" />
    <sodipodi:guide
       position="-111.92404,-17.698934"
       orientation="1,0"
       id="guide1842"
       inkscape:locked="false" />
    <sodipodi:guide
       position="-95.235184,4.0311056"
       orientation="1,0"
       id="guide3338"
       inkscape:locked="false" />
    <sodipodi:guide
       position="-59.619903,2.5725956"
       orientation="1,0"
       id="guide3340"
       inkscape:locked="false" />
  </sodipodi:namedview>
  <defs
     id="defs2">
    <linearGradient
       id="linearGradient7121"
       inkscape:swatch="solid">
      <stop
         style="stop-color:#000000;stop-opacity:1;"
         offset="0"
         id="stop7119" />
    </linearGradient>
  </defs>
  <g
     inkscape:label="Layer 1"
     inkscape:groupmode="layer"
     id="layer1"
     transform="translate(-39.120507,-42.325457)">
    <rect
       style="fill:#dfdfdf;fill-opacity:1;stroke-width:0.434032;stroke-linejoin:round;stroke-miterlimit:3"
       id="rect1834-91"
       width="40.137661"
       height="16.254881"
       x="39.12051"
       y="42.325455" />
    <path
       d="m 46.053238,43.246359 v 0 l 0.341064,5.436344 v 2.13423 h -1.30741 l -0.09302,-3.632842 -0.387572,3.632842 h -0.248046 -0.940508 -0.253214 l -0.387572,-3.632842 -0.08785,3.632842 h -1.307409 v -2.13423 L 41.7176,43.246359 h 1.834507 l 0.335896,3.023062 0.335896,-3.023062 z"
       style="font-size:10.5833px;line-height:1.25;font-family:Obrazec;-inkscape-font-specification:Obrazec;stroke-width:0.264583"
       id="path367" />
    <path
       d="m 49.799768,43.241192 v 0 l 0.733803,5.865256 v 1.710485 h -1.229895 l -0.149861,-1.441768 h -0.656289 l -0.149861,1.441768 H 47.11777 v -1.710485 l 0.733803,-5.865256 z m -1.152381,4.692205 v 0 h 0.356566 L 48.823087,46.20741 Z"
       style="font-size:10.5833px;line-height:1.25;font-family:Obrazec;-inkscape-font-specification:Obrazec;stroke-width:0.264583"
       id="path369" />
    <path
       d="m 54.212921,46.734508 v 0 q 0.149861,0.134358 0.232543,0.320392 v 3.762033 h -1.353918 v -3.358958 h -0.480589 v 3.358958 h -1.353918 v -7.570574 h 2.769848 q 0.284219,0.155029 0.418577,0.449584 v 2.723339 q -0.08268,0.180867 -0.232543,0.315226 z m -1.121375,-0.718301 v 0 -1.441767 h -0.480589 v 1.441767 z"
       style="font-size:10.5833px;line-height:1.25;font-family:Obrazec;-inkscape-font-specification:Obrazec;stroke-width:0.264583"
       id="path371" />
    <path
       d="m 58.357357,50.258829 v 0 q -0.118855,0.248046 -0.351398,0.403075 -0.227376,0.155029 -0.516763,0.155029 H 57.003439 56.52285 56.031925 q -0.289387,0 -0.52193,-0.155029 -0.227376,-0.155029 -0.341064,-0.403075 v -6.557718 q 0.139526,-0.30489 0.439249,-0.454752 h 2.325432 q 0.284219,0.155029 0.423745,0.449584 v 2.800854 H 57.003439 V 44.57444 H 56.52285 v 4.800725 h 0.480589 v -2.397779 h 1.353918 z"
       style="font-size:10.5833px;line-height:1.25;font-family:Obrazec;-inkscape-font-specification:Obrazec;stroke-width:0.264583"
       id="path373" />
    <path
       d="m 62.274419,50.258829 v 0 q -0.118856,0.248046 -0.351399,0.403075 -0.227376,0.155029 -0.516763,0.155029 h -0.490924 -0.475422 -0.490924 q -0.289388,0 -0.521931,-0.155029 -0.227375,-0.155029 -0.346231,-0.403075 v -2.325432 h 1.359086 v 1.441768 h 0.475422 v -1.91719 h -0.475422 -0.490924 q -0.289388,0 -0.521931,-0.155029 -0.227375,-0.155028 -0.346231,-0.408242 v -3.198761 q 0.139526,-0.294555 0.423746,-0.449584 h 2.346102 q 0.28422,0.155029 0.423746,0.449584 v 1.839675 H 60.915333 V 44.57444 h -0.475422 v 1.441767 h 0.475422 0.490924 q 0.289387,0 0.516763,0.155029 0.232543,0.149861 0.351399,0.403075 z"
       style="font-size:10.5833px;line-height:1.25;font-family:Obrazec;-inkscape-font-specification:Obrazec;stroke-width:0.264583"
       id="path375" />
    <path
       d="m 62.997886,43.246359 v 0 h 1.441768 1.441768 v 1.328081 h -1.441768 v 1.441767 h 0.961179 v 1.441768 h -0.961179 v 1.91719 h 1.441768 v 1.441768 h -1.441768 -1.441768 z"
       style="font-size:10.5833px;line-height:1.25;font-family:Obrazec;-inkscape-font-specification:Obrazec;stroke-width:0.264583"
       id="path377" />
    <path
       d="m 68.041491,43.246359 v 0 6.128806 h 1.441767 v 1.441768 H 68.041491 66.60489 v -7.570574 z"
       style="font-size:10.5833px;line-height:1.25;font-family:Obrazec;-inkscape-font-specification:Obrazec;stroke-width:0.264583"
       id="path379" />
    <path
       d="m 71.643326,43.246359 v 0 6.128806 h 1.441768 v 1.441768 h -1.441768 -1.4366 v -7.570574 z"
       style="font-size:10.5833px;line-height:1.25;font-family:Obrazec;-inkscape-font-specification:Obrazec;stroke-width:0.264583"
       id="path381" />
    <path
       d="m 76.996987,50.258829 v 0 q -0.118856,0.248046 -0.351399,0.403075 -0.227376,0.155029 -0.516763,0.155029 h -0.485757 -0.480589 -0.490925 q -0.289387,0 -0.52193,-0.155029 -0.227375,-0.155029 -0.341063,-0.403075 v -6.557718 q 0.139526,-0.30489 0.439248,-0.454752 h 2.309929 q 0.294555,0.149862 0.439249,0.454752 z m -1.353919,-0.883664 v 0 -4.800725 h -0.480589 v 4.800725 z"
       style="font-size:10.5833px;line-height:1.25;font-family:Obrazec;-inkscape-font-specification:Obrazec;stroke-width:0.264583"
       id="path383" />
    <path
       d="m 44.943924,53.082473 q -0.467019,0 -0.723213,0.352266 -0.256193,0.349598 -0.256193,0.976738 0,1.304985 0.979406,1.304985 0.410977,0 0.995418,-0.205488 v 0.693857 q -0.480363,0.200151 -1.07281,0.200151 -0.851309,0 -1.302316,-0.515056 -0.451008,-0.517724 -0.451008,-1.483787 0,-0.608459 0.221501,-1.064804 0.2215,-0.459013 0.635146,-0.701863 0.416314,-0.245518 0.974069,-0.245518 0.568429,0 1.142196,0.274874 l -0.266869,0.672507 q -0.218831,-0.104078 -0.440332,-0.18147 -0.221501,-0.07739 -0.434995,-0.07739 z"
       style="font-weight:bold;font-size:5.46546px;line-height:1.25;font-family:'Open Sans';-inkscape-font-specification:'Open Sans Bold';stroke-width:0.136637"
       id="path386" />
    <path
       d="m 47.353743,54.854478 q 0,0.443001 0.144109,0.669839 0.146778,0.226838 0.475026,0.226838 0.325579,0 0.467019,-0.224169 0.144109,-0.226838 0.144109,-0.672508 0,-0.443001 -0.144109,-0.664502 -0.144109,-0.2215 -0.472357,-0.2215 -0.325579,0 -0.469688,0.2215 -0.144109,0.218832 -0.144109,0.664502 z m 2.062891,0 q 0,0.72855 -0.38429,1.139527 -0.38429,0.410977 -1.070141,0.410977 -0.429658,0 -0.757906,-0.186808 -0.328248,-0.189476 -0.504381,-0.541742 -0.176133,-0.352266 -0.176133,-0.821954 0,-0.731219 0.381622,-1.136858 0.381621,-0.40564 1.07281,-0.40564 0.429658,0 0.757905,0.186808 0.328248,0.186807 0.504381,0.536405 0.176133,0.349597 0.176133,0.819285 z"
       style="font-weight:bold;font-size:5.46546px;line-height:1.25;font-family:'Open Sans';-inkscape-font-specification:'Open Sans Bold';stroke-width:0.136637"
       id="path388" />
    <path
       d="m 51.7544,53.31198 q 0.165458,0 0.274874,0.02402 l -0.06138,0.763243 q -0.09874,-0.02669 -0.240181,-0.02669 -0.389628,0 -0.60846,0.200151 -0.216163,0.200151 -0.216163,0.560423 v 1.51848 h -0.813948 v -2.983586 h 0.616466 l 0.12009,0.501712 h 0.04003 Q 51.0045,53.618878 51.239344,53.466764 51.476857,53.31198 51.7544,53.31198 Z"
       style="font-weight:bold;font-size:5.46546px;line-height:1.25;font-family:'Open Sans';-inkscape-font-specification:'Open Sans Bold';stroke-width:0.136637"
       id="path390" />
    <path
       d="m 54.209586,56.404982 q -0.52573,0 -0.824622,-0.381622 h -0.0427 q 0.0427,0.373616 0.0427,0.432327 V 57.6646 h -0.813948 v -4.296578 h 0.661833 l 0.114753,0.386959 h 0.03736 q 0.285549,-0.443001 0.845972,-0.443001 0.528399,0 0.827291,0.408308 0.298892,0.408309 0.298892,1.13419 0,0.477694 -0.14144,0.82996 -0.138771,0.352266 -0.397633,0.536405 -0.258862,0.184139 -0.60846,0.184139 z m -0.240181,-2.441844 q -0.301561,0 -0.440333,0.186808 -0.138771,0.184139 -0.144108,0.611128 v 0.08807 q 0,0.480362 0.14144,0.688519 0.144109,0.208158 0.453676,0.208158 0.547079,0 0.547079,-0.902015 0,-0.440332 -0.136102,-0.659164 -0.133434,-0.221501 -0.421652,-0.221501 z"
       style="font-weight:bold;font-size:5.46546px;line-height:1.25;font-family:'Open Sans';-inkscape-font-specification:'Open Sans Bold';stroke-width:0.136637"
       id="path392" />
    <path
       d="m 56.678117,54.854478 q 0,0.443001 0.144109,0.669839 0.146777,0.226838 0.475025,0.226838 0.325579,0 0.467019,-0.224169 0.144109,-0.226838 0.144109,-0.672508 0,-0.443001 -0.144109,-0.664502 -0.144109,-0.2215 -0.472356,-0.2215 -0.325579,0 -0.469688,0.2215 -0.144109,0.218832 -0.144109,0.664502 z m 2.062891,0 q 0,0.72855 -0.38429,1.139527 -0.384291,0.410977 -1.070142,0.410977 -0.429657,0 -0.757905,-0.186808 -0.328248,-0.189476 -0.504381,-0.541742 -0.176133,-0.352266 -0.176133,-0.821954 0,-0.731219 0.381621,-1.136858 0.381622,-0.40564 1.07281,-0.40564 0.429658,0 0.757906,0.186808 0.328248,0.186807 0.504381,0.536405 0.176133,0.349597 0.176133,0.819285 z"
       style="font-weight:bold;font-size:5.46546px;line-height:1.25;font-family:'Open Sans';-inkscape-font-specification:'Open Sans Bold';stroke-width:0.136637"
       id="path394" />
    <path
       d="m 61.078773,53.31198 q 0.165458,0 0.274874,0.02402 l -0.06138,0.763243 q -0.09874,-0.02669 -0.240181,-0.02669 -0.389627,0 -0.608459,0.200151 -0.216164,0.200151 -0.216164,0.560423 v 1.51848 h -0.813947 v -2.983586 h 0.616465 l 0.120091,0.501712 h 0.04003 q 0.138771,-0.250856 0.373615,-0.40297 0.237513,-0.154784 0.515056,-0.154784 z"
       style="font-weight:bold;font-size:5.46546px;line-height:1.25;font-family:'Open Sans';-inkscape-font-specification:'Open Sans Bold';stroke-width:0.136637"
       id="path396" />
    <path
       d="m 63.680737,56.351608 -0.157452,-0.405639 h -0.02135 q -0.205488,0.258862 -0.42432,0.360272 -0.216163,0.09874 -0.565761,0.09874 -0.429657,0 -0.677845,-0.245519 -0.245518,-0.245518 -0.245518,-0.699194 0,-0.475026 0.330916,-0.699195 0.333585,-0.226838 1.003424,-0.250856 l 0.517725,-0.01601 v -0.130765 q 0,-0.453676 -0.464351,-0.453676 -0.357603,0 -0.840635,0.216163 L 61.866033,53.57618 q 0.515056,-0.269536 1.142196,-0.269536 0.600454,0 0.920695,0.26153 0.320242,0.261531 0.320242,0.795268 v 1.988167 z m -0.240181,-1.382377 -0.314905,0.01067 q -0.354934,0.01067 -0.528399,0.128097 -0.173464,0.117422 -0.173464,0.357603 0,0.34426 0.394965,0.34426 0.28288,0 0.451007,-0.16279 0.170796,-0.162789 0.170796,-0.432326 z"
       style="font-weight:bold;font-size:5.46546px;line-height:1.25;font-family:'Open Sans';-inkscape-font-specification:'Open Sans Bold';stroke-width:0.136637"
       id="path398" />
    <path
       d="m 66.344081,55.756492 q 0.213494,0 0.512387,-0.0934 v 0.605791 q -0.30423,0.136103 -0.747231,0.136103 -0.488369,0 -0.712538,-0.245519 -0.221501,-0.248187 -0.221501,-0.741893 v -1.43842 h -0.389627 v -0.34426 l 0.448338,-0.272205 0.234844,-0.629809 h 0.520393 v 0.635146 h 0.835298 v 0.611128 h -0.835298 v 1.43842 q 0,0.173464 0.09607,0.256193 0.09874,0.08273 0.258862,0.08273 z"
       style="font-weight:bold;font-size:5.46546px;line-height:1.25;font-family:'Open Sans';-inkscape-font-specification:'Open Sans Bold';stroke-width:0.136637"
       id="path400" />
    <path
       d="m 67.424897,52.596773 q 0,-0.397633 0.443001,-0.397633 0.443001,0 0.443001,0.397633 0,0.189477 -0.112085,0.296224 -0.109416,0.104079 -0.330916,0.104079 -0.443001,0 -0.443001,-0.400303 z m 0.84864,3.754835 h -0.813948 v -2.983586 h 0.813948 z"
       style="font-weight:bold;font-size:5.46546px;line-height:1.25;font-family:'Open Sans';-inkscape-font-specification:'Open Sans Bold';stroke-width:0.136637"
       id="path402" />
    <path
       d="m 69.776006,54.854478 q 0,0.443001 0.144109,0.669839 0.146777,0.226838 0.475025,0.226838 0.325579,0 0.467019,-0.224169 0.144109,-0.226838 0.144109,-0.672508 0,-0.443001 -0.144109,-0.664502 -0.144109,-0.2215 -0.472356,-0.2215 -0.32558,0 -0.469688,0.2215 -0.144109,0.218832 -0.144109,0.664502 z m 2.062891,0 q 0,0.72855 -0.38429,1.139527 -0.384291,0.410977 -1.070142,0.410977 -0.429657,0 -0.757905,-0.186808 -0.328248,-0.189476 -0.504381,-0.541742 -0.176133,-0.352266 -0.176133,-0.821954 0,-0.731219 0.381621,-1.136858 0.381622,-0.40564 1.07281,-0.40564 0.429658,0 0.757906,0.186808 0.328248,0.186807 0.504381,0.536405 0.176133,0.349597 0.176133,0.819285 z"
       style="font-weight:bold;font-size:5.46546px;line-height:1.25;font-family:'Open Sans';-inkscape-font-specification:'Open Sans Bold';stroke-width:0.136637"
       id="path404" />
    <path
       d="m 75.265484,56.351608 h -0.813948 v -1.742649 q 0,-0.32291 -0.114753,-0.483031 -0.114754,-0.16279 -0.36561,-0.16279 -0.341591,0 -0.493706,0.229507 -0.152115,0.226838 -0.152115,0.755237 v 1.403726 h -0.813948 v -2.983586 h 0.621803 l 0.109416,0.381622 h 0.04537 q 0.136103,-0.216163 0.373615,-0.325579 0.240182,-0.112085 0.544411,-0.112085 0.520393,0 0.78993,0.28288 0.269537,0.280212 0.269537,0.811279 z"
       style="font-weight:bold;font-size:5.46546px;line-height:1.25;font-family:'Open Sans';-inkscape-font-specification:'Open Sans Bold';stroke-width:0.136637"
       id="path406" />
  </g>
</svg>
