<?xml version="1.0" encoding="UTF-8"?>
<svg width="114.67mm" height="50.184mm" version="1.1" viewBox="0 0 114.67 50.184" xmlns="http://www.w3.org/2000/svg">
<defs>
<clipPath id="a">
<rect x="28.961" y="205.16" width="2.3662" height="2.2109" fill="#4f4c48"/>
</clipPath>
</defs>
<g transform="translate(-56.752 -32.069)">
<rect x="56.752" y="36.919" width="96.302" height="40.483" ry="0" fill="#403e3a"/>
<path d="m56.752 36.919 57.333 20.242 57.333-20.242z" fill="#6b6862"/>
<path d="m171.42 36.919-57.333 20.242 57.333 20.241z" fill="#282725"/>
<path d="m171.42 77.402-57.333-20.241-57.333 20.242z" fill="#191816"/>
<path d="m56.752 77.402 57.333-20.242-57.333-20.242z" fill="#282725"/>
<rect x="61.685" y="38.64" width="104.8" height="36.995" fill="#403e3a"/>
<circle cx="66.473" cy="71.611" r="1.3943" fill="#6b6862"/>
<circle cx="61.685" cy="57.161" r="2.9256" fill="#282725"/>
<path d="m61.685 75.635h104.8v-36.995z" fill="#4f4c48"/>
<g transform="translate(-235.6 83.082)">
<rect transform="scale(-1)" x="-301.46" y="5.4511" width="4.5543" height=".75819" fill="#232220"/>
<rect transform="scale(-1)" x="-301.46" y="2.4183" width="4.5543" height="3.0328" fill="#6b6862"/>
<path d="m301.46-2.4183a2.277 1.5887 0 0 1-1.1385 1.3758 2.277 1.5887 0 0 1-2.277 0 2.277 1.5887 0 0 1-1.1385-1.3758" fill="#918d86" stroke-linejoin="round" stroke-width="1.7272"/>
</g>
<g transform="translate(-226.42 83.082)">
<rect transform="scale(-1)" x="-301.46" y="5.4511" width="4.5543" height=".75819" fill="#232220"/>
<rect transform="scale(-1)" x="-301.46" y="2.4183" width="4.5543" height="3.0328" fill="#6b6862"/>
<path d="m301.46-2.4183a2.277 1.5887 0 0 1-1.1385 1.3758 2.277 1.5887 0 0 1-2.277 0 2.277 1.5887 0 0 1-1.1385-1.3758" fill="#918d86" stroke-linejoin="round" stroke-width="1.7272"/>
</g>
<g transform="translate(-217.23 83.082)">
<rect transform="scale(-1)" x="-301.46" y="5.4511" width="4.5543" height=".75819" fill="#232220"/>
<rect transform="scale(-1)" x="-301.46" y="2.4183" width="4.5543" height="3.0328" fill="#6b6862"/>
<path d="m301.46-2.4183a2.277 1.5887 0 0 1-1.1385 1.3758 2.277 1.5887 0 0 1-2.277 0 2.277 1.5887 0 0 1-1.1385-1.3758" fill="#918d86" stroke-linejoin="round" stroke-width="1.7272"/>
</g>
<g transform="translate(-208.05 83.082)">
<rect transform="scale(-1)" x="-301.46" y="5.4511" width="4.5543" height=".75819" fill="#232220"/>
<rect transform="scale(-1)" x="-301.46" y="2.4183" width="4.5543" height="3.0328" fill="#6b6862"/>
<path d="m301.46-2.4183a2.277 1.5887 0 0 1-1.1385 1.3758 2.277 1.5887 0 0 1-2.277 0 2.277 1.5887 0 0 1-1.1385-1.3758" fill="#918d86" stroke-linejoin="round" stroke-width="1.7272"/>
</g>
<g transform="translate(-198.87 83.082)">
<rect transform="scale(-1)" x="-301.46" y="5.4511" width="4.5543" height=".75819" fill="#232220"/>
<rect transform="scale(-1)" x="-301.46" y="2.4183" width="4.5543" height="3.0328" fill="#6b6862"/>
<path d="m301.46-2.4183a2.277 1.5887 0 0 1-1.1385 1.3758 2.277 1.5887 0 0 1-2.277 0 2.277 1.5887 0 0 1-1.1385-1.3758" fill="#918d86" stroke-linejoin="round" stroke-width="1.7272"/>
</g>
<g transform="translate(-189.69 83.082)">
<rect transform="scale(-1)" x="-301.46" y="5.4511" width="4.5543" height=".75819" fill="#232220"/>
<rect transform="scale(-1)" x="-301.46" y="2.4183" width="4.5543" height="3.0328" fill="#6b6862"/>
<path d="m301.46-2.4183a2.277 1.5887 0 0 1-1.1385 1.3758 2.277 1.5887 0 0 1-2.277 0 2.277 1.5887 0 0 1-1.1385-1.3758" fill="#918d86" stroke-linejoin="round" stroke-width="1.7272"/>
</g>
<g transform="translate(-180.51 83.082)">
<rect transform="scale(-1)" x="-301.46" y="5.4511" width="4.5543" height=".75819" fill="#232220"/>
<rect transform="scale(-1)" x="-301.46" y="2.4183" width="4.5543" height="3.0328" fill="#6b6862"/>
<path d="m301.46-2.4183a2.277 1.5887 0 0 1-1.1385 1.3758 2.277 1.5887 0 0 1-2.277 0 2.277 1.5887 0 0 1-1.1385-1.3758" fill="#918d86" stroke-linejoin="round" stroke-width="1.7272"/>
</g>
<g transform="translate(-171.32 83.082)">
<rect transform="scale(-1)" x="-301.46" y="5.4511" width="4.5543" height=".75819" fill="#232220"/>
<rect transform="scale(-1)" x="-301.46" y="2.4183" width="4.5543" height="3.0328" fill="#6b6862"/>
<path d="m301.46-2.4183a2.277 1.5887 0 0 1-1.1385 1.3758 2.277 1.5887 0 0 1-2.277 0 2.277 1.5887 0 0 1-1.1385-1.3758" fill="#918d86" stroke-linejoin="round" stroke-width="1.7272"/>
</g>
<g transform="translate(-162.14 83.082)">
<rect transform="scale(-1)" x="-301.46" y="5.4511" width="4.5543" height=".75819" fill="#232220"/>
<rect transform="scale(-1)" x="-301.46" y="2.4183" width="4.5543" height="3.0328" fill="#6b6862"/>
<path d="m301.46-2.4183a2.277 1.5887 0 0 1-1.1385 1.3758 2.277 1.5887 0 0 1-2.277 0 2.277 1.5887 0 0 1-1.1385-1.3758" fill="#918d86" stroke-linejoin="round" stroke-width="1.7272"/>
</g>
<g transform="translate(-152.96 83.082)">
<rect transform="scale(-1)" x="-301.46" y="5.4511" width="4.5543" height=".75819" fill="#232220"/>
<rect transform="scale(-1)" x="-301.46" y="2.4183" width="4.5543" height="3.0328" fill="#6b6862"/>
<path d="m301.46-2.4183a2.277 1.5887 0 0 1-1.1385 1.3758 2.277 1.5887 0 0 1-2.277 0 2.277 1.5887 0 0 1-1.1385-1.3758" fill="#918d86" stroke-linejoin="round" stroke-width="1.7272"/>
</g>
<g transform="translate(-143.78 83.082)">
<rect transform="scale(-1)" x="-301.46" y="5.4511" width="4.5543" height=".75819" fill="#232220"/>
<rect transform="scale(-1)" x="-301.46" y="2.4183" width="4.5543" height="3.0328" fill="#6b6862"/>
<path d="m301.46-2.4183a2.277 1.5887 0 0 1-1.1385 1.3758 2.277 1.5887 0 0 1-2.277 0 2.277 1.5887 0 0 1-1.1385-1.3758" fill="#918d86" stroke-linejoin="round" stroke-width="1.7272"/>
</g>
<g transform="translate(-134.6 83.082)">
<rect transform="scale(-1)" x="-301.46" y="5.4511" width="4.5543" height=".75819" fill="#232220"/>
<rect transform="scale(-1)" x="-301.46" y="2.4183" width="4.5543" height="3.0328" fill="#6b6862"/>
<path d="m301.46-2.4183a2.277 1.5887 0 0 1-1.1385 1.3758 2.277 1.5887 0 0 1-2.277 0 2.277 1.5887 0 0 1-1.1385-1.3758" fill="#918d86" stroke-linejoin="round" stroke-width="1.7272"/>
</g>
<g transform="translate(-236.03 110.47)">
<rect transform="scale(-1,1)" x="-301.89" y="-73.775" width="4.5543" height=".75819" fill="#3e3c38"/>
<rect transform="scale(-1,1)" x="-301.89" y="-76.808" width="4.5543" height="3.0328" fill="#6b6862"/>
<path transform="scale(1,-1)" d="m301.89 76.808a2.277 1.5887 0 0 1-1.1385 1.3758 2.277 1.5887 0 0 1-2.277 0 2.277 1.5887 0 0 1-1.1385-1.3758" fill="#918d86" stroke-linejoin="round" stroke-width="1.7272"/>
<rect transform="scale(-1,1)" x="-311.07" y="-73.775" width="4.5543" height=".75819" fill="#3e3c38"/>
<rect transform="scale(-1,1)" x="-311.07" y="-76.808" width="4.5543" height="3.0328" fill="#6b6862"/>
<path transform="scale(1,-1)" d="m311.07 76.808a2.277 1.5887 0 0 1-1.1385 1.3758 2.277 1.5887 0 0 1-2.277 0 2.277 1.5887 0 0 1-1.1385-1.3758" fill="#918d86" stroke-linejoin="round" stroke-width="1.7272"/>
<rect transform="scale(-1,1)" x="-320.25" y="-73.775" width="4.5543" height=".75819" fill="#3e3c38"/>
<rect transform="scale(-1,1)" x="-320.25" y="-76.808" width="4.5543" height="3.0328" fill="#6b6862"/>
<path transform="scale(1,-1)" d="m320.25 76.808a2.277 1.5887 0 0 1-1.1385 1.3758 2.277 1.5887 0 0 1-2.277 0 2.277 1.5887 0 0 1-1.1385-1.3758" fill="#918d86" stroke-linejoin="round" stroke-width="1.7272"/>
<rect transform="scale(-1,1)" x="-329.43" y="-73.775" width="4.5543" height=".75819" fill="#3e3c38"/>
<rect transform="scale(-1,1)" x="-329.43" y="-76.808" width="4.5543" height="3.0328" fill="#6b6862"/>
<path transform="scale(1,-1)" d="m329.43 76.808a2.277 1.5887 0 0 1-1.1385 1.3758 2.277 1.5887 0 0 1-2.277 0 2.277 1.5887 0 0 1-1.1385-1.3758" fill="#918d86" stroke-linejoin="round" stroke-width="1.7272"/>
<rect transform="scale(-1,1)" x="-338.62" y="-73.775" width="4.5543" height=".75819" fill="#3e3c38"/>
<rect transform="scale(-1,1)" x="-338.62" y="-76.808" width="4.5543" height="3.0328" fill="#6b6862"/>
<path transform="scale(1,-1)" d="m338.62 76.808a2.277 1.5887 0 0 1-1.1385 1.3758 2.277 1.5887 0 0 1-2.277 0 2.277 1.5887 0 0 1-1.1385-1.3758" fill="#918d86" stroke-linejoin="round" stroke-width="1.7272"/>
<rect transform="scale(-1,1)" x="-347.8" y="-73.775" width="4.5543" height=".75819" fill="#3e3c38"/>
<rect transform="scale(-1,1)" x="-347.8" y="-76.808" width="4.5543" height="3.0328" fill="#6b6862"/>
<path transform="scale(1,-1)" d="m347.8 76.808a2.277 1.5887 0 0 1-1.1385 1.3758 2.277 1.5887 0 0 1-2.277 0 2.277 1.5887 0 0 1-1.1385-1.3758" fill="#918d86" stroke-linejoin="round" stroke-width="1.7272"/>
<rect transform="scale(-1,1)" x="-356.98" y="-73.775" width="4.5543" height=".75819" fill="#3e3c38"/>
<rect transform="scale(-1,1)" x="-356.98" y="-76.808" width="4.5543" height="3.0328" fill="#6b6862"/>
<path transform="scale(1,-1)" d="m356.98 76.808a2.277 1.5887 0 0 1-1.1385 1.3758 2.277 1.5887 0 0 1-2.277 0 2.277 1.5887 0 0 1-1.1385-1.3758" fill="#918d86" stroke-linejoin="round" stroke-width="1.7272"/>
<rect transform="scale(-1,1)" x="-366.16" y="-73.775" width="4.5543" height=".75819" fill="#3e3c38"/>
<rect transform="scale(-1,1)" x="-366.16" y="-76.808" width="4.5543" height="3.0328" fill="#6b6862"/>
<path transform="scale(1,-1)" d="m366.16 76.808a2.277 1.5887 0 0 1-1.1385 1.3758 2.277 1.5887 0 0 1-2.277 0 2.277 1.5887 0 0 1-1.1385-1.3758" fill="#918d86" stroke-linejoin="round" stroke-width="1.7272"/>
<rect transform="scale(-1,1)" x="-375.34" y="-73.775" width="4.5543" height=".75819" fill="#3e3c38"/>
<rect transform="scale(-1,1)" x="-375.34" y="-76.808" width="4.5543" height="3.0328" fill="#6b6862"/>
<path transform="scale(1,-1)" d="m375.34 76.808a2.277 1.5887 0 0 1-1.1385 1.3758 2.277 1.5887 0 0 1-2.277 0 2.277 1.5887 0 0 1-1.1385-1.3758" fill="#918d86" stroke-linejoin="round" stroke-width="1.7272"/>
<rect transform="scale(-1,1)" x="-384.53" y="-73.775" width="4.5543" height=".75819" fill="#3e3c38"/>
<rect transform="scale(-1,1)" x="-384.53" y="-76.808" width="4.5543" height="3.0328" fill="#6b6862"/>
<path transform="scale(1,-1)" d="m384.53 76.808a2.277 1.5887 0 0 1-1.1385 1.3758 2.277 1.5887 0 0 1-2.277 0 2.277 1.5887 0 0 1-1.1385-1.3758" fill="#918d86" stroke-linejoin="round" stroke-width="1.7272"/>
<rect transform="scale(-1,1)" x="-393.71" y="-73.775" width="4.5543" height=".75819" fill="#3e3c38"/>
<rect transform="scale(-1,1)" x="-393.71" y="-76.808" width="4.5543" height="3.0328" fill="#6b6862"/>
<path transform="scale(1,-1)" d="m393.71 76.808a2.277 1.5887 0 0 1-1.1385 1.3758 2.277 1.5887 0 0 1-2.277 0 2.277 1.5887 0 0 1-1.1385-1.3758" fill="#918d86" stroke-linejoin="round" stroke-width="1.7272"/>
<rect transform="scale(-1,1)" x="-402.89" y="-73.775" width="4.5543" height=".75819" fill="#3e3c38"/>
<rect transform="scale(-1,1)" x="-402.89" y="-76.808" width="4.5543" height="3.0328" fill="#6b6862"/>
<path transform="scale(1,-1)" d="m402.89 76.808a2.277 1.5887 0 0 1-1.1385 1.3758 2.277 1.5887 0 0 1-2.277 0 2.277 1.5887 0 0 1-1.1385-1.3758" fill="#918d86" stroke-linejoin="round" stroke-width="1.7272"/>
</g>
<g transform="matrix(1.9126 0 0 1.9126 25.066 -319.26)" stroke-width=".26458" style="mix-blend-mode:normal">
<g aria-label="P">
<path d="m28.232 195.28v3.2866h2.8663q0.24116 0 0.41341-0.17914 0.17914-0.17915 0.17914-0.41341v-2.1015q0-0.23427-0.17914-0.41341-0.17226-0.17915-0.41341-0.17915zm-1.1851-1.1851h4.0514q0.73036 0 1.2609 0.52366 0.53054 0.52365 0.53054 1.254v2.1015q0 0.73725-0.52365 1.2678-0.52365 0.52365-1.2678 0.52365h-2.8663v2.8112q0 0.29628-0.16536 0.47542-0.16536 0.18604-0.42719 0.18604t-0.42719-0.18604q-0.16536-0.18603-0.16536-0.47542z"/>
</g>
<g aria-label="P">
<path d="m26.115 192.63v3.2866h2.8663q0.24116 0 0.41341-0.17914 0.17914-0.17915 0.17914-0.41341v-2.1015q0-0.23427-0.17914-0.41341-0.17225-0.17914-0.41341-0.17914zm-1.1851-1.1851h4.0514q0.73036 0 1.2609 0.52366 0.53054 0.52365 0.53054 1.254v2.1015q0 0.73725-0.52365 1.2678-0.52365 0.52366-1.2678 0.52366h-2.8663v2.8112q0 0.29628-0.16536 0.47542-0.16536 0.18604-0.42719 0.18604t-0.42719-0.18604q-0.16536-0.18603-0.16536-0.47542z"/>
</g>
</g>
<g transform="translate(-24.797 -47.52)" stroke-width=".50604" aria-label="P">
<path d="m102.85 100.73v6.2859h5.4821q0.46123 0 0.79068-0.34263 0.34263-0.34263 0.34263-0.79068v-4.0193q0-0.44805-0.34263-0.79068-0.32945-0.34263-0.79068-0.34263zm-2.2666-2.2666h7.7487q1.3969 0 2.4116 1.0015 1.0147 1.0015 1.0147 2.3984v4.0193q0 1.41-1.0015 2.4248-1.0015 1.0015-2.4248 1.0015h-5.4821v5.3766q0 0.56666-0.31628 0.90929-0.31627 0.35581-0.81704 0.35581t-0.81704-0.35581-0.31627-0.90929z" fill="#207ea2"/>
</g>
<g transform="translate(-24.797 -47.52)" stroke-width=".50604" aria-label="P">
<path d="m98.798 95.674v6.2859h5.4821q0.46123 0 0.79068-0.34263 0.34263-0.34263 0.34263-0.79068v-4.0193q0-0.44805-0.34263-0.79068-0.32945-0.34263-0.79068-0.34263zm-2.2666-2.2666h7.7487q1.3969 0 2.4116 1.0015 1.0147 1.0015 1.0147 2.3984v4.0193q0 1.41-1.0015 2.4248-1.0015 1.0015-2.4248 1.0015h-5.4821v5.3766q0 0.56666-0.31627 0.90929-0.31627 0.35581-0.81704 0.35581t-0.81704-0.35581q-0.31627-0.35581-0.31627-0.90929z" fill="#ac2273"/>
</g>
<text transform="matrix(1.9126 0 0 1.9126 24.079 -342.36)" x="25.593279" y="214.19218" clip-path="url(#a)" fill="#000000" font-family="sans-serif" font-size="14.111px" stroke-width=".26458" style="line-height:0" xml:space="preserve"><tspan x="25.593279" y="214.19218" fill="#207ea2" font-family="'OCR-A BT'" font-size="14.111px" stroke-width=".26458">P</tspan></text>
<g transform="translate(217.43 -21.3)">
<path transform="matrix(.062938 0 0 .062938 -106.55 47.881)" d="m308.11 614.3 172.89-164.5v-197.7l-225.4 362.2z" fill-opacity=".47451" stroke-width=".99754"/>
<path transform="matrix(.062938 0 0 .062938 -106.55 47.881)" d="m556.65 614.29-75.651-164.6v-197.59l225.4 362.2z" fill-opacity=".37255" stroke-width=".99754"/>
<path transform="matrix(.062938 0 0 .062938 -106.55 47.881)" d="m208.5 687.5h161.2l-67.874-67.193 6.2796-6.0075h-52.506z" fill-opacity=".60392" stroke-width=".99754"/>
<polygon transform="matrix(.062938 0 0 .062938 -106.55 47.881)" points="706.4 614.3 556.6 614.3 590.3 687.5 750 687.5" fill-opacity=".32157" stroke-width=".99754"/>
<path d="m-58.79 93.114h-35.119c-0.54127 0-0.98183-0.44057-0.98183-0.98183 0-0.54127 0.44057-0.98183 0.98183-0.98183h35.113c0.54127 0 0.98183 0.44057 0.98183 0.98183 0.0063 0.54127-0.43427 0.98183-0.97554 0.98183z" fill-opacity=".46274" stroke-width=".062783"/>
<polygon transform="matrix(.062938 0 0 .062938 -106.55 47.881)" points="481 449.8 590.3 687.5 369.7 687.5" fill-opacity=".16863" stroke-width=".99754"/>
<polygon transform="matrix(.062938 0 0 .062938 -106.55 47.881)" points="481 449.8 301.8 620.3 369.7 687.5" fill-opacity=".32157" stroke-width=".99754"/>
<path d="m-55.373 88.539c0.53059 0 0.95774 0.42715 0.95774 0.95774v2.5403c0 0.53059-0.42715 0.95774-0.95774 0.95774s-0.95774-0.42715-0.95774-0.95774v-2.5403c0-0.53059 0.42715-0.95774 0.95774-0.95774z" fill-opacity=".46274" stroke-miterlimit="3" stroke-width=".176" style="paint-order:stroke fill markers"/>
<path d="m-97.313 88.539c0.53059 0 0.95774 0.42715 0.95774 0.95774v2.5403c0 0.53059-0.42715 0.95774-0.95774 0.95774-0.53059 0-0.95774-0.42715-0.95774-0.95774v-2.5403c0-0.53059 0.42715-0.95774 0.95774-0.95774z" fill-opacity=".46274" stroke-miterlimit="3" stroke-width=".176" style="paint-order:stroke fill markers"/>
<path d="m-98.271 90.434c-0.18403 2.57e-4 -0.33285 0.14995-0.33203 0.33398 2.58e-4 0.18327 0.14876 0.33177 0.33203 0.33203m1.9163 0h0.32977l20.617-27.834c0.10891-0.14779 0.07743-0.35588-0.07031-0.46484-0.07053-0.05257-0.15902-0.07504-0.24609-0.0625h-3e-6c-0.08741 0.01283-0.16611 0.05991-0.21875 0.13086l-20.412 27.569" color="#000000" fill-opacity=".47451" stroke-linecap="round" style="-inkscape-stroke:none"/>
<path d="m-54.416 91.1c0.18403 8.22e-4 0.33373-0.148 0.33398-0.33203 8.27e-4 -0.1848-0.14919-0.33481-0.33398-0.33398m-1.9148 0-20.298-27.562c-0.05228-0.07168-0.13103-0.1195-0.21875-0.13281h-2e-6c-0.08707-0.01254-0.17556 0.0099-0.24609 0.0625-0.14774 0.10897-0.17922 0.31706-0.07031 0.46484l20.504 27.834h0.32929" color="#000000" fill-opacity=".47451" stroke-linecap="round" style="-inkscape-stroke:none"/>
</g>
<g transform="translate(-24.797 -47.52)" fill="#e6e6e6" stroke-width=".457" aria-label="PROJEKT">
<path d="m115.98 100.62v3.9439h3.4396q0.28938 0 0.49609-0.21497 0.21497-0.21498 0.21497-0.4961v-2.5218q0-0.28112-0.21497-0.49609-0.20671-0.21498-0.49609-0.21498zm-1.4221-1.4221h4.8617q0.87643 0 1.5131 0.62838t0.63665 1.5048v2.5218q0 0.8847-0.62838 1.5214-0.62839 0.62838-1.5214 0.62838h-3.4396v3.3734q0 0.35553-0.19844 0.57051-0.19843 0.22324-0.51263 0.22324-0.31419 0-0.51262-0.22324-0.19844-0.22324-0.19844-0.57051z"/>
<path d="m126.45 100.62v2.1663h3.4396q0.28938 0 0.49609-0.22324 0.21497-0.22324 0.21497-0.50436v-0.7276q0-0.28112-0.21497-0.49609-0.21498-0.21498-0.49609-0.21498zm-1.4221-1.4221h4.8617q0.87643 0 1.5131 0.62838t0.63665 1.5048v0.7276q0 0.8847-0.62838 1.5214-0.62839 0.62839-1.5214 0.62839h-0.76068l2.7698 4.8286q0.0744 0.12403 0.10749 0.22325 0.0331 0.0992 0.0331 0.1819 0 0.29765-0.2067 0.50436-0.20671 0.2067-0.50437 0.2067-0.2067 0-0.38033-0.10748-0.17364-0.10749-0.28112-0.29766l-3.1998-5.5397h-1.017v5.1676q0 0.35553-0.19844 0.57051-0.19844 0.22324-0.51263 0.22324t-0.51263-0.22324q-0.19843-0.22324-0.19843-0.57051z"/>
<path d="m139.37 100.89q-0.0909-0.15709-0.17364-0.21497-0.0744-0.0579-0.19843-0.0579-0.11576 0-0.22325 0.0744-0.10748 0.0744-0.16536 0.19017l-1.5296 3.0096q-0.0744 0.14882-0.12402 0.3638-0.0413 0.21497-0.0413 0.42168 0 0.21497 0.0413 0.42994 0.0496 0.21498 0.12402 0.3638l1.5462 3.0014q0.0827 0.15709 0.16536 0.21497 0.0827 0.0579 0.20671 0.0579 0.11575 0 0.22324-0.0661 0.10748-0.0744 0.16536-0.2067l1.5214-2.9931q0.0744-0.14883 0.12403-0.3638 0.0496-0.22324 0.0496-0.43821 0-0.21498-0.0496-0.43822t-0.12403-0.35553zm1.356-0.49609 1.4717 2.9021q0.14056 0.27286 0.22325 0.63666 0.0827 0.3638 0.0827 0.74414 0 0.3886-0.0827 0.7524t-0.22325 0.63666l-1.4717 2.9021q-0.34726 0.65319-0.74414 0.92604-0.39687 0.27285-0.98391 0.27285-0.59532 0-0.99219-0.27285t-0.73587-0.92604l-1.4717-2.9021q-0.14883-0.28939-0.23151-0.64493-0.0744-0.3638-0.0744-0.74413 0-0.38034 0.0744-0.74414 0.0827-0.3638 0.23151-0.63666l1.4717-2.9021q0.339-0.65319 0.73587-0.92604 0.39687-0.27285 0.99219-0.27285 0.58704 0 0.98391 0.27285 0.39688 0.27285 0.74414 0.92604z"/>
<path d="m152.28 99.989v8.045q0 0.87643-0.63666 1.5048-0.63665 0.62839-1.5131 0.62839h-1.3229q-0.89297 0-1.5214-0.62839-0.62839-0.62011-0.62839-1.5048v-2.0836q0-0.3638 0.19017-0.57051 0.19844-0.2067 0.5209-0.2067 0.31419 0 0.5209 0.22324 0.2067 0.21497 0.2067 0.55397v2.0836q0 0.29766 0.20671 0.50436 0.21497 0.20671 0.50436 0.20671h1.3229q0.28112 0 0.50436-0.21498 0.22324-0.21497 0.22324-0.49609v-8.045q0-0.3638 0.19017-0.57878 0.19844-0.21497 0.5209-0.21497 0.30592 0 0.50436 0.22324 0.20671 0.22324 0.20671 0.57051z"/>
<path d="m156.43 99.195h6.2177q0.35553 0 0.5705 0.19844 0.22324 0.19844 0.22324 0.51263 0 0.30592-0.22324 0.51263-0.22324 0.19843-0.5705 0.19843h-4.7956v3.3486h2.0174q0.34726 0 0.56223 0.19844 0.21498 0.19843 0.21498 0.51263 0 0.31419-0.21498 0.51262-0.21497 0.19844-0.56223 0.19844h-2.0174v3.3569h4.7956q0.35553 0 0.5705 0.19843 0.22324 0.19844 0.22324 0.51263t-0.22324 0.51263-0.5705 0.19844h-6.2177z"/>
<path d="m168.32 99.989v3.1502l4.3491-3.7207q0.13229-0.12402 0.25632-0.17363 0.12402-0.04961 0.27285-0.04961 0.28939 0 0.49609 0.20671 0.21497 0.19844 0.21497 0.47129 0 0.17364-0.0827 0.33073-0.0744 0.1571-0.22324 0.28112l-4.9113 4.192 4.9113 4.2002q0.14056 0.13229 0.22324 0.29765 0.0827 0.1571 0.0827 0.3142 0 0.27285-0.21497 0.47128-0.2067 0.20671-0.49609 0.20671-0.14883 0-0.27285-0.0496-0.12403-0.0496-0.25632-0.17363l-4.3491-3.7207v3.1502q0 0.35553-0.19843 0.57051-0.19844 0.22324-0.51263 0.22324-0.3142 0-0.51263-0.22324-0.19844-0.22324-0.19844-0.57051v-9.3844q0-0.3638 0.19017-0.57878 0.19844-0.21497 0.5209-0.21497 0.30592 0 0.50436 0.22324 0.2067 0.22324 0.2067 0.57051z"/>
<path d="m177.36 99.195h7.0114v1.8273q0 0.35553-0.19844 0.57877-0.19843 0.21497-0.51263 0.21497-0.31419 0-0.51263-0.22324-0.19843-0.22324-0.19843-0.5705v-0.40515h-1.3725v8.756q0 0.35553-0.19843 0.57051-0.19844 0.22324-0.51263 0.22324t-0.51263-0.22324-0.19844-0.57051v-8.756h-1.3725v0.40515q0 0.35553-0.19844 0.57877-0.19844 0.21497-0.51263 0.21497t-0.51263-0.22324q-0.19843-0.22324-0.19843-0.5705z"/>
</g>
</g>
</svg>
