<?xml version="1.0" encoding="UTF-8" standalone="no"?>
<!-- Created with Inkscape (http://www.inkscape.org/) -->

<svg
   width="47.990448mm"
   height="52.789295mm"
   viewBox="0 0 47.990448 52.789295"
   version="1.1"
   id="svg5"
   inkscape:version="1.2.2 (b0a8486541, 2022-12-01)"
   sodipodi:docname="pp.svg"
   xmlns:inkscape="http://www.inkscape.org/namespaces/inkscape"
   xmlns:sodipodi="http://sodipodi.sourceforge.net/DTD/sodipodi-0.dtd"
   xmlns="http://www.w3.org/2000/svg"
   xmlns:svg="http://www.w3.org/2000/svg">
  <sodipodi:namedview
     id="namedview7"
     pagecolor="#ffffff"
     bordercolor="#666666"
     borderopacity="1.0"
     inkscape:showpageshadow="2"
     inkscape:pageopacity="0.0"
     inkscape:pagecheckerboard="0"
     inkscape:deskcolor="#ffffff"
     inkscape:document-units="mm"
     showgrid="false"
     showguides="true"
     inkscape:zoom="1.5108866"
     inkscape:cx="316.03959"
     inkscape:cy="471.5774"
     inkscape:window-width="1920"
     inkscape:window-height="1006"
     inkscape:window-x="1920"
     inkscape:window-y="25"
     inkscape:window-maximized="1"
     inkscape:current-layer="layer1">
    <sodipodi:guide
       position="-452.1371,-166.40401"
       orientation="1,0"
       id="guide1876"
       inkscape:locked="false" />
    <sodipodi:guide
       position="-386.56752,-152.86928"
       orientation="1,0"
       id="guide1890"
       inkscape:locked="false" />
    <sodipodi:guide
       position="-452.1371,-123.0239"
       orientation="0,-1"
       id="guide5434"
       inkscape:locked="false" />
    <sodipodi:guide
       position="-436.76009,-131.69094"
       orientation="0,-1"
       id="guide5490"
       inkscape:locked="false" />
  </sodipodi:namedview>
  <defs
     id="defs2" />
  <g
     inkscape:label="Layer 1"
     inkscape:groupmode="layer"
     id="layer1"
     transform="translate(-498.88078,76.910001)">
    <g
       id="g12348">
      <g
         aria-label="P"
         id="text727-5-9-9-0-4-1-9-3-8"
         style="font-size:69.8955px;fill:#333333;stroke:#ffffff;stroke-width:1.74739"
         transform="translate(502.24613,-176.05235)">
        <g
           id="path1767-3-4-1-9-5-7-13-8-5">
          <path
             style="color:#000000;-inkscape-font-specification:'sans-serif Bold';stroke:none;-inkscape-stroke:none"
             d="m 25.228506,100.01654 c 6.430386,0 11.113384,1.39791 14.048995,4.19373 2.982208,2.74923 4.473312,6.54688 4.473312,11.39297 0,2.88901 -0.605761,5.61494 -1.817283,8.17777 -1.211522,2.51624 -3.238491,4.54321 -6.080908,6.08091 -2.79582,1.5377 -6.616774,2.30655 -11.462862,2.30655 h -4.543208 l -0.02143,7.92576 -10.5327865,9.8277 v -49.90539 z m -0.559164,8.66704 h -4.82279 v 14.81785 h 3.494775 c 2.982208,0 5.335357,-0.58246 7.059446,-1.74739 1.770686,-1.21152 2.656029,-3.14529 2.656029,-5.80132 0,-4.84609 -2.79582,-7.26914 -8.38746,-7.26914 z"
             id="path10910-7-0" />
          <path
             style="color:#000000;-inkscape-font-specification:'sans-serif Bold';fill:#ffffff;stroke:none;-inkscape-stroke:none"
             d="m 8.4179688,99.142578 v 52.789062 l 12.2792972,-11.45703 0.02148,-7.43164 h 3.671875 c 4.937668,0 8.898439,-0.77616 11.880859,-2.41602 h 0.002 c 2.968794,-1.60752 5.151019,-3.77459 6.447266,-6.46679 l 0.002,-0.004 v -0.002 c 1.265734,-2.67751 1.902344,-5.53965 1.902344,-8.55078 0,-5.02364 -1.585713,-9.10882 -4.753906,-12.03125 -9.19e-4,-8.8e-4 -10e-4,-0.003 -0.002,-0.004 -3.166713,-3.00847 -8.09109,-4.425782 -14.640625,-4.425782 z m 1.7480472,1.748052 h 15.0625 c 6.303757,0 10.742359,1.37702 13.447265,3.95312 l 0.0039,0.004 0.0059,0.006 c 2.794108,2.57582 4.191406,6.08313 4.191406,10.75 0,2.76474 -0.57495,5.35235 -1.730469,7.79882 -1.12584,2.33829 -2.996296,4.22389 -5.708984,5.69141 l -0.0039,0.002 h -0.002 c -2.609044,1.43498 -6.287343,2.19922 -11.041016,2.19922 h -5.416016 l -0.02148,8.41797 -8.787109,8.19922 z m 8.80664,6.91992 V 124.375 h 4.369141 c 3.095967,0 5.63111,-0.60072 7.548828,-1.89648 l 0.002,-0.002 0.002,-0.002 c 2.016255,-1.37954 3.035157,-3.6713 3.035156,-6.52148 0,-2.59107 -0.782683,-4.71296 -2.398437,-6.11329 -1.615754,-1.40032 -3.93931,-2.02929 -6.861328,-2.02929 z m 1.748047,1.74609 h 3.949219 c 2.669617,0 4.538687,0.58079 5.71875,1.60352 1.180063,1.02272 1.794922,2.53794 1.794922,4.79297 0,2.4593 -0.749579,4.03265 -2.271485,5.07617 -1.530456,1.03409 -3.701869,1.59765 -6.570312,1.59765 h -2.621094 z"
             id="path10912-9-5" />
        </g>
      </g>
      <g
         aria-label="P"
         id="text727-5-9-9-0-7-8-3-9"
         style="font-size:69.8955px;stroke:#ffffff;stroke-width:1.74739"
         transform="translate(490.46282,-176.05235)">
        <g
           id="path1767-3-4-1-9-4-7-8-2">
          <path
             style="color:#000000;-inkscape-font-specification:'sans-serif Bold';fill:#000000;stroke:none;-inkscape-stroke:none"
             d="m 25.228506,100.01654 c 6.430386,0 11.113384,1.39791 14.048995,4.19373 2.982208,2.74923 4.473312,6.54688 4.473312,11.39297 0,2.88901 -0.605761,5.61494 -1.817283,8.17777 -1.211522,2.51624 -3.238491,4.54321 -6.080908,6.08091 -2.79582,1.5377 -6.616774,2.30655 -11.462862,2.30655 h -4.543208 l -0.02143,7.92576 -10.5327865,9.8277 v -49.90539 z m -0.559164,8.66704 h -4.82279 v 14.81785 h 3.494775 c 2.982208,0 5.335357,-0.58246 7.059446,-1.74739 1.770686,-1.21152 2.656029,-3.14529 2.656029,-5.80132 0,-4.84609 -2.79582,-7.26914 -8.38746,-7.26914 z"
             id="path10916-8-6" />
          <path
             style="color:#000000;-inkscape-font-specification:'sans-serif Bold';fill:#ffffff;stroke:none;-inkscape-stroke:none"
             d="m 8.4179688,99.142578 v 52.789062 l 12.2792972,-11.45703 0.02148,-7.43164 h 3.671875 c 4.937668,0 8.898439,-0.77616 11.880859,-2.41602 h 0.002 c 2.968794,-1.60752 5.151019,-3.77459 6.447266,-6.46679 l 0.002,-0.004 v -0.002 c 1.265734,-2.67751 1.902344,-5.53965 1.902344,-8.55078 0,-5.02364 -1.585713,-9.10882 -4.753906,-12.03125 -9.19e-4,-8.8e-4 -10e-4,-0.003 -0.002,-0.004 -3.166713,-3.00847 -8.09109,-4.425782 -14.640625,-4.425782 z m 1.7480472,1.748052 h 15.0625 c 6.303757,0 10.742359,1.37702 13.447265,3.95312 l 0.0039,0.004 0.0059,0.006 c 2.794108,2.57582 4.191406,6.08313 4.191406,10.75 0,2.76474 -0.57495,5.35235 -1.730469,7.79882 -1.12584,2.33829 -2.996296,4.22389 -5.708984,5.69141 l -0.0039,0.002 h -0.002 c -2.609044,1.43498 -6.287343,2.19922 -11.041016,2.19922 h -5.416016 l -0.02148,8.41797 -8.787109,8.19922 z m 8.80664,6.91992 V 124.375 h 4.369141 c 3.095967,0 5.63111,-0.60072 7.548828,-1.89648 l 0.002,-0.002 0.002,-0.002 c 2.016255,-1.37954 3.035157,-3.6713 3.035156,-6.52148 0,-2.59107 -0.782683,-4.71296 -2.398437,-6.11329 -1.615754,-1.40032 -3.93931,-2.02929 -6.861328,-2.02929 z m 1.748047,1.74609 h 3.949219 c 2.669617,0 4.538687,0.58079 5.71875,1.60352 1.180063,1.02272 1.794922,2.53794 1.794922,4.79297 0,2.4593 -0.749579,4.03265 -2.271485,5.07617 -1.530456,1.03409 -3.701869,1.59765 -6.570312,1.59765 h -2.621094 z"
             id="path10918-4-8" />
        </g>
      </g>
      <g
         aria-label="P"
         id="text727-5-9-9-0-4-1-1-4-0-5"
         style="font-size:69.8955px;fill:#333333;stroke:none;stroke-width:1.74739"
         transform="translate(543.03276,-178.81191)">
        <g
           id="path1767-3-4-1-9-5-7-1-9-0-2"
           style="stroke:none">
          <path
             style="color:#000000;-inkscape-font-specification:'sans-serif Bold';stroke:none;-inkscape-stroke:none"
             d="M -31.494295,120.32006 V 102.7761 h 15.936171 c 6.430386,0 11.113384,1.39791 14.048995,4.19373 2.982208,2.74923 3.599486,6.54739 3.599486,11.39348 -1.7353963,2.93503 -8.7297819,2.19641 -8.947206,0.34929 0,-4.84609 -3.668799,-7.26946 -9.260439,-7.26946 h -4.82279 v 8.41953 c -4.604372,3.45798 -5.712994,2.79762 -10.554217,0.45739 z"
             id="path10904-8-8"
             sodipodi:nodetypes="ccscccsccc" />
          <path
             style="color:#000000;-inkscape-font-specification:'sans-serif Bold';fill:#ffffff;stroke:none;-inkscape-stroke:none"
             d="m -30.620615,121.05986 1e-6,-17.40967 h 15.0625 c 6.3037571,0 10.7423601,1.37507 13.4472661,3.95117 l 0.0039,0.006 0.0059,0.004 c 2.71941,2.50696 4.091329,5.91844 4.164062,10.40039 0.60417,0.43312 1.497778,1.38238 1.775397,0.35137 0,-5.01986 -1.5807,-9.1034 -4.74414,-12.02539 l -0.0039,-0.002 c -3.166426,-3.01353 -8.093549,-4.43359 -14.6484391,-4.43359 h -16.808639 v 18.96485 m 25.509858,-2.15439 c 0,-2.59106 -0.7807449,-4.71259 -2.3964989,-6.11291 -1.6157551,-1.40032 -3.9412641,-2.0293 -6.8632811,-2.0293 h -5.697266 l -7.9e-5,10.0621 1.748048,-0.33386 v -7.98242 h 3.949219 c 2.669616,0 4.538687,0.58079 5.718749,1.60351 1.1800631,1.02272 1.7949221,2.53795 1.7949221,4.79297 v 0.0508"
             id="path10906-6-3"
             sodipodi:nodetypes="ccscccccccscccssccccsssc" />
        </g>
      </g>
    </g>
  </g>
</svg>
