<?xml version="1.0" encoding="UTF-8" standalone="no"?>
<!-- Created with Inkscape (http://www.inkscape.org/) -->

<svg
   version="1.1"
   id="svg870"
   width="276"
   height="67"
   viewBox="0 0 276 67"
   sodipodi:docname="blintflix_blue.svg"
   inkscape:version="1.1.1 (3bf5ae0d25, 2021-09-20, custom)"
   xmlns:inkscape="http://www.inkscape.org/namespaces/inkscape"
   xmlns:sodipodi="http://sodipodi.sourceforge.net/DTD/sodipodi-0.dtd"
   xmlns="http://www.w3.org/2000/svg"
   xmlns:svg="http://www.w3.org/2000/svg">
  <defs
     id="defs874" />
  <sodipodi:namedview
     id="namedview872"
     pagecolor="#505050"
     bordercolor="#eeeeee"
     borderopacity="1"
     inkscape:pageshadow="0"
     inkscape:pageopacity="0"
     inkscape:pagecheckerboard="0"
     showgrid="false"
     inkscape:snap-to-guides="false"
     inkscape:snap-grids="false"
     inkscape:snap-page="true"
     inkscape:zoom="3.134058"
     inkscape:cx="130.50173"
     inkscape:cy="70.834682"
     inkscape:window-width="1920"
     inkscape:window-height="1004"
     inkscape:window-x="0"
     inkscape:window-y="0"
     inkscape:window-maximized="1"
     inkscape:current-layer="g876" />
  <g
     inkscape:groupmode="layer"
     inkscape:label="Image"
     id="g876">
    <g
       id="g1077"
       transform="matrix(1.0768974,0,0,1.0768974,-53.50792,-89.825915)">
      <path
         style="fill:#43b9e0"
         d="m 50.868919,145.15086 c -0.276938,-0.27694 -0.503524,-14.19449 -0.503524,-30.92788 V 83.798617 l 10.429974,0.341025 c 8.713587,0.284905 10.893934,0.687827 13.249317,2.448435 5.894951,4.406375 6.829592,15.257503 1.826327,21.203543 l -2.373263,2.82046 2.864253,2.7034 c 2.195033,2.07176 3.023013,3.97407 3.543744,8.14185 1.278546,10.23314 -2.613653,18.95906 -9.368472,21.00318 -3.763364,1.13885 -19.11937,3.23933 -19.668356,2.69035 z m 17.925047,-11.74162 c 1.098984,-1.09898 1.571429,-3.48269 1.571429,-7.92857 0,-7.4349 -1.428489,-9.5 -6.571429,-9.5 h -3.428571 v 9.5 9.5 h 3.428571 c 1.885715,0 4.135715,-0.70715 5,-1.57143 z m -1,-27 c 1.897102,-1.8971 2.164907,-11.435095 0.371429,-13.228573 -0.66,-0.66 -2.685,-1.2 -4.5,-1.2 h -3.3 v 8 8.000003 h 2.928571 c 1.610715,0 3.635715,-0.70715 4.5,-1.57143 z m 232.839994,38.52745 c -2.32728,-0.32205 -4.41896,-0.7814 -4.64818,-1.02078 -0.22921,-0.23938 -1.87133,-5.38524 -3.64915,-11.43524 -1.77782,-6.05 -3.48084,-11.42753 -3.78448,-11.95007 -0.30365,-0.52253 -2.19292,3.97747 -4.19839,10 -3.87019,11.6224 -4.69513,12.49343 -10.46161,11.04614 l -2.26982,-0.56969 4.96773,-13.76319 c 2.73226,-7.56976 4.95887,-14.66319 4.94803,-15.76319 -0.0108,-1.1 -2.07913,-7.59828 -4.5962,-14.440618 -2.51708,-6.842338 -4.5765,-12.579838 -4.5765,-12.75 0,-0.170162 2.15283,-0.309385 4.78406,-0.309385 h 4.78405 l 3.59116,10.75 c 2.01707,6.038013 3.84421,10.092513 4.16847,9.250003 0.31751,-0.825 2.00508,-5.662503 3.75014,-10.750003 l 3.17284,-9.25 h 4.34227 4.34227 l -4.97239,14.105322 -4.97239,14.105321 5.03312,16.05959 c 2.76822,8.83278 4.90786,16.33224 4.75476,16.66546 -0.1531,0.33323 -2.1825,0.34238 -4.50979,0.0203 z M 85.365395,112.60988 V 83.980667 h 5 5 v 24.041703 24.0417 l 7.499995,-0.67963 7.5,-0.67964 v 4.02271 4.02271 l -5.25,0.59281 c -2.8875,0.32604 -8.512495,0.88604 -12.499995,1.24443 l -7.25,0.65163 z m 175.249995,27.64739 -3.25,-0.40332 V 111.91731 83.980667 h 4.5 4.5 v 28.500003 c 0,22.21868 -0.2755,28.46473 -1.25,28.33996 -0.6875,-0.088 -2.7125,-0.34153 -4.5,-0.56336 z m -145.57052,-1.92913 c -0.0987,-0.098 -0.0529,-12.36626 0.1019,-27.26282 l 0.28138,-27.084653 h 4.46862 4.46862 v 26.899303 26.89931 l -4.57052,0.36351 c -2.51378,0.19993 -4.65128,0.28333 -4.75,0.18535 z m 119.57052,-0.0879 -6.25,-0.35504 V 110.93295 83.980667 h 4.5 4.5 v 22.954683 22.95469 l 3.25,0.54157 c 1.7875,0.29787 5.275,0.65576 7.75,0.79532 4.4257,0.24955 4.50512,0.31565 4.81037,4.00374 l 0.31036,3.75 -6.31036,-0.19268 c -3.47071,-0.10598 -9.12287,-0.35245 -12.56037,-0.54772 z m -103.25,-27.48318 V 83.980667 h 5.846 5.846 l 4.404,14.604301 4.404,14.604302 0.27673,-14.604302 0.27674,-14.604301 h 4.47326 4.47327 v 25.883373 25.88336 l -2.25,0.60298 c -1.2375,0.33164 -3.46844,0.60912 -4.95765,0.61663 -2.50351,0.0126 -2.86667,-0.53297 -4.81666,-7.23634 -1.15996,-3.9875 -3.83238,-12.65 -5.93872,-19.25 l -3.82972,-12.000003 -0.10363,19.144963 -0.10362,19.14497 -4,0.38146 -4,0.38146 z m 67.66667,25.55691 c -0.36667,-0.36667 -0.66667,-12.29167 -0.66667,-26.5 V 83.980667 h 12.5 12.5 v 3.5 3.5 h -7.5 -7.5 v 8 8.000003 h 6 6 v 3.5 3.5 h -6 -6 v 11.5 11.5 h -4.33333 c -2.38334,0 -4.63334,-0.3 -5,-0.66667 z m -23.89754,-22.58333 -0.26913,-22.250003 -4.75,-0.304791 c -4.68854,-0.300848 -4.75,-0.349371 -4.75,-3.75 v -3.445209 h 14.5 14.5 v 3.5 3.5 h -5 -5 v 22.500003 22.5 h -4.48087 -4.48087 z"
         id="path1079" />
    </g>
  </g>
</svg>
