<?xml version="1.0" encoding="utf-8"?>
<!-- Generator: Adobe Illustrator 27.8.1, SVG Export Plug-In . SVG Version: 6.00 Build 0)  -->
<svg version="1.1" id="Layer_1" xmlns="http://www.w3.org/2000/svg" xmlns:xlink="http://www.w3.org/1999/xlink" x="0px" y="0px"
	 viewBox="0 0 552.02 130.36" style="enable-background:new 0 0 552.02 130.36;" xml:space="preserve">
<style type="text/css">
	.st0{fill:#04B6C4;}
</style>
<g>
	<path class="st0" d="M44.18,16.3h-3.86c-2.55,0-4.96,0.54-7.23,1.62c-5.15,3.02-7.76,6.83-7.76,11.33v71.96
		c0,1.42,0.96,2.42,2.86,2.98l0.14,0.02c1.68,0,3.68-0.8,3.68-4.63l-0.01-70.23c0.86-4.28,3.57-6.37,8.31-6.37h3.66
		c5.35,0,10.8,0.68,16.18,2.01c18.04,4.96,27.18,17.81,27.18,38.17c0,6.9-1.2,13.47-3.55,19.5c-7.24,16.78-23.52,25.29-48.4,25.29
		c-4.71-0.17-9.8-0.54-15.16-1.1V21.13c0-1.41-0.96-2.42-2.86-2.98l-0.1-0.03l-0.11,0.02c-2.76,0.38-3.34,1.84-3.34,3l0,88.91
		c0.02,0.32,0.07,1.17,0.54,1.49c0.46,1.21,3.6,2.34,18.03,2.84h6.36c8.64,0,17.76-1.76,27.15-5.26
		c18.52-8.67,27.91-23.51,27.91-44.11v-4.33c0-8.03-1.86-15.56-5.55-22.39C79.68,23.69,64.85,16.3,44.18,16.3z"/>
	<path class="st0" d="M153.08,33.87c-2.67-11.31-7.36-17.04-13.96-17.04h-2.23c-5.3,0-9.38,3.64-12.12,10.83
		c-17.74,52.01-27.19,79.96-28.1,83.08l-0.02,0.82c0,1.02,0.47,2.33,2.7,2.79l0.98,0.01c0.71,0,1.44-0.34,2.17-1.01l0.09-0.09
		l27.2-79.36c1.65-6.89,4.1-10.38,7.3-10.38h1.35c1.95,0,3.45,0.74,4.57,2.26c1.88,4.18,11.15,31.21,27.54,80.35
		c-0.17,1.37-0.9,1.54-1.52,1.54h-1.83c-0.58,0-1.2-0.46-1.85-1.35c-3.91-11.6-6.15-17.87-6.87-19.2
		c-4.5-6.8-11.09-10.24-19.57-10.24h-3.45c-3.14,0-5.87,0.3-8.04,0.88c-6.27,0.72-9.31,2.23-9.31,4.63l0.01,0.31
		c0.57,2.62,1.94,3.17,2.99,3.17l0.11-0.01c7.24-1.65,12.58-2.49,15.86-2.49c5.88,0,10.46,1.55,13.6,4.6l0.14,0.14h0.2
		c0.33,0.06,1.73,1.19,5.68,13.08c1.9,8.75,5.43,13.19,10.51,13.19l1.7-0.01c5.4-0.81,8.14-3.2,8.14-7.13v-2.5l-0.02-0.14
		C174.92,97.51,166.85,73.71,153.08,33.87z"/>
	<path class="st0" d="M256.63,16.3h-1.35c-0.67,0-1.68,0.16-3.09,0.49l-0.17,0.07c-3.33,2.25-5.03,4.78-5.03,7.53
		c0.59,41.58,0.88,64.92,0.88,71.34c0,1.21,0.55,2.75,3.28,3.28l0.31-0.01c2.62-0.58,3.17-1.94,3.17-3l-0.95-71.06
		c0.25-1.68,1.03-1.87,1.6-1.87h1.83c0.22,0,0.96,0.26,1.12,3.63v76.75c-0.92,2.96-2.39,4.41-4.5,4.45l-2.73-0.87
		c-12.8-20.3-25.36-40.56-37.33-60.21c-2.98-5.11-5.12-12.52-6.37-22.06c-1.23-5.61-3.85-8.45-7.8-8.45h-2.3
		c-3.72,0-6.27,2.68-7.59,7.96l-0.02,0.06v87.25c0,1.02,0.47,2.33,2.7,2.79l0.98,0.01c1.1,0,2.02-0.71,2.75-2.1l0.06-0.11V26.88
		c0-4.1,1.87-4.1,2.48-4.1c0.39,0,1.56,0,2.28,2.81c0.01,5.09,1.64,11.85,4.86,20.13c3.6,7.06,15.81,27.07,36.27,59.42
		c2.87,6.12,6.49,9.22,10.74,9.22h1.9c0.57,0,1.28-0.07,2.11-0.21l0.13-0.04c5.22-2.47,7.87-5.88,7.87-10.13V23.23l-0.03-0.17
		C263.08,18.57,260.37,16.3,256.63,16.3z"/>
	<path class="st0" d="M291.76,11.76h-1.62c-0.63,0-1.22,0.07-1.8,0.23c-5.52,2.01-8.32,5.33-8.32,9.88v1.62
		c0,1.04,0.15,1.84,0.44,2.42c2.1,5.23,5.56,7.89,10.34,7.89c0,0,0.01,0,0.02,0c2.53-0.39,3.06-1.74,3.06-2.8V30.4
		c0-0.88-0.48-1.7-1.41-2.43l-0.11-0.09l-0.14-0.02c-4.26-0.47-6.32-2.1-6.33-4.9c0.59-3.59,2.25-5.33,5.06-5.33
		c1.87,0,3.37,1.04,4.59,3.17c0.31,3.33,1.36,5.01,3.19,5.01c0,0,0.01,0,0.01,0c2.59-0.39,3.13-1.7,3.13-2.73v-1.22
		c0-0.63-0.07-1.22-0.23-1.8C299.58,14.56,296.26,11.76,291.76,11.76z"/>
	<path class="st0" d="M297.32,39.52l-0.08-0.01c-1.34,0-2.94,0.69-2.94,3.95v63.9c0,1.92-1.09,2.94-3.36,3.22
		c-1.44,0-3.36-0.48-3.36-4.64V74.54c0-1.07-0.55-2.4-3.21-2.73c-1.34,0-2.94,0.69-2.94,3.95v29.17c0,2.69,0.22,4.38,0.64,5.11
		c1.56,4.26,4.27,6.42,8.05,6.42h1.42c5,0,7.97-3.04,8.83-9.1V42.25C300.38,41.22,299.85,39.91,297.32,39.52z"/>
	<path class="st0" d="M364.29,97.73h-29.83V67.97c0-2.48,3.33-4.02,9.86-4.58h2.5c4.41,0,10.92,1.09,19.37,3.23l0.12,0.02
		c2.12,0,3.32-1.19,3.48-3.48c0-0.81-0.42-1.67-1.28-2.63l-0.1-0.11l-0.14-0.04c-8.45-2.44-15.76-3.67-21.73-3.67H345
		c-2.1,0-3.84,0.14-5.19,0.42c-8.03,1.81-12.1,5.46-12.1,10.84v33.51c0,1.19,0.52,2.67,3.07,3l34.32,0c1.9,0.26,2.07,0.65,2.07,0.66
		v2c-0.12,0.24-0.36,0.48-1.06,0.48h-43.57V23.05l44.96,0c3.04-0.25,4.59-1.35,4.58-3.35c-0.45-2.81-1.88-3.4-3-3.4h-50.5
		c-1.02,0-2.33,0.47-2.79,2.7l-0.01,92.57c0,1.02,0.47,2.33,2.7,2.79l0.1,0.01l47.59,0c5.14-0.71,7.74-3.27,7.74-7.6v-1.15
		c0-1.18-0.17-2.07-0.51-2.69C372.08,99.47,369.01,97.73,364.29,97.73z"/>
	<path class="st0" d="M449.19,16.31l-59.47-0.01l-0.11,0.01c-4.84,1.09-7.29,3.51-7.29,7.19v2.98l0.03,0.17
		c1.47,4.17,4.18,6.29,8.05,6.29h23.22l0.12-0.01c2.44-0.58,2.96-1.95,2.96-2.99l0-0.34c-0.38-2.82-1.99-3.41-3.27-3.41h-23.01
		c-0.62,0-1.35-0.18-1.53-1.5c0.09-1.44,0.72-1.63,1.33-1.63h58.42c0.56,0,1.22,0.18,1.32,1.57c-0.25,1.38-0.98,1.56-1.59,1.56
		h-22.74c-2.45,0-3.75,1.3-3.75,3.75l0.01,81.04c0.45,2.81,1.91,3.4,3.07,3.4h0.68c1.12,0,2.54-0.51,3-3V32.93h19.74
		c0.66,0,1.33-0.07,2.08-0.24c4.03-1.56,6.07-3.89,6.07-6.9v-2.3C456.48,19.82,454.03,17.4,449.19,16.31z"/>
	<path class="st0" d="M531.74,16.31l-59.47-0.01l-0.11,0.01c-4.84,1.09-7.29,3.51-7.29,7.19v2.98l0.03,0.17
		c1.47,4.17,4.18,6.29,8.05,6.29h23.22l0.12-0.01c2.44-0.58,2.96-1.95,2.96-2.99l0-0.34c-0.38-2.82-1.99-3.41-3.27-3.41h-23.01
		c-0.62,0-1.35-0.18-1.53-1.5c0.09-1.44,0.72-1.63,1.33-1.63h58.42c0.56,0,1.22,0.18,1.32,1.57c-0.25,1.38-0.98,1.56-1.59,1.56
		h-22.74c-2.45,0-3.75,1.3-3.75,3.75l0.01,81.04c0.45,2.81,1.91,3.4,3.07,3.4h0.68c1.12,0,2.54-0.51,3-3V32.93h19.74
		c0.66,0,1.33-0.07,2.08-0.24c4.03-1.56,6.07-3.89,6.07-6.9v-2.3C539.03,19.82,536.58,17.4,531.74,16.31z"/>
</g>
</svg>
