<?xml version="1.0" standalone="no"?>
<!DOCTYPE svg PUBLIC "-//W3C//DTD SVG 20010904//EN"
 "http://www.w3.org/TR/2001/REC-SVG-20010904/DTD/svg10.dtd">
<svg version="1.0" xmlns="http://www.w3.org/2000/svg"
 width="901.000000pt" height="901.000000pt" viewBox="0 0 901.000000 901.000000"
 preserveAspectRatio="xMidYMid meet">
<metadata>
Created by potrace 1.14, written by Peter Selinger 2001-2017
</metadata>
<g transform="translate(0.000000,901.000000) scale(0.100000,-0.100000)"
fill="#000000" stroke="none">
<path d="M4021 8754 c-1 -16 -63 -24 -79 -11 -9 7 -11 5 -6 -9 6 -15 4 -17 -6
-7 -9 9 -19 9 -32 2 -11 -6 -26 -8 -34 -5 -8 3 -14 1 -14 -4 0 -5 -9 -7 -20
-5 -11 2 -20 0 -20 -5 0 -4 -10 -6 -22 -2 -16 4 -19 2 -13 -9 6 -11 5 -11 -5
-2 -8 7 -22 8 -40 3 -16 -5 -31 -6 -34 -2 -3 3 -6 0 -6 -7 0 -9 -9 -11 -30 -6
-16 4 -30 3 -30 -2 0 -4 -10 -9 -22 -9 -48 -3 -78 -9 -78 -15 0 -4 -9 -5 -20
-2 -11 3 -20 1 -20 -4 0 -5 -11 -10 -25 -11 -47 -3 -55 -5 -55 -14 0 -4 -3 -7
-7 -6 -5 1 -26 -1 -47 -6 -31 -6 -36 -10 -25 -18 11 -8 10 -9 -4 -4 -22 7
-107 -13 -107 -25 0 -4 -9 -6 -19 -4 -11 2 -22 -3 -25 -11 -4 -9 -15 -13 -31
-10 -14 3 -25 0 -25 -6 0 -6 -3 -8 -7 -5 -3 4 -12 -1 -20 -11 -8 -9 -12 -11
-8 -4 8 17 -6 15 -33 -4 -12 -8 -27 -12 -32 -9 -6 3 -10 1 -10 -6 0 -7 -3 -9
-6 -6 -4 4 -14 -1 -23 -11 -9 -10 -24 -18 -33 -19 -35 -1 -39 -3 -34 -12 4 -5
-3 -7 -14 -4 -12 3 -20 0 -20 -6 0 -7 -4 -9 -10 -6 -5 3 -10 1 -10 -5 0 -6 -4
-8 -10 -5 -5 3 -10 1 -10 -6 0 -7 -3 -9 -7 -6 -3 4 -35 -9 -70 -28 -35 -19
-66 -35 -71 -36 -20 -4 -31 -12 -27 -19 3 -5 0 -12 -6 -16 -8 -4 -9 -3 -5 4 4
7 1 12 -9 12 -8 0 -18 -7 -21 -15 -4 -8 -10 -12 -15 -9 -5 3 -9 0 -9 -7 0 -7
-8 -9 -21 -6 -12 3 -19 3 -16 0 10 -9 -17 -31 -32 -25 -9 3 -12 1 -7 -6 5 -8
-3 -14 -24 -19 -18 -3 -34 -12 -37 -19 -3 -8 -9 -12 -13 -9 -5 3 -14 0 -22 -7
-7 -7 -19 -14 -26 -16 -20 -4 -92 -59 -85 -65 3 -4 -4 -5 -15 -2 -12 2 -25 -1
-28 -7 -4 -7 -2 -8 4 -4 8 4 10 2 6 -8 -3 -8 -11 -13 -18 -10 -14 5 -50 -23
-59 -46 -3 -10 -6 -11 -6 -2 -1 9 -5 10 -13 3 -57 -46 -77 -61 -87 -61 -6 0
-11 -7 -11 -15 0 -8 -7 -15 -14 -15 -20 0 -68 -45 -58 -54 4 -4 3 -7 -3 -5
-17 4 -45 -12 -45 -26 0 -8 -10 -15 -22 -17 -13 -2 -23 -10 -23 -18 0 -8 -11
-17 -24 -20 -13 -3 -28 -14 -32 -25 -4 -11 -8 -16 -8 -11 -1 6 -8 1 -17 -10
-8 -10 -12 -12 -8 -4 4 8 -9 -2 -29 -22 -19 -21 -40 -38 -46 -38 -6 0 -11 -7
-11 -15 0 -8 -9 -15 -20 -15 -11 0 -20 -4 -20 -10 0 -5 8 -6 17 -3 15 6 16 5
3 -9 -8 -9 -18 -14 -22 -11 -5 2 -8 -2 -8 -9 0 -10 -2 -10 -9 0 -6 10 -10 6
-15 -14 -6 -22 -9 -25 -17 -13 -7 12 -9 11 -9 -3 0 -10 -7 -18 -15 -18 -8 0
-15 -6 -15 -14 0 -8 -7 -16 -15 -20 -8 -3 -15 -16 -16 -28 0 -22 -1 -22 -9 -3
-8 18 -9 18 -9 2 -1 -10 -5 -15 -11 -12 -5 3 -12 -6 -16 -21 -4 -14 -10 -21
-13 -15 -4 5 -15 -3 -26 -19 -11 -17 -26 -30 -33 -30 -7 0 -11 -4 -7 -10 3 -5
-3 -18 -15 -30 -11 -11 -20 -26 -20 -32 0 -9 -4 -8 -10 2 -8 13 -10 12 -10 -2
0 -10 -6 -18 -14 -18 -8 0 -16 -10 -18 -22 -2 -14 -10 -23 -19 -22 -12 1 -15
-5 -12 -20 3 -12 1 -17 -4 -10 -5 7 -14 4 -25 -8 -12 -12 -14 -18 -5 -18 6 -1
3 -6 -8 -13 -12 -7 -20 -20 -18 -32 1 -11 0 -15 -3 -8 -6 12 -44 -19 -44 -36
0 -5 -7 -11 -15 -15 -8 -3 -15 -13 -15 -21 0 -9 -4 -13 -10 -10 -5 3 -12 -6
-16 -21 -5 -19 -9 -22 -15 -12 -7 10 -9 10 -9 -3 0 -9 -9 -26 -20 -39 -11 -13
-20 -29 -20 -35 0 -7 -7 -15 -15 -19 -8 -3 -15 -13 -15 -21 0 -9 -4 -14 -9
-11 -5 3 -14 -8 -20 -24 -5 -17 -15 -30 -20 -30 -6 0 -11 -5 -11 -11 0 -7 -7
-17 -14 -23 -8 -6 -16 -17 -18 -25 -2 -8 -11 -23 -20 -33 -10 -10 -18 -26 -18
-36 0 -10 -14 -29 -30 -44 -17 -14 -33 -40 -36 -57 -4 -17 -10 -28 -15 -25 -5
3 -9 0 -9 -5 0 -6 -9 -20 -20 -31 -11 -11 -16 -20 -10 -20 5 0 10 -5 10 -11 0
-5 -4 -7 -10 -4 -5 3 -10 1 -10 -5 0 -7 -10 -20 -22 -31 -13 -10 -17 -18 -10
-19 6 0 12 -5 12 -11 0 -5 -4 -7 -10 -4 -5 3 -10 -1 -10 -10 0 -9 -5 -13 -11
-9 -8 4 -9 -1 -4 -16 5 -15 4 -20 -4 -16 -6 4 -15 -3 -20 -17 -6 -14 -14 -28
-20 -31 -5 -3 -12 -19 -16 -35 -3 -16 -13 -35 -21 -42 -12 -10 -12 -14 -2 -20
10 -7 9 -9 -4 -9 -16 0 -23 -18 -19 -43 1 -5 -9 -5 -21 -2 -22 7 -22 6 -4 -7
21 -16 7 -35 -16 -23 -7 4 -5 0 5 -8 15 -12 15 -16 3 -20 -8 -3 -16 -1 -19 6
-2 7 -4 -3 -5 -20 -4 -63 -4 -64 -20 -50 -13 11 -14 9 -2 -13 12 -22 12 -24
-3 -12 -13 11 -15 10 -10 -9 4 -15 2 -20 -5 -15 -6 3 -14 1 -18 -5 -4 -7 -3
-9 3 -6 6 4 14 0 17 -9 5 -12 1 -14 -17 -9 -12 3 -17 3 -12 -2 14 -11 17 -53
4 -53 -5 0 -7 5 -3 12 5 7 3 8 -5 3 -9 -5 -10 -10 -2 -18 7 -7 6 -20 -3 -41
-7 -17 -11 -37 -9 -43 3 -8 -3 -13 -14 -13 -14 0 -15 2 -5 9 11 6 10 10 -4 15
-10 4 -15 4 -12 0 4 -4 3 -15 -2 -24 -8 -15 -6 -17 12 -12 21 5 21 5 2 -15
-10 -11 -26 -18 -34 -16 -10 3 -9 1 2 -7 10 -6 18 -19 18 -28 0 -15 -2 -15
-11 -2 -9 12 -10 11 -6 -7 6 -26 -8 -39 -26 -26 -7 4 -6 1 3 -7 8 -9 16 -21
17 -28 4 -15 -14 -16 -19 0 -2 6 -12 12 -21 14 -9 1 -15 -2 -11 -7 3 -5 10 -6
16 -3 7 5 9 1 5 -9 -3 -9 -3 -16 1 -14 4 1 7 -3 7 -8 0 -6 -5 -9 -11 -9 -7 1
-9 -7 -6 -19 3 -13 1 -18 -5 -14 -7 5 -9 0 -6 -13 5 -19 6 -20 20 -3 13 16 13
16 3 -4 -6 -14 -16 -20 -25 -17 -8 4 -12 10 -9 15 3 5 0 9 -5 9 -14 0 -14 -17
-1 -25 5 -3 7 -12 4 -20 -4 -8 -10 -12 -15 -9 -5 3 -6 -1 -3 -9 3 -8 -2 -20
-11 -27 -12 -10 -13 -16 -4 -26 9 -11 15 -12 26 -3 11 10 12 8 7 -5 -4 -11
-13 -15 -25 -11 -14 5 -17 2 -13 -9 3 -9 11 -13 17 -9 6 4 7 1 3 -6 -6 -9 -13
-8 -29 6 -19 16 -20 16 -8 1 10 -13 11 -21 2 -31 -8 -10 -7 -17 1 -25 9 -9 9
-12 -1 -12 -7 0 -9 -4 -6 -10 3 -5 -1 -20 -10 -34 -15 -23 -15 -25 7 -40 26
-19 17 -21 -15 -4 -19 10 -21 9 -9 -4 9 -11 10 -18 2 -23 -5 -3 -10 -11 -10
-18 0 -6 6 -3 13 7 13 18 14 18 21 1 3 -10 1 -23 -4 -31 -6 -7 -10 -21 -8 -31
2 -12 -2 -17 -14 -15 -12 2 -16 -2 -12 -13 3 -8 10 -13 14 -10 5 3 11 1 15 -4
3 -6 -3 -8 -15 -6 -11 2 -22 -1 -25 -6 -4 -5 -10 -7 -15 -4 -4 3 -7 -3 -5 -12
1 -10 -3 -25 -9 -33 -9 -13 -9 -13 6 -2 9 8 23 10 29 6 8 -5 9 -3 4 6 -5 8 -4
11 3 6 14 -8 4 -36 -11 -32 -7 1 -9 1 -4 -1 4 -3 4 -10 0 -16 -4 -6 0 -8 11
-4 14 5 15 3 6 -13 -5 -10 -7 -25 -4 -33 3 -8 0 -18 -6 -22 -6 -3 -9 -1 -8 6
2 7 -6 14 -17 16 l-20 3 20 -9 c11 -5 16 -10 10 -11 -5 0 -1 -7 9 -15 15 -11
16 -15 5 -15 -8 0 -20 5 -26 11 -9 9 -11 7 -8 -7 2 -11 4 -25 4 -33 1 -11 5
-10 16 5 13 18 14 18 8 -4 -4 -17 -10 -21 -24 -17 -11 4 -19 2 -19 -4 0 -6 6
-11 13 -11 8 0 12 -11 11 -30 -2 -30 10 -41 19 -17 4 9 6 9 6 -1 1 -7 -6 -15
-14 -18 -8 -4 -12 -11 -8 -17 4 -6 1 -7 -7 -2 -10 6 -12 4 -7 -7 3 -9 0 -21
-6 -28 -9 -10 -8 -12 6 -7 15 6 16 3 7 -13 -17 -31 -11 -37 11 -10 17 21 19
22 10 3 -6 -12 -8 -23 -3 -26 4 -2 1 -2 -5 -1 -7 2 -13 -3 -13 -11 0 -7 -5
-17 -11 -21 -8 -4 -9 0 -4 15 8 28 -20 29 -35 2 -11 -21 2 -37 20 -26 5 3 10
-1 10 -10 0 -9 -4 -14 -8 -11 -4 2 -8 -6 -8 -20 0 -25 10 -32 21 -14 3 6 12
10 18 9 9 0 8 -2 -1 -6 -6 -2 -9 -10 -6 -15 4 -7 2 -8 -4 -4 -8 5 -12 0 -12
-13 0 -12 -5 -21 -11 -21 -6 0 -8 7 -5 16 3 8 2 12 -3 9 -5 -3 -8 -23 -6 -45
2 -23 0 -38 -6 -35 -5 4 -6 -2 -2 -11 4 -11 8 -13 11 -6 2 7 8 10 13 6 5 -3
-2 -22 -16 -42 -14 -20 -25 -41 -25 -47 0 -5 5 -3 10 5 6 10 10 11 10 3 0 -7
5 -13 11 -13 5 0 8 3 6 8 -2 4 8 18 21 32 22 22 23 23 13 3 -7 -13 -7 -23 -1
-25 5 -2 0 -19 -11 -38 l-21 -34 -13 23 c-10 19 -13 20 -18 8 -4 -10 4 -22 19
-32 35 -22 23 -31 -13 -10 l-28 17 25 -22 c17 -14 19 -20 8 -16 -10 3 -20 1
-23 -5 -4 -5 -3 -8 2 -7 5 2 15 -4 24 -12 14 -13 14 -16 0 -30 -9 -8 -15 -14
-13 -13 3 1 13 -2 24 -8 15 -8 17 -13 8 -25 -7 -7 -17 -11 -22 -8 -6 4 -6 -2
1 -13 6 -11 8 -22 6 -25 -2 -2 4 -4 15 -4 10 0 17 3 15 6 -2 4 2 7 10 7 14 0
8 -18 -31 -90 l-15 -27 26 12 c18 8 22 14 13 20 -11 6 -10 8 0 8 7 0 11 4 8 8
-3 5 1 9 9 9 8 0 15 -4 15 -9 0 -4 -5 -8 -11 -8 -8 0 -7 -5 1 -15 7 -9 10 -18
6 -22 -3 -3 -6 -1 -6 7 0 10 -3 10 -15 0 -17 -14 -20 -30 -4 -30 5 0 7 5 3 12
-4 7 -3 8 5 4 6 -4 9 -12 6 -17 -4 -5 -1 -9 6 -9 7 0 10 -2 7 -5 -3 -3 -18 -1
-34 5 -16 6 -25 8 -21 4 4 -4 1 -14 -6 -22 -10 -13 -9 -14 10 -2 18 11 24 12
37 1 9 -8 16 -19 16 -25 0 -7 -3 -7 -8 -1 -4 6 -16 11 -27 13 -18 2 -18 2 -2
-8 9 -6 17 -21 17 -33 0 -16 3 -19 9 -8 6 9 8 4 7 -17 -1 -17 -5 -34 -9 -38
-11 -11 -9 -26 3 -19 6 3 10 1 10 -4 0 -6 -5 -11 -12 -11 -6 0 -8 -3 -5 -7 4
-3 1 -13 -5 -22 -8 -9 -3 -8 10 3 22 19 22 19 16 1 -4 -10 -3 -16 2 -13 17 11
8 -56 -14 -97 -3 -5 1 -5 9 2 12 10 15 8 15 -7 0 -10 -5 -16 -10 -13 -5 4 -6
1 -1 -6 4 -7 8 -29 10 -49 2 -25 7 -36 16 -34 8 1 6 -4 -5 -13 -18 -13 -18
-15 -2 -21 13 -5 15 -9 5 -15 -10 -6 -10 -11 0 -23 11 -13 11 -16 0 -17 -8 0
-5 -4 6 -9 11 -5 15 -9 10 -9 -6 -1 -11 -10 -11 -20 0 -11 5 -17 10 -14 5 4 7
-1 3 -10 -3 -10 -2 -17 4 -17 6 0 7 -4 4 -10 -3 -5 0 -10 7 -10 10 0 10 -2 -1
-9 -12 -8 -12 -11 1 -25 9 -8 17 -14 19 -13 3 1 1 -2 -3 -7 -5 -6 -8 -17 -8
-25 0 -14 1 -14 10 -1 7 10 9 -4 9 -50 -1 -41 2 -65 10 -68 9 -3 9 -7 0 -18
-8 -10 -9 -18 0 -27 6 -8 8 -17 4 -20 -3 -4 2 -7 13 -7 16 0 17 -2 4 -10 -12
-8 -12 -10 5 -10 17 0 17 -2 5 -10 -12 -8 -12 -10 5 -11 l20 0 -20 -9 c-11 -5
-14 -9 -7 -9 6 -1 12 -8 12 -16 0 -8 5 -15 10 -15 6 0 10 -15 11 -32 1 -31 1
-32 9 -8 6 20 8 15 9 -25 1 -36 4 -46 11 -35 8 12 10 9 10 -12 0 -14 -6 -29
-12 -31 -7 -3 -2 -6 12 -6 19 -1 21 -4 11 -10 -22 -14 -5 -41 26 -42 l28 -1
-30 -8 c-16 -4 -24 -8 -17 -9 7 0 11 -5 7 -10 -3 -5 3 -12 12 -14 17 -4 17 -5
0 -6 -10 0 -15 -6 -12 -11 4 -6 11 -8 16 -5 5 4 10 -11 10 -32 1 -38 1 -38 9
-8 4 17 8 26 9 21 0 -5 9 -2 19 5 16 13 16 13 -1 -7 -9 -11 -17 -27 -17 -35 0
-12 2 -12 9 0 15 23 31 2 31 -40 0 -24 5 -39 13 -40 6 -1 1 -5 -13 -10 -23 -8
-23 -8 6 -6 30 3 40 -11 21 -29 -13 -13 -7 -23 12 -19 15 3 18 -1 13 -18 -5
-20 -6 -20 -12 -2 -6 18 -7 18 -12 -3 -3 -12 -3 -21 1 -20 3 0 17 -1 31 -2 24
-2 24 -3 -5 -10 -24 -6 -26 -8 -7 -9 18 -1 22 -7 22 -33 0 -23 3 -29 9 -19 7
10 12 11 27 1 16 -9 16 -11 2 -6 -14 4 -17 -1 -16 -30 1 -20 4 -30 9 -23 4 7
4 19 1 28 -5 14 -4 14 12 1 11 -8 14 -16 7 -18 -6 -2 -11 -13 -11 -23 0 -11 5
-17 10 -14 6 4 7 11 4 17 -4 6 -2 8 4 4 7 -4 8 -17 2 -36 -5 -16 -5 -29 -2
-29 4 1 21 0 37 -1 l30 -2 -30 -8 c-17 -4 -22 -8 -11 -9 12 -1 16 -6 13 -16
-4 -8 -1 -17 5 -21 7 -4 8 -3 4 4 -4 7 -2 12 4 12 6 0 10 -8 9 -17 -2 -30 1
-47 8 -40 8 9 48 -54 45 -71 -2 -6 2 -12 8 -12 6 0 9 -4 5 -9 -3 -5 2 -16 10
-24 18 -18 20 -41 3 -31 -7 4 -8 3 -4 -4 4 -7 14 -12 22 -12 8 0 14 -9 14 -21
0 -11 3 -18 7 -16 5 3 14 -1 21 -9 8 -9 9 -14 2 -14 -6 0 -8 -5 -5 -10 4 -6
12 -7 18 -3 7 4 5 -2 -3 -12 -9 -11 -10 -16 -2 -11 7 4 12 2 12 -4 0 -7 14
-25 30 -40 17 -15 30 -34 30 -42 0 -10 -3 -9 -10 2 -8 13 -10 12 -10 -2 0 -12
8 -18 21 -18 11 0 17 -5 14 -10 -3 -6 1 -13 10 -16 14 -6 14 -8 -2 -19 -16
-12 -14 -13 12 -9 25 4 27 3 10 -5 -19 -9 -18 -10 5 -10 20 -1 22 -3 10 -11
-13 -9 -11 -13 9 -30 13 -11 21 -23 18 -27 -9 -9 12 -43 26 -42 9 0 9 2 0 6
-7 2 -13 9 -13 14 0 4 7 6 15 3 11 -4 13 -15 9 -38 -4 -25 -3 -29 7 -18 7 6
18 12 24 12 5 0 3 -5 -5 -10 -10 -6 -11 -10 -2 -10 6 0 12 -8 12 -17 0 -12 3
-14 8 -7 5 9 10 8 19 -1 10 -11 8 -15 -10 -18 -22 -4 -22 -4 1 -6 16 -1 23 -7
21 -18 -1 -10 1 -26 6 -36 6 -15 10 -16 16 -5 7 10 9 10 9 1 0 -7 10 -13 23
-14 12 0 16 -3 10 -6 -7 -2 -13 -12 -13 -21 0 -14 2 -14 9 -3 5 8 10 9 12 2 2
-6 15 -12 29 -14 21 -4 25 -9 22 -37 -2 -28 0 -31 12 -21 13 11 14 8 6 -18
-10 -36 -4 -42 10 -8 7 18 9 19 9 4 1 -10 7 -25 15 -33 16 -15 30 -19 22 -6
-3 5 1 9 8 9 9 0 13 -9 10 -24 -4 -18 -1 -23 8 -17 9 5 9 2 -1 -10 -8 -9 -10
-16 -5 -15 26 5 36 -1 25 -15 -10 -12 -9 -13 8 -9 13 3 24 -2 33 -16 7 -12 23
-21 35 -21 19 0 23 -5 23 -33 0 -25 6 -37 24 -46 13 -8 28 -11 33 -8 4 2 17 0
28 -4 18 -9 18 -9 -2 -5 -13 2 -25 1 -27 -3 -3 -4 5 -8 17 -8 29 -3 50 -32 36
-49 -8 -10 -5 -12 16 -8 17 3 24 1 20 -6 -3 -6 3 -10 14 -10 15 0 21 -6 21
-21 0 -19 1 -19 16 -5 17 18 28 21 19 7 -3 -6 3 -14 12 -20 10 -6 13 -11 8
-11 -6 0 -16 5 -23 12 -9 9 -12 8 -12 -5 0 -9 3 -16 8 -16 4 1 16 1 27 0 15
-1 17 -3 7 -10 -11 -7 -11 -9 2 -14 10 -4 16 1 19 16 3 16 5 13 6 -9 1 -27 26
-65 38 -56 9 7 23 1 18 -8 -4 -6 -1 -9 7 -8 7 2 12 -3 10 -11 -3 -12 0 -12 13
-1 13 11 14 10 9 -5 -5 -13 -4 -16 4 -11 8 4 12 0 13 -11 0 -16 1 -16 9 2 7
17 9 17 9 3 1 -16 25 -24 54 -19 5 1 6 -3 2 -8 -3 -6 -13 -8 -23 -5 -13 4 -14
3 -4 -4 7 -5 25 -7 39 -4 18 3 21 7 11 13 -9 6 -9 9 -1 9 23 0 24 -20 1 -29
-19 -8 -16 -10 22 -11 61 -1 81 -14 44 -29 -20 -8 -22 -10 -6 -7 12 2 22 -1
22 -7 0 -7 5 -5 10 3 8 12 10 12 10 -5 0 -17 2 -18 11 -5 8 12 10 10 5 -10 -4
-21 -3 -23 7 -9 10 13 15 14 24 4 7 -7 9 -17 5 -21 -4 -5 2 -2 12 6 18 14 19
13 13 -2 -4 -11 -2 -17 6 -15 7 1 11 -3 10 -10 -2 -9 4 -10 21 -3 19 7 23 5
22 -8 -1 -12 6 -16 22 -14 12 2 22 -2 22 -8 0 -7 7 -9 16 -6 8 3 13 2 10 -3
-3 -5 1 -12 10 -15 12 -5 15 -2 10 9 -3 9 -2 13 4 10 6 -3 10 -13 10 -21 0 -8
9 -14 20 -14 11 0 20 -6 21 -12 0 -7 4 -4 9 7 7 17 9 17 9 3 1 -11 9 -18 22
-18 11 0 17 -4 14 -10 -8 -13 1 -13 26 0 11 7 19 7 19 1 0 -5 -5 -11 -12 -13
-7 -3 -5 -7 6 -11 10 -4 15 -3 11 3 -3 6 -1 10 4 10 6 0 11 -5 11 -11 0 -7 9
-9 21 -6 13 3 22 0 26 -10 5 -12 7 -12 14 -1 7 10 9 11 9 0 0 -7 5 -10 10 -7
6 3 10 2 10 -4 0 -5 9 -8 20 -6 11 2 20 -1 20 -6 0 -6 5 -7 12 -3 6 4 17 -1
25 -11 7 -11 13 -14 13 -9 0 17 30 12 31 -5 0 -11 2 -12 6 -3 4 10 8 9 19 -5
12 -17 13 -16 7 5 -3 13 -1 22 6 22 6 0 10 -3 10 -7 -3 -19 2 -33 11 -33 6 0
10 8 11 18 1 11 4 9 9 -8 5 -17 8 -19 9 -7 1 9 6 17 12 17 5 0 7 -5 4 -10 -4
-6 7 -13 24 -16 17 -4 28 -10 25 -15 -3 -5 6 -5 20 1 19 7 24 6 20 -3 -3 -8 4
-13 16 -13 11 0 20 5 20 10 0 5 6 2 13 -8 10 -13 20 -16 41 -10 20 5 24 9 14
15 -10 7 -9 9 4 9 9 0 19 -8 21 -17 4 -15 5 -15 6 2 1 11 6 27 12 35 9 12 10
11 6 -8 -3 -12 -1 -20 4 -16 5 3 9 14 9 25 0 11 7 19 18 19 13 0 14 2 3 9 -11
7 -11 9 0 14 11 4 11 6 1 6 -7 1 -15 -6 -18 -14 -4 -8 -13 -15 -21 -15 -12 0
-12 3 2 16 9 10 14 25 12 35 -3 11 0 19 6 19 7 0 6 5 -3 11 -11 7 -7 9 18 5
19 -2 31 -2 27 2 -6 7 -10 8 -36 11 -6 0 -9 10 -6 21 3 10 0 21 -7 23 -7 3 -4
12 8 25 10 12 24 19 30 15 6 -3 5 0 -2 8 -11 11 -14 12 -21 1 -5 -9 -8 -3 -7
17 1 23 5 30 16 26 9 -3 7 1 -4 10 -11 8 -15 15 -9 15 8 0 9 10 2 32 -12 43
-12 45 6 22 13 -17 13 -16 3 13 -9 24 -9 38 0 57 11 24 0 47 -15 32 -4 -3 -1
-6 5 -6 7 0 9 -7 5 -17 -6 -15 -7 -15 -14 3 -10 26 -11 46 -1 40 10 -6 8 36
-3 54 -5 8 -4 11 2 7 6 -4 13 2 16 13 3 13 1 18 -6 13 -6 -4 -8 1 -5 15 4 15
2 19 -8 15 -10 -4 -11 -10 -3 -24 5 -11 6 -19 1 -19 -11 0 -22 36 -14 45 13
13 10 33 -5 28 -8 -3 -10 -8 -5 -12 6 -3 4 -12 -5 -20 -14 -13 -15 -11 -11 16
2 17 0 30 -6 30 -37 0 -56 4 -52 12 4 5 -4 7 -16 4 -19 -4 -20 -3 -8 6 11 8 7
9 -19 4 -23 -4 -32 -3 -28 5 4 6 0 9 -10 8 -10 -2 -23 4 -30 13 -8 11 -12 12
-13 4 0 -7 -5 -13 -11 -13 -5 0 -7 5 -3 12 5 8 2 9 -9 5 -10 -3 -17 -2 -17 4
0 6 -4 8 -9 4 -5 -3 -13 0 -16 6 -4 5 -13 8 -20 5 -8 -3 -19 2 -25 10 -7 8
-21 14 -31 14 -11 0 -19 5 -19 11 0 8 -5 7 -16 -1 -8 -8 -14 -9 -13 -4 4 21
-2 28 -11 14 -8 -13 -11 -12 -16 6 -4 16 -11 20 -26 16 -14 -3 -19 -1 -14 6 5
8 2 10 -8 6 -10 -4 -18 1 -22 11 -5 13 -9 14 -15 3 -7 -10 -9 -10 -9 0 0 7
-20 22 -45 34 -25 12 -45 26 -45 30 0 4 -5 8 -11 8 -5 0 -7 -6 -4 -13 3 -6 -2
-2 -11 10 -9 13 -22 23 -28 23 -6 0 -27 13 -46 30 -19 16 -36 27 -38 25 -7 -7
-30 20 -24 29 3 5 -3 6 -14 2 -10 -4 -15 -4 -11 0 7 8 -38 54 -54 54 -5 0 -9
5 -9 10 0 18 -38 50 -44 37 -2 -7 -5 -1 -5 12 -1 17 -5 21 -17 17 -8 -3 -12
-2 -9 3 7 12 -39 63 -48 54 -4 -3 -7 1 -7 10 0 9 -7 17 -16 17 -12 0 -15 6
-11 23 6 21 5 21 -8 3 -13 -18 -14 -17 -21 9 -5 20 -9 24 -16 13 -7 -9 -8 -7
-5 10 3 12 2 20 -2 18 -3 -3 -18 5 -31 16 -14 11 -19 16 -11 12 9 -5 12 -3 7
4 -4 7 -14 12 -22 12 -9 0 -12 5 -8 12 4 7 3 8 -4 4 -7 -4 -12 -2 -12 4 0 6
-5 8 -12 4 -8 -5 -9 -2 -5 10 4 10 3 15 -3 11 -6 -3 -10 4 -11 17 0 18 -2 19
-7 7 -6 -14 -9 -15 -20 -3 -10 11 -10 14 -1 14 7 0 -8 20 -34 45 -26 24 -47
52 -47 60 0 9 -7 18 -15 21 -8 4 -15 12 -15 20 0 8 -7 14 -15 14 -8 0 -15 8
-15 18 0 15 -2 15 -11 2 -8 -12 -9 -11 -7 5 4 20 -33 65 -54 65 -6 0 -8 8 -5
19 3 12 -1 18 -11 17 -9 -1 -19 12 -25 34 -5 19 -12 29 -14 22 -3 -7 -16 11
-30 39 -14 28 -32 53 -39 56 -8 3 -14 11 -14 18 0 7 -7 16 -16 19 -10 4 -14
14 -11 26 3 11 1 20 -4 20 -5 0 -12 12 -15 26 -5 20 -9 23 -16 12 -7 -9 -8 -7
-5 9 3 13 1 23 -3 23 -5 0 -12 16 -16 36 -4 19 -12 38 -19 41 -7 2 -16 16 -20
31 -5 21 -8 23 -16 11 -7 -10 -9 -4 -5 21 4 24 3 29 -2 15 -8 -17 -10 -13 -16
19 -6 31 -10 36 -18 25 -7 -11 -9 -9 -5 9 3 12 2 20 -1 18 -4 -2 -16 5 -27 16
-15 15 -16 18 -3 13 13 -5 15 -2 11 14 -3 12 -12 21 -20 21 -11 0 -14 7 -10
21 4 15 0 23 -14 26 -10 3 -19 10 -19 15 0 5 4 6 10 3 6 -3 7 1 4 9 -3 9 -11
13 -17 9 -6 -4 -8 2 -5 15 4 12 2 22 -3 22 -5 0 -9 5 -9 11 0 7 -8 18 -18 26
-9 8 -12 12 -5 9 7 -4 9 1 6 14 -3 11 -9 20 -13 20 -7 0 -18 29 -26 68 -6 30
-14 43 -24 37 -7 -4 -9 3 -5 22 5 23 4 25 -5 13 -10 -12 -11 -11 -7 8 3 12 2
22 -3 22 -4 0 -13 21 -19 47 -7 28 -23 57 -38 71 -16 13 -21 22 -12 22 11 0
11 2 -1 10 -13 9 -13 10 0 11 8 0 4 5 -10 9 -17 5 -19 8 -7 9 9 1 17 6 17 12
0 5 -4 8 -9 5 -5 -3 -9 4 -9 17 -1 49 -15 87 -31 87 -12 0 -13 2 -3 9 9 6 11
19 7 44 -4 20 -11 34 -16 31 -6 -3 -8 6 -5 20 3 14 0 26 -6 26 -6 0 -8 15 -6
34 2 19 0 32 -4 30 -4 -3 -8 6 -8 19 0 14 -3 39 -7 58 -5 28 -7 30 -14 14 -7
-19 -8 -18 -8 3 -1 12 3 22 7 22 5 0 6 15 4 32 -4 28 -6 30 -13 13 -6 -16 -8
-17 -8 -3 -1 9 3 19 8 22 4 3 6 17 3 32 -3 19 -7 22 -13 12 -7 -10 -9 -9 -9 5
0 9 6 17 13 17 8 0 7 4 -3 10 -13 9 -13 10 0 11 10 0 8 3 -5 9 -11 5 -14 9 -7
9 6 1 12 9 12 19 0 14 -2 15 -10 2 -5 -8 -10 -10 -10 -5 0 6 5 16 10 21 8 8 6
15 -5 24 -16 13 -21 50 -7 50 5 0 6 20 2 46 -4 25 -7 61 -6 80 1 18 -3 34 -8
34 -4 0 -6 16 -4 35 2 19 -1 37 -7 39 -6 3 -5 5 3 5 6 1 12 6 12 12 0 5 -5 7
-10 4 -6 -3 -10 3 -10 14 0 12 3 21 8 21 4 0 7 27 7 59 0 33 -3 57 -7 54 -5
-2 -8 5 -8 16 0 12 6 21 13 21 8 0 7 4 -3 10 -8 5 -10 10 -5 10 13 0 13 80 0
80 -5 0 -4 4 4 9 9 6 12 20 9 40 -2 17 0 33 6 35 7 3 6 5 -1 5 -7 1 -13 13
-13 29 0 21 2 24 10 12 7 -10 8 3 6 43 -3 31 -1 55 4 52 4 -3 10 2 14 10 3 8
1 17 -4 20 -12 8 -13 45 -1 45 5 0 11 9 14 20 3 11 0 20 -6 20 -7 0 -5 5 3 10
10 6 11 10 3 10 -7 0 -13 8 -13 18 0 14 2 15 10 2 8 -12 10 -9 10 13 0 15 6
27 13 28 6 0 3 4 -8 9 -11 5 -14 9 -7 9 6 1 12 9 12 19 0 14 -2 15 -10 2 -6
-9 -10 -10 -10 -3 0 7 6 16 13 20 7 4 26 62 42 128 15 66 33 123 39 127 7 5 3
8 -8 8 -17 0 -17 2 4 20 20 17 21 20 5 20 -16 0 -15 3 5 20 20 17 21 20 5 20
-17 0 -17 1 1 18 11 9 18 25 16 35 -2 9 2 17 8 17 6 0 8 5 5 10 -3 6 0 10 7
10 9 0 9 3 -2 10 -12 8 -12 10 5 11 11 0 14 3 8 6 -20 7 -15 23 10 33 19 7 19
9 3 9 -19 1 -19 1 0 19 11 9 18 25 16 35 -2 9 2 17 8 17 6 0 8 5 5 10 -3 6 0
10 7 10 9 0 9 3 -2 10 -13 8 -12 10 3 10 10 0 17 8 17 19 0 11 6 22 13 24 7 3
4 6 -6 6 -16 1 -17 3 -3 16 8 8 21 15 28 15 10 0 9 3 -2 10 -13 9 -13 10 0 10
13 0 13 1 0 10 -12 8 -10 10 10 11 23 0 23 1 5 9 -13 6 -15 9 -5 9 13 1 13 3
1 10 -11 7 -9 10 10 13 18 2 26 12 34 41 6 21 14 35 17 32 4 -4 12 11 19 34 7
23 16 41 21 41 5 0 7 4 3 9 -3 5 0 13 6 16 5 4 8 13 6 19 -3 7 3 19 13 26 11
8 17 17 14 22 -3 4 1 8 8 8 9 0 9 3 -2 10 -12 8 -12 10 5 11 11 0 15 3 8 6
-10 3 -10 7 0 18 9 9 14 10 20 1 6 -7 7 -3 4 9 -4 20 16 49 26 38 3 -3 3 5 0
16 -4 15 -1 21 8 19 8 -2 15 7 17 20 2 12 8 22 14 22 6 0 8 3 5 6 -4 4 3 15
15 25 20 18 20 19 2 20 -11 0 -13 3 -6 6 6 2 10 9 6 14 -3 5 0 9 5 9 6 0 11
-6 12 -12 0 -7 6 0 13 16 9 19 15 24 18 15 3 -8 8 1 12 19 4 17 12 32 18 32 6
0 9 3 5 6 -3 4 -1 12 6 19 7 7 19 23 27 35 8 13 23 30 33 39 9 8 17 21 17 29
0 7 7 15 16 19 13 5 13 7 2 14 -9 6 -6 9 12 10 23 0 23 1 5 9 -17 7 -17 9 -3
9 22 1 58 36 58 56 0 8 5 15 11 15 5 0 7 5 4 10 -3 6 2 10 12 10 15 0 16 2 3
10 -12 8 -11 10 6 10 20 0 40 24 36 43 -1 4 6 7 15 8 11 0 13 3 6 6 -17 6 9
33 34 34 16 0 16 1 2 7 -14 6 -15 9 -3 20 11 10 14 10 14 1 0 -7 8 -4 19 7 12
13 15 21 7 26 -7 5 -3 8 9 8 17 0 17 2 5 10 -12 8 -11 10 7 10 13 0 24 8 28
21 4 11 9 18 12 15 7 -7 32 17 26 27 -2 4 2 7 9 7 9 0 9 3 -2 10 -12 8 -9 10
13 10 16 0 27 5 27 14 0 8 7 16 15 20 8 3 15 12 15 21 0 8 5 15 11 15 15 0 69
56 62 64 -4 3 3 6 14 6 14 0 25 10 31 28 6 15 11 21 11 14 1 -10 4 -10 15 0
12 11 11 14 -3 20 -12 5 -11 7 7 7 12 1 22 6 22 12 0 5 5 7 11 4 6 -4 13 2 16
14 3 12 13 21 25 21 10 0 16 5 13 10 -3 6 -2 10 4 10 6 0 29 18 51 40 22 22
49 40 58 40 15 0 15 2 2 10 -12 8 -12 10 5 10 17 0 18 2 5 11 -12 9 -11 10 5
6 21 -4 49 16 38 27 -4 3 3 6 14 6 12 0 24 7 27 16 3 8 10 12 16 9 5 -3 10 1
10 10 0 9 5 13 10 10 6 -3 13 1 16 9 3 9 10 13 15 10 5 -3 9 0 9 6 0 6 5 8 12
4 8 -5 9 -2 5 10 -4 10 -3 15 3 11 6 -3 10 -1 10 5 0 6 5 8 10 5 6 -3 10 -1
10 5 0 6 5 8 11 5 6 -4 13 2 16 14 3 12 11 21 18 21 7 0 16 6 18 13 4 10 6 10
6 0 1 -9 7 -7 19 5 12 11 14 20 8 24 -7 5 -4 8 7 8 9 0 17 -5 17 -11 0 -5 11
1 24 15 13 15 28 26 35 26 6 0 11 5 11 11 0 5 5 7 10 4 6 -3 10 -1 10 4 0 6 8
11 18 11 15 0 15 2 2 11 -12 9 -11 10 8 6 12 -3 22 -1 22 4 0 5 8 9 19 9 10 0
24 7 31 15 7 8 19 15 26 15 8 0 14 4 14 8 0 8 66 36 85 37 6 0 12 2 15 5 3 3
41 22 85 43 69 32 100 43 138 46 5 1 5 6 2 11 -3 6 -2 10 4 10 5 0 13 -5 16
-10 4 -6 11 -8 16 -4 6 3 5 12 -3 22 -9 10 -9 13 -1 9 7 -4 43 7 80 25 37 18
71 33 76 34 4 1 8 2 10 4 1 1 10 3 20 5 10 2 30 11 44 20 14 9 23 13 20 8 -4
-5 0 -10 8 -10 8 0 12 4 10 8 -6 8 65 23 73 15 3 -3 -3 -6 -14 -7 -18 0 -18
-1 1 -9 l20 -9 -20 -1 -20 -1 20 -9 c11 -5 15 -9 8 -9 -7 -1 -10 -11 -7 -27 3
-18 1 -23 -7 -18 -9 5 -9 3 -3 -7 8 -13 11 -47 13 -147 1 -32 4 -41 14 -36 9
6 9 5 0 -7 -7 -9 -9 -20 -3 -29 6 -9 5 -17 -3 -22 -9 -6 -8 -8 2 -8 11 0 11
-3 1 -15 -8 -10 -9 -19 -3 -27 6 -7 11 -40 12 -73 1 -33 7 -61 12 -63 5 -2 9
-68 9 -147 0 -105 3 -145 13 -148 10 -4 10 -6 0 -6 -8 -1 -13 -16 -13 -41 0
-25 5 -40 13 -40 8 0 7 -4 -3 -10 -13 -9 -13 -10 0 -10 12 0 12 -2 2 -8 -14
-10 -12 -73 3 -84 7 -5 7 -8 0 -8 -14 0 -6 -183 8 -192 9 -6 9 -8 0 -8 -10 0
-13 -92 -12 -427 1 -236 5 -417 9 -403 7 22 8 20 10 -15 1 -22 4 -32 7 -23 5
20 33 13 33 -9 0 -8 5 -11 10 -8 6 3 10 1 10 -4 0 -6 10 -11 23 -11 18 0 19
-2 7 -10 -13 -9 -13 -10 0 -11 8 0 31 -1 50 -3 21 -1 40 4 48 14 8 8 11 10 8
4 -4 -8 6 -12 28 -12 19 0 40 -3 47 -8 8 -4 10 -3 5 5 -6 9 0 10 20 5 20 -5
25 -4 19 6 -6 9 -3 10 13 1 26 -14 35 -14 27 -1 -3 6 1 10 10 10 9 0 13 -4 10
-10 -4 -7 3 -7 19 0 14 5 26 7 26 4 0 -4 8 0 17 7 11 10 14 10 9 2 -4 -8 -1
-13 8 -13 10 0 13 6 9 17 -6 15 -5 16 9 3 9 -8 15 -17 13 -20 -2 -3 7 -5 20
-5 13 0 21 3 18 8 -2 4 3 7 12 7 10 0 14 -5 10 -12 -4 -7 1 -4 9 6 15 19 22
12 17 -16 0 -4 6 -5 14 -2 8 4 12 10 9 15 -3 5 2 6 10 3 9 -3 13 -10 10 -15
-3 -5 2 -6 11 -3 27 11 118 11 139 1 13 -7 16 -6 11 3 -6 9 1 10 24 5 22 -5
31 -3 31 7 0 11 2 11 9 0 4 -7 19 -11 34 -8 14 2 28 2 31 -2 10 -9 56 -8 56 1
0 5 6 5 13 -1 6 -5 29 -8 49 -7 21 2 36 0 34 -4 -2 -3 24 -7 57 -8 34 -1 63
-7 65 -12 2 -6 7 -9 11 -6 5 2 31 1 59 -4 29 -4 52 -4 52 0 0 5 8 9 18 9 14 0
15 -2 2 -10 -13 -9 -13 -10 0 -11 8 0 23 -2 33 -4 9 -2 15 1 11 6 -3 5 0 9 5
9 6 0 11 -8 11 -17 0 -15 2 -16 10 -3 6 10 10 11 10 3 0 -7 11 -13 25 -13 14
0 25 -6 26 -12 0 -7 4 -4 9 7 5 11 9 14 9 8 1 -7 10 -13 21 -13 11 0 23 -7 26
-15 4 -8 14 -15 24 -15 11 0 22 -5 25 -10 4 -6 11 -8 16 -5 5 4 9 1 9 -4 0 -6
7 -11 15 -11 8 0 15 -6 15 -12 0 -9 4 -8 10 2 8 13 10 12 10 -2 0 -11 8 -18
21 -18 11 0 27 -7 35 -15 9 -8 27 -15 42 -16 24 0 25 -1 7 -9 -19 -8 -19 -9 3
-9 12 -1 22 -6 22 -12 0 -5 5 -7 10 -4 6 3 10 1 10 -4 0 -6 12 -11 28 -12 24
0 25 -1 7 -9 -18 -8 -18 -9 -2 -9 10 -1 16 -4 14 -8 -3 -5 1 -13 8 -20 11 -10
15 -10 18 0 3 7 6 4 6 -5 1 -11 9 -18 20 -18 25 0 38 -20 20 -31 -11 -7 -10
-9 4 -9 9 0 17 -5 17 -11 0 -5 5 -7 12 -3 8 5 9 2 5 -9 -3 -10 -3 -17 2 -17 4
0 13 -11 19 -25 6 -14 20 -25 29 -25 14 0 15 -2 4 -9 -9 -6 -10 -11 -2 -15 6
-4 11 -4 11 -1 0 3 6 0 14 -7 10 -9 11 -15 2 -20 -7 -5 -5 -8 7 -8 10 0 17 -8
17 -19 0 -11 6 -26 13 -33 8 -7 13 -21 11 -31 -1 -9 2 -15 6 -12 5 3 12 -10
16 -30 3 -19 10 -35 16 -35 5 0 6 -4 3 -10 -3 -5 -2 -10 4 -10 5 0 8 -8 7 -17
-2 -10 4 -24 11 -32 12 -11 12 -15 1 -22 -7 -5 -8 -9 -2 -9 10 0 46 -147 49
-200 1 -14 5 -31 9 -38 4 -7 4 -16 1 -22 -3 -5 0 -10 7 -10 9 0 9 -3 -2 -10
-8 -5 -10 -10 -4 -10 6 0 10 -12 9 -27 -1 -16 3 -34 9 -42 8 -11 8 -13 -1 -7
-10 5 -11 1 -3 -19 13 -35 13 -54 -1 -35 -9 12 -10 12 -5 -3 15 -45 17 -67 9
-67 -5 0 -10 -7 -10 -15 0 -8 4 -15 9 -15 4 0 8 -5 8 -11 0 -5 -4 -8 -9 -5 -5
3 -9 -4 -9 -17 1 -12 -2 -46 -4 -74 -3 -29 -2 -50 2 -48 5 3 6 -4 3 -15 -3
-11 -8 -20 -12 -20 -3 0 -6 -10 -7 -22 0 -13 -4 -32 -8 -43 -6 -16 -6 -17 3
-5 6 9 11 10 11 3 0 -6 3 -20 6 -30 5 -14 4 -15 -4 -4 -8 11 -12 6 -20 -23 -6
-21 -8 -45 -5 -53 5 -12 3 -14 -7 -8 -9 5 -11 4 -6 -3 4 -7 1 -12 -6 -12 -9 0
-9 -3 2 -10 12 -8 12 -10 -5 -11 -12 0 -15 -3 -7 -6 10 -4 10 -7 -1 -17 -8 -6
-18 -22 -22 -36 -7 -24 -7 -25 9 -5 16 19 16 19 5 -7 -7 -15 -15 -25 -20 -23
-4 3 -13 -11 -19 -30 -6 -19 -16 -35 -21 -35 -6 0 -7 -4 -4 -10 3 -5 1 -10 -4
-10 -6 0 -11 -4 -11 -10 0 -5 8 -6 17 -3 15 6 16 5 3 -9 -8 -9 -19 -13 -24
-10 -5 3 -6 0 -1 -7 4 -8 -1 -21 -14 -32 -12 -11 -21 -24 -21 -30 0 -6 -4 -8
-9 -5 -5 4 -7 -4 -3 -16 3 -11 1 -19 -4 -15 -5 3 -18 -1 -29 -9 -13 -10 -15
-14 -4 -14 8 -1 1 -7 -16 -15 -16 -7 -26 -14 -21 -14 5 -1 -9 -13 -30 -27 -21
-15 -41 -30 -42 -35 -2 -5 -9 -6 -14 -3 -7 4 -8 2 -4 -5 5 -7 -4 -14 -25 -18
-28 -5 -30 -7 -14 -14 15 -6 16 -8 4 -8 -9 -1 -29 -13 -44 -27 -22 -20 -30
-23 -36 -12 -7 10 -9 11 -9 0 0 -7 -4 -10 -10 -7 -5 3 -10 1 -10 -4 0 -6 -5
-11 -11 -11 -5 0 -7 6 -4 13 4 6 0 4 -9 -7 -9 -11 -22 -16 -31 -12 -9 3 -13 2
-10 -3 7 -12 -31 -25 -45 -16 -5 3 -10 1 -10 -4 0 -6 -5 -11 -11 -11 -5 0 -7
6 -4 13 4 6 -1 3 -9 -7 -11 -14 -16 -15 -16 -6 0 9 -5 8 -16 -6 -8 -10 -13
-13 -9 -6 9 17 -6 15 -66 -8 -28 -12 -57 -19 -63 -16 -6 2 -3 5 7 5 9 1 17 6
17 11 0 7 -7 7 -20 0 -11 -6 -25 -8 -30 -5 -6 3 -10 2 -10 -3 0 -5 -9 -12 -19
-15 -14 -3 -18 -1 -14 10 5 13 2 13 -15 4 -26 -14 -35 -14 -27 -1 4 6 -3 6
-21 0 -15 -6 -34 -10 -43 -9 -9 1 -25 1 -36 0 -17 -1 -18 -3 -5 -11 8 -5 10
-10 4 -10 -6 0 -14 3 -18 8 -4 4 -30 8 -58 8 -31 1 -45 -2 -36 -7 10 -7 9 -9
-4 -9 -10 0 -18 4 -18 9 0 6 -16 3 -36 -5 -20 -8 -33 -11 -30 -6 3 6 -9 10
-28 9 -20 0 -32 -5 -29 -11 4 -5 1 -6 -8 0 -19 12 -42 11 -51 -1 -5 -6 -8 -6
-8 2 0 8 -9 9 -27 4 -16 -4 -40 -4 -56 0 -15 4 -25 4 -22 -1 3 -4 -4 -10 -15
-13 -11 -3 -22 -1 -25 4 -3 4 -17 4 -31 -1 -15 -6 -23 -6 -19 -1 3 5 -7 9 -22
9 -16 -1 -39 2 -53 6 -18 5 -21 5 -10 -3 11 -7 5 -9 -23 -8 -20 1 -37 5 -37 9
0 4 -14 3 -30 -2 -17 -5 -28 -5 -25 -1 2 5 -9 8 -24 7 -16 -1 -27 -4 -24 -8 2
-5 -1 -8 -6 -8 -6 0 -11 7 -11 16 0 14 -1 14 -16 0 -15 -16 -29 -20 -49 -16
-5 1 -7 -2 -3 -6 4 -4 2 -14 -5 -22 -9 -12 -9 -14 0 -8 9 5 12 -4 10 -33 -1
-21 -5 -37 -9 -35 -4 3 -5 -18 -3 -46 3 -35 1 -48 -7 -44 -7 4 -8 2 -4 -5 4
-6 8 -32 8 -56 0 -25 4 -43 9 -40 5 4 6 -1 3 -9 -3 -9 -9 -14 -13 -12 -3 2 -6
-9 -7 -26 -1 -20 2 -25 7 -16 7 10 9 9 9 -4 0 -10 -4 -18 -8 -18 -5 0 -9 -7
-9 -15 0 -8 4 -15 8 -15 4 0 6 -9 4 -20 -2 -11 0 -18 6 -15 5 4 9 0 9 -8 0 -8
8 -21 17 -28 11 -10 14 -10 9 -1 -4 6 -3 12 2 12 6 0 12 -7 15 -15 7 -16 67
-16 67 0 0 7 3 7 8 0 4 -5 16 -10 27 -10 11 0 23 5 27 10 5 6 8 5 8 -2 0 -7 6
-10 14 -7 8 3 25 0 38 -7 29 -16 50 -20 42 -8 -3 5 0 9 5 9 6 0 11 -8 12 -17
0 -15 2 -15 7 -3 7 16 32 25 32 12 0 -13 53 -15 305 -11 l180 3 -150 6 -150 6
153 2 c121 2 152 -1 152 -11 0 -8 9 -13 23 -11 41 4 42 6 12 14 l-30 8 27 1
c15 0 30 -4 33 -9 3 -5 30 -9 58 -8 l52 2 -47 3 c-37 3 -48 8 -47 21 0 10 3
12 6 5 3 -9 36 -13 114 -13 78 0 109 -3 109 -12 0 -9 3 -9 12 0 7 7 19 12 27
12 14 0 14 -1 1 -10 -9 -6 -10 -10 -3 -10 7 0 17 8 22 18 10 16 10 15 11 -3
l1 -20 9 20 c5 11 9 14 9 6 1 -11 4 -11 18 0 15 12 16 12 8 -1 -8 -13 -7 -13
8 -1 14 11 17 11 17 0 0 -12 2 -12 9 0 5 8 16 11 25 8 9 -4 16 -1 16 5 0 7 5
6 15 -2 9 -7 15 -8 15 -2 0 6 13 8 30 6 17 -3 30 -1 30 3 0 8 28 13 78 16 6 0
12 5 12 11 0 6 5 4 10 -4 8 -12 10 -12 10 -1 0 11 3 11 17 0 11 -10 14 -10 9
-1 -5 8 1 12 18 12 14 0 26 6 26 13 0 8 4 7 10 -3 6 -10 10 -11 10 -2 0 6 9
12 20 12 11 0 20 6 20 13 0 8 4 7 10 -3 6 -10 10 -11 10 -2 0 6 12 12 28 12
21 0 24 2 12 10 -16 10 -10 13 32 13 9 0 17 2 16 6 -2 22 16 49 30 44 10 -4
13 -2 8 5 -4 7 -2 12 4 12 6 0 8 5 5 10 -3 5 0 10 8 10 18 0 59 39 52 50 -4 6
2 7 11 3 13 -5 15 -3 9 8 -5 8 1 5 13 -5 12 -11 22 -14 22 -8 0 7 -4 12 -10
12 -17 0 -5 39 20 60 12 11 27 20 32 20 4 0 8 6 8 13 0 20 40 58 53 51 9 -5 9
-4 0 6 -9 10 -7 17 13 32 13 11 24 26 24 34 0 8 5 14 10 14 6 0 10 5 10 11 0
16 27 39 47 40 16 0 16 1 -2 9 -18 8 -18 9 -2 9 12 1 16 5 11 14 -5 7 0 6 11
-3 10 -8 16 -10 12 -4 -4 7 0 17 9 24 8 7 13 19 10 27 -4 8 3 13 17 14 21 1
21 1 -3 9 -25 8 -25 8 4 9 16 1 27 4 23 7 -3 3 5 17 19 29 l25 23 -23 5 -23 4
23 2 c18 1 22 7 23 39 1 37 1 37 9 7 l8 -30 1 28 c0 15 7 27 14 27 8 0 7 4 -3
10 -12 8 -10 10 10 10 18 0 21 3 11 9 -11 7 -10 10 5 14 15 4 14 5 -6 7 -23 2
-23 3 5 9 19 4 31 13 34 26 2 11 8 23 15 27 7 5 6 8 -4 8 -13 0 -13 1 0 10 10
6 11 10 3 10 -7 0 -13 10 -12 23 0 21 1 21 9 2 7 -17 9 -16 10 10 1 26 3 27
10 10 l9 -20 1 20 c2 11 2 23 1 28 0 4 5 7 12 7 8 0 7 4 -3 10 -12 8 -12 10
-1 10 9 0 11 7 8 21 -4 14 -2 19 7 16 16 -6 16 34 1 45 -5 4 -1 8 10 8 17 0
17 2 5 10 -13 9 -13 10 0 10 12 0 15 8 12 35 -3 25 0 35 9 35 11 0 11 2 -1 10
-10 6 -11 10 -2 10 8 0 12 21 13 68 1 55 3 61 9 32 6 -27 8 -18 9 43 0 44 5
77 11 77 6 0 10 14 10 30 0 17 -5 30 -12 30 -10 0 -9 3 1 9 11 7 11 9 0 14
-10 4 -10 6 -1 6 8 1 12 18 12 50 0 30 -5 51 -12 54 -10 4 -10 6 0 6 15 1 17
101 2 101 -6 0 -10 34 -10 83 0 54 -3 77 -10 67 -6 -10 -9 2 -8 39 0 30 -4 56
-10 60 -5 3 -8 14 -6 24 1 10 -4 17 -14 18 -14 0 -13 2 3 9 11 5 14 9 7 9 -7
1 -10 6 -7 11 3 6 1 10 -5 10 -7 0 -10 7 -6 15 3 8 1 15 -5 15 -6 0 -7 4 -4
10 3 6 0 10 -7 10 -9 0 -9 3 2 10 13 8 12 10 -2 10 -10 0 -17 3 -17 8 1 4 1
21 -1 37 -1 26 -3 27 -10 10 -7 -16 -9 -13 -9 16 -1 37 -21 89 -34 89 -5 0 -5
5 -2 10 3 6 2 10 -3 10 -5 0 -9 7 -10 15 -1 8 -3 22 -4 30 -1 8 -5 15 -10 15
-4 0 -8 7 -8 15 0 8 -4 15 -10 15 -5 0 -10 10 -10 23 0 18 -2 19 -10 7 -7 -11
-10 -5 -10 23 0 20 -5 37 -11 37 -5 0 -7 5 -4 10 3 6 -2 10 -12 11 -16 0 -16
1 2 9 18 8 18 9 -5 10 -14 1 -20 4 -13 6 12 5 2 22 -45 70 -13 13 -18 24 -12
24 5 0 10 5 10 11 0 5 -4 7 -10 4 -6 -3 -10 -1 -10 5 0 6 -4 9 -9 6 -5 -3 -8
2 -7 11 0 10 -9 19 -24 23 l-25 7 25 5 c23 5 23 5 -5 7 -26 2 -27 3 -10 11 11
5 14 9 7 9 -19 1 -42 26 -43 48 -1 13 -3 11 -9 -7 l-8 -25 -1 28 c-1 19 -6 27
-18 27 -15 0 -16 2 -3 10 10 6 11 10 3 10 -7 0 -13 8 -14 18 0 14 -2 14 -9 -3
-8 -18 -9 -17 -9 8 -1 16 -5 26 -11 22 -5 -3 -10 1 -10 9 0 10 -9 16 -22 17
-22 1 -22 1 2 9 25 8 25 8 -5 10 -26 1 -27 3 -10 10 18 8 18 9 2 9 -10 1 -15
6 -12 11 3 6 -1 10 -9 10 -9 0 -16 8 -17 18 0 14 -2 14 -9 -3 -7 -17 -9 -16
-10 10 -2 30 -2 30 -10 5 -8 -24 -8 -23 -9 8 -1 23 -6 32 -18 32 -15 0 -16 2
-3 10 12 8 10 10 -8 10 -13 0 -20 4 -17 10 5 9 -15 15 -37 11 -5 0 -8 4 -8 10
0 6 -7 17 -15 25 -8 9 -15 11 -15 5 0 -6 -8 -11 -17 -11 -15 0 -16 2 -3 10 12
7 8 10 -15 10 -23 0 -27 3 -15 10 12 8 11 10 -5 10 -11 0 -27 9 -35 20 -8 11
-20 20 -27 20 -7 0 -13 5 -13 11 0 5 -4 7 -10 4 -5 -3 -10 0 -11 7 0 7 -4 4
-9 -7 l-9 -20 0 20 c-1 17 -3 17 -11 5 -6 -10 -10 -11 -10 -2 0 6 -12 13 -27
13 l-28 1 30 8 c30 8 30 8 -7 9 -32 1 -38 4 -38 24 0 18 -2 19 -10 7 -8 -12
-10 -12 -11 5 0 12 -3 15 -6 7 -4 -10 -9 -7 -20 8 -8 12 -21 19 -29 16 -8 -3
-14 -1 -14 3 0 5 -9 7 -20 4 -11 -3 -20 0 -20 6 0 7 -24 11 -62 12 -45 0 -57
3 -43 9 16 7 13 9 -17 9 -23 1 -38 6 -38 14 0 9 -3 8 -9 -2 -6 -9 -10 -9 -12
-2 -2 6 -17 12 -34 13 -16 1 -33 7 -37 13 -5 6 -8 4 -8 -5 0 -13 -1 -13 -10 0
-9 13 -10 13 -10 0 0 -11 -2 -12 -8 -2 -6 8 -38 13 -94 15 -47 1 -85 4 -83 7
2 3 -19 6 -46 7 -27 1 -47 -1 -45 -6 3 -4 -5 -8 -17 -8 -15 -2 -18 0 -9 6 11
6 10 10 -3 15 -9 3 -24 6 -33 5 -14 0 -13 -2 3 -9 18 -8 17 -9 -8 -9 -16 -1
-26 2 -24 7 3 4 -9 7 -26 8 -18 0 -48 4 -67 7 -25 5 -31 4 -20 -3 13 -8 12
-10 -4 -10 -10 0 -24 8 -31 17 -12 15 -13 14 -9 -12 2 -17 1 -22 -2 -12 -3 9
-13 17 -22 17 -15 0 -15 -2 -2 -10 12 -8 12 -10 1 -10 -8 0 -20 8 -27 18 -12
15 -12 14 -8 -8 3 -14 2 -20 -3 -14 -22 28 -66 17 -55 -15 3 -8 0 -11 -7 -7
-15 10 -14 33 2 39 9 4 9 6 0 6 -6 1 -14 -3 -17 -8 -3 -5 -15 -7 -26 -4 -16 4
-20 0 -21 -18 -1 -18 -2 -20 -6 -6 -4 15 -11 17 -43 12 -35 -6 -38 -5 -33 14
3 12 0 27 -6 35 -9 11 -9 15 1 19 10 4 10 6 1 6 -14 1 -18 31 -5 31 4 0 7 11
7 24 0 13 -3 22 -7 19 -5 -2 -8 3 -8 12 0 9 4 13 10 10 6 -4 7 2 1 17 -4 13
-8 47 -7 76 1 28 -1 52 -4 52 -3 0 -4 24 -4 53 1 28 -3 67 -8 86 -7 23 -7 35
0 40 7 4 8 12 2 21 -8 13 -10 13 -10 1 0 -8 -3 -12 -6 -8 -3 3 -2 11 2 18 11
18 15 61 5 54 -5 -2 -6 7 -3 20 2 14 9 22 16 19 6 -3 3 1 -6 9 -18 15 -25 33
-9 23 5 -4 6 9 1 29 -5 24 -4 35 4 36 6 0 2 4 -9 9 -11 5 -15 9 -10 9 6 1 10
16 10 35 0 19 -3 32 -7 29 -5 -2 -8 0 -8 6 0 5 5 13 10 16 7 4 7 12 0 25 -14
26 -13 42 3 35 6 -4 3 1 -7 9 -11 9 -15 16 -10 16 12 0 11 40 -1 60 -5 8 -4
11 2 7 7 -5 9 4 4 26 -4 17 -6 52 -5 77 0 25 -4 51 -10 59 -8 11 -8 13 2 7 15
-9 15 -1 1 26 -7 13 -8 23 -1 30 7 7 7 20 0 38 -6 20 -6 35 2 49 6 12 7 21 1
21 -5 0 -8 11 -6 25 1 14 -1 25 -5 25 -4 0 -4 16 0 35 5 20 4 33 -1 29 -5 -3
-9 -1 -9 5 0 5 -3 18 -6 28 -5 15 -4 15 5 3 9 -13 11 -13 11 2 0 9 -6 29 -12
44 -10 21 -10 28 -1 31 9 3 9 10 0 30 -9 20 -9 27 0 30 9 3 9 12 2 30 -5 15
-8 32 -5 40 3 7 1 13 -4 13 -5 0 -5 13 0 30 5 17 6 30 2 30 -4 0 -7 40 -7 89
1 49 -2 88 -5 86 -3 -2 -5 35 -4 81 0 52 -3 81 -9 77 -6 -4 -7 -1 -2 8 12 18
14 49 3 49 -4 0 -7 14 -6 32 2 25 -2 34 -22 45 -14 7 -19 13 -11 13 11 0 11 3
1 14 -6 8 -18 12 -26 9 -8 -3 -14 1 -14 8 0 8 -6 5 -15 -7 -9 -12 -18 -15 -22
-9 -10 12 -54 15 -47 3 3 -4 1 -8 -5 -8 -5 0 -12 8 -14 18 -3 9 -5 12 -6 6z
m134 -24 c-3 -5 -12 -10 -18 -10 -7 0 -6 4 3 10 19 12 23 12 15 0z m82 -842
c-3 -8 -6 -5 -6 6 -1 11 2 17 5 13 3 -3 4 -12 1 -19z m-1320 -84 c-3 -3 -12
-4 -19 -1 -8 3 -5 6 6 6 11 1 17 -2 13 -5z m-170 -90 c-3 -3 -12 -4 -19 -1 -8
3 -5 6 6 6 11 1 17 -2 13 -5z m-200 -90 c-3 -3 -12 -4 -19 -1 -8 3 -5 6 6 6
11 1 17 -2 13 -5z m-1040 -196 c-3 -8 -6 -5 -6 6 -1 11 2 17 5 13 3 -3 4 -12
1 -19z m640 -204 c-3 -3 -12 -4 -19 -1 -8 3 -5 6 6 6 11 1 17 -2 13 -5z m-890
-86 c-3 -8 -6 -5 -6 6 -1 11 2 17 5 13 3 -3 4 -12 1 -19z m-30 -30 c-3 -8 -6
-5 -6 6 -1 11 2 17 5 13 3 -3 4 -12 1 -19z m3071 -193 c-3 -3 -9 2 -12 12 -6
14 -5 15 5 6 7 -7 10 -15 7 -18z m-3221 -7 c-3 -8 -6 -5 -6 6 -1 11 2 17 5 13
3 -3 4 -12 1 -19z m3220 -60 c-3 -8 -6 -5 -6 6 -1 11 2 17 5 13 3 -3 4 -12 1
-19z m-3280 -20 c-3 -8 -6 -5 -6 6 -1 11 2 17 5 13 3 -3 4 -12 1 -19z m-40
-80 c-3 -8 -6 -5 -6 6 -1 11 2 17 5 13 3 -3 4 -12 1 -19z m478 -18 c-3 -5 -12
-10 -18 -10 -7 0 -6 4 3 10 19 12 23 12 15 0z m2272 -57 c-3 -10 -5 -4 -5 12
0 17 2 24 5 18 2 -7 2 -21 0 -30z m0 -70 c-3 -10 -5 -2 -5 17 0 19 2 27 5 18
2 -10 2 -26 0 -35z m0 -45 c-3 -8 -6 -5 -6 6 -1 11 2 17 5 13 3 -3 4 -12 1
-19z m590 -30 c-3 -8 -6 -5 -6 6 -1 11 2 17 5 13 3 -3 4 -12 1 -19z m370 -14
c-3 -3 -12 -4 -19 -1 -8 3 -5 6 6 6 11 1 17 -2 13 -5z m-167 -8 c0 -2 -7 -7
-16 -10 -8 -3 -12 -2 -9 4 6 10 25 14 25 6z m213 -3 c-7 -2 -19 -2 -25 0 -7 3
-2 5 12 5 14 0 19 -2 13 -5z m-343 -13 c0 -5 -7 -7 -15 -4 -8 4 -15 8 -15 10
0 2 7 4 15 4 8 0 15 -4 15 -10z m297 4 c-3 -3 -12 -4 -19 -1 -8 3 -5 6 6 6 11
1 17 -2 13 -5z m691 -71 c-10 -2 -26 -2 -35 0 -10 3 -2 5 17 5 19 0 27 -2 18
-5z m-4635 -38 c-3 -9 -8 -14 -10 -11 -3 3 -2 9 2 15 9 16 15 13 8 -4z m4147
-9 c0 -2 -7 -7 -16 -10 -8 -3 -12 -2 -9 4 6 10 25 14 25 6z m245 -6 c-3 -5
-12 -10 -18 -10 -7 0 -6 4 3 10 19 12 23 12 15 0z m140 -60 c3 -6 -1 -7 -9 -4
-18 7 -21 14 -7 14 6 0 13 -4 16 -10z m422 -62 c-3 -8 -6 -5 -6 6 -1 11 2 17
5 13 3 -3 4 -12 1 -19z m-1970 -30 c-3 -8 -6 -5 -6 6 -1 11 2 17 5 13 3 -3 4
-12 1 -19z m2016 5 c-7 -2 -19 -2 -25 0 -7 3 -2 5 12 5 14 0 19 -2 13 -5z m20
-20 c-7 -2 -19 -2 -25 0 -7 3 -2 5 12 5 14 0 19 -2 13 -5z m-2036 -115 c-3 -7
-5 -2 -5 12 0 14 2 19 5 13 2 -7 2 -19 0 -25z m220 -23 c0 -8 -4 -12 -9 -9 -5
3 -6 10 -3 15 9 13 12 11 12 -6z m97 7 c2 -4 -5 -9 -17 -9 -17 -2 -19 0 -7 7
18 12 18 12 24 2z m-2787 -44 c-3 -8 -6 -5 -6 6 -1 11 2 17 5 13 3 -3 4 -12 1
-19z m-27 -33 c0 -8 -4 -15 -10 -15 -5 0 -7 7 -4 15 4 8 8 15 10 15 2 0 4 -7
4 -15z m4777 -7 c-3 -8 -6 -5 -6 6 -1 11 2 17 5 13 3 -3 4 -12 1 -19z m-4787
-33 c0 -8 -7 -15 -15 -15 -13 0 -14 3 -3 15 16 18 18 18 18 0z m3677 -1 c-3
-3 -12 -4 -19 -1 -8 3 -5 6 6 6 11 1 17 -2 13 -5z m110 -20 c-3 -3 -12 -4 -19
-1 -8 3 -5 6 6 6 11 1 17 -2 13 -5z m160 -30 c-3 -3 -12 -4 -19 -1 -8 3 -5 6
6 6 11 1 17 -2 13 -5z m263 -36 c0 -4 -9 0 -20 9 -11 10 -20 21 -20 25 0 4 9
0 20 -9 11 -10 20 -21 20 -25z m-193 26 c-3 -3 -12 -4 -19 -1 -8 3 -5 6 6 6
11 1 17 -2 13 -5z m50 -30 c-3 -3 -12 -4 -19 -1 -8 3 -5 6 6 6 11 1 17 -2 13
-5z m70 -10 c-3 -3 -12 -4 -19 -1 -8 3 -5 6 6 6 11 1 17 -2 13 -5z m0 -20 c-3
-3 -12 -4 -19 -1 -8 3 -5 6 6 6 11 1 17 -2 13 -5z m70 -10 c-3 -3 -12 -4 -19
-1 -8 3 -5 6 6 6 11 1 17 -2 13 -5z m-20 -20 c-3 -3 -12 -4 -19 -1 -8 3 -5 6
6 6 11 1 17 -2 13 -5z m90 -10 c-3 -3 -12 -4 -19 -1 -8 3 -5 6 6 6 11 1 17 -2
13 -5z m-10 -20 c-3 -3 -12 -4 -19 -1 -8 3 -5 6 6 6 11 1 17 -2 13 -5z m70
-50 c-3 -3 -12 -4 -19 -1 -8 3 -5 6 6 6 11 1 17 -2 13 -5z m80 -70 c-3 -3 -12
-4 -19 -1 -8 3 -5 6 6 6 11 1 17 -2 13 -5z m-5210 -49 c0 -8 -5 -12 -10 -8 -5
3 -6 -4 -2 -18 4 -16 3 -20 -3 -11 -7 11 -10 11 -15 -2 -4 -9 -11 -16 -16 -16
-10 0 29 69 40 70 3 0 6 -7 6 -15z m-62 -135 c-3 -5 -2 -10 4 -10 5 0 11 3 14
8 2 4 2 0 -1 -8 -3 -8 -5 -23 -6 -32 0 -9 -4 -14 -9 -11 -5 3 -6 11 -3 19 3 7
1 16 -5 19 -9 6 -4 25 7 25 3 0 2 -4 -1 -10z m-1 -93 c-7 -19 -20 -22 -29 -7
-4 6 -1 9 6 8 6 -2 14 3 17 11 3 9 0 11 -8 6 -9 -6 -11 -4 -5 4 10 18 27 -2
19 -22z m6043 -19 c-3 -8 -6 -5 -6 6 -1 11 2 17 5 13 3 -3 4 -12 1 -19z
m-5430 -50 c-3 -8 -6 -5 -6 6 -1 11 2 17 5 13 3 -3 4 -12 1 -19z m-672 -127
c-3 -6 -11 -11 -17 -11 -6 0 -6 6 2 15 14 17 26 13 15 -4z m642 -3 c-3 -8 -6
-5 -6 6 -1 11 2 17 5 13 3 -3 4 -12 1 -19z m5550 -210 c-3 -8 -6 -5 -6 6 -1
11 2 17 5 13 3 -3 4 -12 1 -19z m20 0 c-3 -8 -6 -5 -6 6 -1 11 2 17 5 13 3 -3
4 -12 1 -19z m-6226 -31 c-10 -9 -11 -8 -5 6 3 10 9 15 12 12 3 -3 0 -11 -7
-18z m-47 -172 c-4 -8 -10 -15 -15 -15 -4 0 -6 7 -3 15 4 8 10 15 15 15 4 0 6
-7 3 -15z m29 -32 c-5 -12 -3 -14 8 -8 8 5 11 5 6 -1 -5 -5 -12 -8 -15 -7 -4
1 -13 -4 -21 -10 -9 -8 -8 -2 3 16 21 31 28 35 19 10z m6264 -25 c-3 -7 -5 -2
-5 12 0 14 2 19 5 13 2 -7 2 -19 0 -25z m-5650 0 c-3 -8 -6 -5 -6 6 -1 11 2
17 5 13 3 -3 4 -12 1 -19z m-597 -56 c0 -5 -7 -9 -15 -9 -8 0 -15 4 -15 9 0 4
7 8 15 8 8 0 15 -4 15 -8z m-23 -49 c-6 -13 -15 -23 -20 -23 -5 0 -4 7 3 15 7
9 10 19 6 22 -4 4 -11 1 -16 -7 -6 -8 -10 -10 -10 -4 0 16 10 23 30 21 15 -1
16 -5 7 -24z m6270 -25 c-3 -7 -5 -2 -5 12 0 14 2 19 5 13 2 -7 2 -19 0 -25z
m-6281 -38 c-14 -22 -28 -40 -31 -40 -11 0 -4 17 20 44 14 16 25 34 25 39 0 6
3 7 6 4 4 -4 -5 -25 -20 -47z m621 -62 c-3 -8 -6 -5 -6 6 -1 11 2 17 5 13 3
-3 4 -12 1 -19z m5086 -3 c-3 -9 -8 -14 -10 -11 -3 3 -2 9 2 15 9 16 15 13 8
-4z m-5682 -18 c-10 -9 -11 -8 -5 6 3 10 9 15 12 12 3 -3 0 -11 -7 -18z m-16
-27 c-3 -5 -1 -10 5 -10 7 0 8 -6 0 -19 -7 -14 -7 -20 2 -23 7 -3 4 -12 -10
-26 l-22 -22 22 -11 c18 -10 20 -9 15 5 -3 8 -3 17 1 20 4 3 8 -4 9 -14 1 -11
-3 -22 -8 -26 -6 -4 -6 -11 1 -19 9 -11 7 -13 -15 -9 -17 3 -24 1 -20 -6 3 -5
1 -10 -4 -10 -18 0 -13 18 9 33 19 13 19 14 -5 27 -24 13 -24 14 -5 27 11 8
20 20 19 26 0 9 -2 8 -6 -1 -5 -13 -23 -7 -23 9 0 6 5 7 10 4 6 -3 13 2 17 11
4 11 1 20 -6 22 -11 4 -11 6 0 13 18 11 22 11 14 -1z m6232 -62 c-2 -13 -4 -3
-4 22 0 25 2 35 4 23 2 -13 2 -33 0 -45z m-20 -10 c-3 -8 -6 -5 -6 6 -1 11 2
17 5 13 3 -3 4 -12 1 -19z m-5600 -30 c-3 -7 -5 -2 -5 12 0 14 2 19 5 13 2 -7
2 -19 0 -25z m10 -80 c-3 -8 -6 -5 -6 6 -1 11 2 17 5 13 3 -3 4 -12 1 -19z
m10 -70 c-3 -7 -5 -2 -5 12 0 14 2 19 5 13 2 -7 2 -19 0 -25z m-20 0 c-3 -8
-6 -5 -6 6 -1 11 2 17 5 13 3 -3 4 -12 1 -19z m5510 -190 c-2 -13 -4 -3 -4 22
0 25 2 35 4 23 2 -13 2 -33 0 -45z m-180 -280 c-3 -8 -6 -5 -6 6 -1 11 2 17 5
13 3 -3 4 -12 1 -19z m-990 -54 c-3 -3 -12 -4 -19 -1 -8 3 -5 6 6 6 11 1 17
-2 13 -5z m-4210 -76 c-3 -8 -6 -5 -6 6 -1 11 2 17 5 13 3 -3 4 -12 1 -19z
m20 -130 c-3 -8 -6 -5 -6 6 -1 11 2 17 5 13 3 -3 4 -12 1 -19z m4563 -58 c0
-5 -5 -10 -11 -10 -5 0 -7 5 -4 10 3 6 8 10 11 10 2 0 4 -4 4 -10z m-5193 -62
c-3 -7 -5 -2 -5 12 0 14 2 19 5 13 2 -7 2 -19 0 -25z m5401 -84 c-12 -12 -17
-13 -23 -3 -5 8 -4 10 4 5 6 -4 14 0 17 9 4 9 9 13 12 10 3 -3 -1 -13 -10 -21z
m-1161 -100 c-3 -3 -12 -4 -19 -1 -8 3 -5 6 6 6 11 1 17 -2 13 -5z m66 -1 c-7
-2 -19 -2 -25 0 -7 3 -2 5 12 5 14 0 19 -2 13 -5z m-346 -19 c-3 -3 -12 -4
-19 -1 -8 3 -5 6 6 6 11 1 17 -2 13 -5z m40 0 c-3 -3 -12 -4 -19 -1 -8 3 -5 6
6 6 11 1 17 -2 13 -5z m186 -1 c-13 -2 -33 -2 -45 0 -13 2 -3 4 22 4 25 0 35
-2 23 -4z m84 1 c-3 -3 -12 -4 -19 -1 -8 3 -5 6 6 6 11 1 17 -2 13 -5z m66 -1
c-7 -2 -19 -2 -25 0 -7 3 -2 5 12 5 14 0 19 -2 13 -5z m-235 -20 c-15 -2 -42
-2 -60 0 -18 2 -6 4 27 4 33 0 48 -2 33 -4z m59 1 c-3 -3 -12 -4 -19 -1 -8 3
-5 6 6 6 11 1 17 -2 13 -5z m-4050 -46 c-3 -8 -6 -5 -6 6 -1 11 2 17 5 13 3
-3 4 -12 1 -19z m463 -8 c0 -5 -2 -10 -4 -10 -3 0 -8 5 -11 10 -3 6 -1 10 4
10 6 0 11 -4 11 -10z m-463 -32 c-3 -8 -6 -5 -6 6 -1 11 2 17 5 13 3 -3 4 -12
1 -19z m558 -148 c3 -5 1 -10 -4 -10 -6 0 -11 5 -11 10 0 6 2 10 4 10 3 0 8
-4 11 -10z m18 -55 c-3 -9 -8 -14 -10 -11 -3 3 -2 9 2 15 9 16 15 13 8 -4z
m-459 -40 c3 -8 1 -15 -4 -15 -6 0 -10 7 -10 15 0 8 2 15 4 15 2 0 6 -7 10
-15z m723 -27 c-3 -8 -6 -5 -6 6 -1 11 2 17 5 13 3 -3 4 -12 1 -19z m40 -80
c-3 -8 -6 -5 -6 6 -1 11 2 17 5 13 3 -3 4 -12 1 -19z m30 -30 c-3 -8 -6 -5 -6
6 -1 11 2 17 5 13 3 -3 4 -12 1 -19z m-730 -40 c-3 -8 -6 -5 -6 6 -1 11 2 17
5 13 3 -3 4 -12 1 -19z m60 -140 c-3 -8 -6 -5 -6 6 -1 11 2 17 5 13 3 -3 4
-12 1 -19z m790 -50 c-3 -8 -6 -5 -6 6 -1 11 2 17 5 13 3 -3 4 -12 1 -19z
m-727 -38 c0 -5 -5 -10 -11 -10 -5 0 -7 5 -4 10 3 6 8 10 11 10 2 0 4 -4 4
-10z m877 -162 c-3 -8 -6 -5 -6 6 -1 11 2 17 5 13 3 -3 4 -12 1 -19z m-790
-10 c-3 -8 -6 -5 -6 6 -1 11 2 17 5 13 3 -3 4 -12 1 -19z m880 -100 c-3 -8 -6
-5 -6 6 -1 11 2 17 5 13 3 -3 4 -12 1 -19z m-665 -260 c-8 -8 -9 -4 -5 13 4
13 8 18 11 10 2 -7 -1 -18 -6 -23z m1015 -110 c-3 -8 -6 -5 -6 6 -1 11 2 17 5
13 3 -3 4 -12 1 -19z m-897 -54 c0 -8 -5 -12 -10 -9 -6 4 -8 11 -5 16 9 14 15
11 15 -7z m310 -124 c0 -5 -5 -10 -11 -10 -5 0 -7 5 -4 10 3 6 8 10 11 10 2 0
4 -4 4 -10z m-153 -42 c-3 -8 -6 -5 -6 6 -1 11 2 17 5 13 3 -3 4 -12 1 -19z
m96 -66 c-5 -11 -7 -11 -14 0 -7 11 -9 10 -9 -1 0 -8 -3 -12 -6 -8 -9 9 3 24
20 24 8 0 12 -6 9 -15z m171 -6 c-3 -9 -10 -13 -15 -10 -5 3 -3 11 4 19 15 16
19 13 11 -9z m41 -14 c-3 -3 -11 0 -18 7 -9 10 -8 11 6 5 10 -3 15 -9 12 -12z
m-191 -17 c-5 -11 -1 -14 12 -9 16 5 16 4 4 -5 -12 -9 -13 -11 -1 -11 8 0 11
-3 8 -6 -9 -9 -37 15 -37 32 0 8 4 14 10 14 5 0 7 -7 4 -15z m66 -9 c0 -2 -7
-7 -16 -10 -8 -3 -12 -2 -9 4 6 10 25 14 25 6z m12 -90 c7 4 8 2 4 -4 -4 -7
-2 -12 5 -12 7 0 9 -3 6 -6 -8 -9 -37 15 -36 30 0 7 2 6 6 -2 2 -6 10 -9 15
-6z m118 -80 c0 -2 -8 -10 -17 -17 -16 -13 -17 -12 -4 4 13 16 21 21 21 13z
m305 -16 c3 -6 -1 -7 -9 -4 -18 7 -21 14 -7 14 6 0 13 -4 16 -10z m-138 -134
c0 -15 -21 -16 -34 -1 -4 4 -3 5 4 1 6 -3 14 -2 18 4 8 14 12 13 12 -4z m1230
-88 c-3 -8 -6 -5 -6 6 -1 11 2 17 5 13 3 -3 4 -12 1 -19z m-633 -56 c3 -5 -1
-9 -9 -9 -8 0 -12 4 -9 9 3 4 7 8 9 8 2 0 6 -4 9 -8z m40 -28 c3 -8 2 -12 -4
-9 -6 3 -10 10 -10 16 0 14 7 11 14 -7z m511 -322 c-3 -3 -11 0 -18 7 -9 10
-8 11 6 5 10 -3 15 -9 12 -12z"/>
<path d="M4730 8753 c-14 -3 -28 -10 -32 -17 -4 -6 -8 -6 -8 -1 0 6 -19 11
-43 12 -31 1 -37 -1 -22 -7 15 -6 16 -9 4 -9 -9 -1 -19 2 -22 6 -11 10 -57 10
-57 0 0 -5 -8 -7 -18 -5 -19 5 -45 -15 -34 -28 4 -4 0 -5 -9 -1 -10 3 -26 -3
-37 -13 -15 -14 -22 -16 -25 -7 -3 7 -6 4 -6 -5 -1 -10 5 -18 12 -19 6 0 3 -4
-8 -9 -11 -5 -14 -9 -7 -9 6 -1 12 -6 12 -12 0 -5 -4 -8 -9 -5 -4 3 -6 -6 -3
-20 3 -16 -1 -30 -9 -36 -11 -8 -10 -8 5 -4 14 5 17 3 11 -11 -9 -24 -12 -82
-4 -77 4 2 9 -12 11 -31 2 -20 0 -35 -7 -35 -6 0 -7 -3 0 -8 6 -4 10 -31 10
-59 0 -29 4 -53 10 -53 5 0 3 -5 -5 -10 -11 -7 -11 -10 -2 -10 10 0 10 -5 2
-20 -9 -16 -8 -20 7 -21 10 0 13 -3 6 -5 -7 -3 -9 -12 -6 -20 3 -7 9 -11 14
-8 5 3 9 1 9 -5 0 -5 -6 -12 -12 -14 -7 -3 2 -8 20 -12 17 -4 32 -12 32 -17 0
-5 5 -6 10 -3 6 3 10 2 10 -3 0 -6 16 -12 35 -14 19 -2 35 0 35 4 0 4 5 8 11
8 5 0 7 -4 4 -10 -3 -5 -2 -10 4 -10 5 0 12 6 14 13 4 9 6 9 6 0 1 -7 8 -10
17 -6 9 3 20 0 25 -8 6 -10 9 -10 9 -2 0 7 7 10 17 6 11 -4 14 -3 9 5 -5 8 0
12 13 12 12 0 21 -4 21 -9 0 -5 10 -7 23 -4 18 4 19 3 7 -6 -9 -7 -10 -11 -3
-11 6 0 14 4 17 9 3 5 21 5 40 1 24 -5 37 -4 40 4 3 7 5 7 5 -1 1 -7 8 -13 17
-13 8 0 13 -4 10 -8 -2 -4 11 -6 31 -4 23 3 33 1 29 -6 -4 -7 5 -9 25 -5 19 3
29 1 25 -5 -4 -6 6 -8 24 -6 20 4 30 1 30 -8 0 -9 3 -9 10 2 5 8 10 10 10 3 0
-6 9 -9 20 -6 12 3 20 0 20 -8 0 -7 3 -9 7 -6 3 4 11 3 17 -2 16 -12 57 -21
50 -10 -3 5 5 9 18 9 17 0 19 -3 9 -9 -10 -7 -5 -11 17 -16 18 -3 36 -4 42 0
5 3 10 0 10 -7 0 -12 15 -15 73 -18 9 -1 15 -5 12 -10 -3 -5 12 -6 32 -4 30 5
35 3 23 -6 -12 -9 -8 -10 18 -5 23 5 32 3 32 -7 0 -10 3 -9 10 2 8 12 10 12
11 -5 0 -11 3 -14 6 -7 2 6 9 12 14 12 6 0 8 -4 5 -9 -3 -5 1 -11 8 -14 8 -3
17 -1 20 6 3 9 5 9 5 0 1 -7 10 -13 21 -13 11 0 20 -4 20 -10 0 -5 7 -6 17 -3
11 4 14 3 9 -6 -4 -6 -4 -11 1 -9 4 1 26 -4 48 -10 26 -8 41 -8 43 -2 2 6 11
10 20 10 11 0 13 -3 6 -8 -9 -5 -8 -11 2 -20 12 -10 14 -10 14 3 0 8 8 15 18
15 14 0 15 -2 2 -10 -8 -5 -10 -10 -5 -11 38 -3 62 -12 73 -26 6 -9 12 -12 12
-5 0 7 10 11 23 11 16 -1 18 -2 5 -6 -10 -2 -18 -8 -18 -13 0 -5 7 -6 17 -3
10 4 14 2 10 -4 -4 -6 2 -8 16 -6 12 2 33 0 47 -6 22 -9 20 -10 -15 -6 -37 4
-36 3 10 -9 34 -9 49 -17 47 -27 -2 -8 0 -11 3 -7 4 4 16 3 26 -2 14 -8 18 -6
22 13 4 22 4 22 6 -2 1 -18 5 -22 21 -18 13 3 20 0 20 -10 0 -8 9 -17 20 -20
11 -3 20 -9 20 -12 0 -4 14 -6 30 -3 24 3 30 1 30 -14 0 -16 2 -17 10 -4 7 11
10 11 10 2 0 -7 5 -10 10 -7 6 3 10 1 10 -4 0 -6 10 -11 23 -11 18 0 19 -2 7
-11 -11 -8 -6 -9 20 -5 25 4 31 3 20 -4 -12 -8 -12 -10 5 -10 16 0 17 -2 6 -9
-11 -7 -5 -11 23 -17 27 -4 34 -9 24 -15 -12 -8 -4 -13 16 -10 5 1 6 -5 3 -13
-4 -10 -1 -13 8 -9 9 3 18 -4 24 -20 5 -14 15 -28 22 -33 8 -4 10 -3 5 4 -5 8
1 11 17 10 14 -1 24 -8 23 -16 -1 -8 6 -17 14 -19 13 -4 13 -3 0 6 -13 9 -13
11 3 11 10 0 17 -8 17 -20 0 -17 5 -19 28 -15 15 3 21 2 15 -1 -10 -4 -9 -10
4 -22 17 -18 18 -18 56 -22 21 -2 21 -2 -3 -10 -22 -7 -22 -8 -5 -10 11 -1 23
-2 28 -1 4 0 6 -4 5 -11 -2 -7 11 -15 27 -19 17 -4 26 -7 21 -8 -5 0 -3 -7 3
-15 7 -8 22 -12 34 -9 18 4 19 3 7 -6 -13 -9 -13 -11 3 -11 9 0 17 -7 17 -15
0 -10 11 -15 33 -16 17 -1 24 -3 15 -6 -16 -4 -16 -6 -4 -19 8 -8 19 -14 25
-14 6 0 11 -7 11 -15 0 -8 5 -15 11 -15 7 0 22 -11 35 -25 13 -14 31 -25 41
-25 15 0 16 -2 3 -10 -12 -8 -12 -10 5 -10 17 0 17 -2 5 -10 -13 -8 -12 -10 3
-10 9 0 17 -5 17 -11 0 -5 5 -7 10 -4 6 3 10 1 10 -4 0 -6 7 -11 15 -11 8 0
15 -5 15 -11 0 -17 70 -83 71 -67 0 7 5 -3 12 -22 8 -23 20 -37 37 -41 14 -4
19 -7 12 -8 -10 -1 -10 -4 0 -17 31 -38 62 -64 77 -64 14 0 14 -2 1 -10 -13
-9 -13 -10 0 -10 8 0 20 -10 25 -22 6 -13 21 -25 35 -27 23 -3 24 -4 5 -12
-16 -6 -17 -8 -3 -8 9 -1 20 -10 23 -21 3 -11 11 -20 17 -20 5 0 8 -6 5 -13
-3 -8 5 -14 21 -15 32 -3 43 -12 13 -12 -12 0 -19 -4 -16 -10 4 -6 9 -8 13 -6
4 2 12 -2 19 -9 10 -11 10 -15 0 -18 -7 -3 -3 -6 8 -6 17 -1 17 -3 5 -11 -8
-5 -10 -10 -4 -10 6 0 17 -13 24 -30 7 -16 15 -28 19 -26 9 5 31 -21 24 -28
-4 -3 0 -6 8 -6 11 0 11 -2 -1 -10 -12 -8 -10 -10 10 -11 23 0 23 -1 5 -9 -18
-8 -18 -9 5 -9 20 -1 22 -3 10 -11 -11 -7 -11 -10 -2 -10 7 0 10 -4 7 -10 -3
-5 -1 -10 5 -10 6 0 8 -4 5 -10 -3 -5 -1 -10 4 -10 6 0 11 -8 11 -17 0 -16 2
-16 11 -3 8 11 9 8 4 -13 -3 -17 -2 -26 4 -23 5 3 14 -8 20 -24 5 -17 17 -30
26 -30 9 0 13 -4 10 -10 -3 -5 0 -10 7 -10 11 0 10 -2 0 -9 -11 -6 -10 -10 3
-15 10 -3 15 -12 11 -21 -3 -8 -1 -15 4 -15 6 0 10 -8 10 -17 0 -16 2 -16 10
-3 8 11 9 8 4 -12 -4 -20 -2 -29 9 -34 8 -3 18 -20 21 -37 5 -25 9 -29 16 -17
8 13 10 13 10 -2 0 -9 -6 -19 -12 -21 -8 -3 -6 -6 4 -6 11 -1 16 -8 13 -21 -3
-15 2 -20 18 -20 18 0 19 -2 7 -10 -13 -9 -13 -10 0 -10 13 0 13 -1 0 -10 -13
-8 -13 -10 2 -10 11 0 16 -6 13 -20 -2 -11 0 -20 6 -20 5 0 9 -7 9 -16 0 -8 4
-13 9 -10 5 4 7 -3 4 -14 -3 -12 0 -20 6 -20 7 0 9 -4 6 -10 -3 -5 -2 -10 2
-10 5 0 17 -27 26 -60 10 -33 23 -60 29 -60 6 0 9 -3 5 -6 -3 -4 0 -19 8 -35
8 -15 16 -41 18 -57 2 -15 7 -34 12 -42 5 -8 4 -15 -2 -17 -12 -4 -6 -43 7
-43 4 0 12 -12 18 -26 7 -14 8 -23 2 -19 -5 3 -10 1 -10 -4 0 -6 5 -11 11 -11
5 0 7 -4 4 -10 -3 -5 -1 -10 5 -10 6 0 9 -4 5 -9 -3 -5 -1 -20 4 -33 20 -52
44 -146 47 -183 2 -22 8 -51 13 -65 9 -22 15 -52 26 -125 2 -11 6 -40 10 -65
3 -25 9 -61 12 -80 4 -19 7 -50 7 -67 1 -18 4 -33 8 -33 4 0 5 -9 3 -20 -2
-11 0 -20 6 -20 5 0 9 -5 9 -11 0 -5 -4 -8 -9 -5 -5 4 -7 -3 -4 -14 3 -11 10
-17 16 -13 6 4 7 1 1 -8 -11 -17 -13 -59 -3 -59 4 0 6 -16 4 -35 -2 -19 1 -32
6 -29 5 3 9 0 9 -5 0 -6 -8 -11 -17 -11 -11 0 -14 -3 -7 -8 15 -10 24 -72 10
-72 -7 0 -7 -3 -1 -8 6 -4 10 -31 10 -60 0 -30 3 -56 8 -59 4 -2 5 -9 1 -14
-3 -6 -8 -36 -10 -67 -6 -95 -13 -187 -14 -187 -1 0 -3 -14 -5 -31 -6 -53 -15
-106 -21 -115 -3 -5 0 -9 7 -9 8 0 8 -4 1 -12 -6 -7 -12 -33 -15 -58 -3 -25
-8 -52 -11 -60 -3 -8 -7 -28 -10 -45 -3 -16 -10 -48 -16 -70 -15 -60 -24 -107
-24 -137 -1 -14 -4 -24 -7 -22 -4 2 -10 -15 -14 -39 -4 -23 -10 -53 -12 -67
-3 -14 -5 -35 -6 -47 0 -12 -5 -19 -9 -17 -4 3 -8 -8 -8 -25 0 -18 -7 -34 -17
-40 -16 -9 -16 -12 -3 -21 13 -8 12 -10 -5 -10 -17 0 -17 -2 -5 -10 9 -6 11
-10 3 -10 -7 0 -10 -7 -6 -17 4 -11 3 -14 -5 -9 -8 5 -12 -3 -12 -24 0 -18 -4
-29 -10 -25 -6 4 -10 -6 -10 -23 0 -17 -6 -32 -14 -35 -9 -4 -12 -14 -9 -27 4
-14 1 -19 -8 -15 -10 4 -15 -3 -16 -22 0 -15 -6 -29 -12 -31 -6 -2 -9 -8 -5
-13 3 -5 0 -9 -6 -9 -6 0 -8 -4 -5 -10 3 -5 1 -10 -4 -10 -6 0 -10 -3 -10 -7
4 -22 -2 -33 -13 -27 -9 5 -8 2 1 -9 8 -10 11 -20 7 -24 -3 -3 -6 0 -7 8 0 8
-4 3 -10 -9 -5 -13 -6 -29 -2 -35 4 -7 -1 -6 -10 2 -10 8 -20 11 -24 7 -3 -3
-1 -6 5 -6 17 0 15 -16 -5 -36 -10 -10 -17 -20 -15 -23 1 -3 -2 -6 -7 -6 -5 0
-13 -4 -18 -9 -4 -5 -3 -6 4 -3 6 4 13 2 15 -5 6 -16 -23 -48 -36 -42 -6 3 -4
-1 5 -8 14 -11 14 -15 2 -26 -7 -7 -10 -18 -7 -24 4 -6 3 -8 -4 -5 -5 4 -8 17
-6 30 3 16 1 15 -7 -6 -6 -15 -15 -24 -21 -21 -7 4 -8 2 -4 -5 4 -6 12 -9 17
-6 13 9 11 -7 -4 -26 -7 -9 -21 -15 -32 -13 -18 2 -18 2 -3 -10 15 -11 15 -13
0 -24 -15 -10 -15 -12 -2 -21 9 -7 10 -11 3 -11 -6 0 -15 5 -18 10 -4 6 -11 8
-16 4 -6 -3 -5 -12 3 -22 11 -13 11 -15 -3 -10 -13 5 -16 2 -12 -13 3 -11 0
-19 -6 -19 -7 0 -9 5 -5 12 4 7 3 8 -5 4 -6 -4 -9 -12 -6 -17 4 -5 1 -9 -4 -9
-6 0 -11 -5 -11 -12 0 -9 3 -9 12 0 7 7 16 12 21 12 11 0 -54 -60 -65 -60 -3
0 -5 -13 -4 -29 1 -17 -2 -28 -6 -25 -4 3 -8 -2 -8 -10 0 -9 -7 -16 -16 -16
-8 0 -12 -4 -9 -10 3 -5 0 -10 -8 -10 -18 0 -30 -27 -20 -43 5 -8 2 -8 -8 0
-13 11 -15 9 -15 -10 1 -12 -4 -21 -10 -20 -7 1 -10 -6 -7 -20 4 -18 3 -19 -6
-7 -9 13 -11 13 -11 -2 0 -10 -4 -18 -9 -18 -5 0 -12 -13 -16 -30 -4 -16 -11
-30 -16 -30 -6 0 -7 6 -4 13 4 6 -1 3 -10 -8 -9 -12 -11 -21 -5 -23 5 -2 10
-8 10 -13 0 -5 -10 -4 -22 2 -22 12 -22 11 -8 -6 14 -17 13 -18 -2 -12 -10 3
-20 1 -24 -5 -4 -7 -3 -8 4 -4 7 4 12 2 12 -5 0 -6 -8 -9 -20 -6 -27 7 -25 -1
3 -13 18 -7 18 -9 4 -9 -11 -1 -15 -5 -11 -13 4 -7 3 -8 -4 -4 -7 4 -12 1 -12
-8 0 -9 -5 -16 -11 -16 -5 0 -7 5 -3 12 5 7 3 8 -5 4 -7 -5 -10 -15 -6 -24 3
-9 3 -14 0 -10 -6 6 -65 -42 -65 -54 0 -4 12 4 27 18 14 13 29 21 32 18 3 -4
0 -9 -6 -11 -19 -7 -83 -71 -83 -83 0 -6 -4 -9 -9 -6 -5 3 -15 -8 -23 -25 -12
-23 -17 -27 -21 -15 -8 19 -34 11 -34 -11 0 -13 3 -12 15 3 14 18 14 18 8 1
-3 -10 -6 -21 -6 -23 0 -2 -7 -4 -16 -4 -9 0 -12 -5 -8 -12 4 -7 3 -8 -4 -4
-7 4 -12 1 -12 -8 0 -20 -32 -25 -48 -6 -10 12 -10 10 -2 -12 6 -18 6 -29 0
-33 -6 -4 -10 -3 -10 1 0 4 -9 -3 -20 -16 -18 -21 -25 -20 -21 3 2 14 -8 7
-20 -14 -8 -15 -8 -19 0 -15 30 19 4 -5 -54 -49 -36 -27 -65 -52 -65 -57 0 -4
-5 -8 -11 -8 -5 0 -7 6 -3 13 4 7 3 9 -2 4 -5 -5 -9 -14 -9 -20 0 -7 -8 -11
-17 -11 -10 1 -14 -4 -11 -12 3 -8 -6 -18 -21 -25 -14 -7 -23 -16 -20 -20 3
-5 -1 -6 -9 -3 -8 3 -18 0 -23 -7 -5 -8 -3 -10 7 -5 8 4 5 0 -5 -8 -11 -9 -24
-16 -29 -16 -10 0 -56 -46 -53 -52 0 -2 -5 3 -11 11 -11 13 -13 13 -13 -2 0
-9 -7 -17 -15 -17 -8 0 -19 -9 -25 -20 -6 -11 -17 -17 -24 -14 -8 3 -19 -4
-26 -16 -8 -15 -18 -20 -31 -17 -14 4 -23 -2 -31 -18 -9 -20 -14 -22 -31 -14
-14 8 -18 8 -12 -1 4 -7 1 -11 -6 -9 -28 3 -40 -1 -33 -13 5 -8 2 -9 -9 -5
-12 4 -17 1 -17 -9 0 -11 -6 -15 -20 -11 -11 3 -18 1 -14 -4 5 -8 -19 -13 -31
-6 -2 1 -10 -7 -18 -17 -9 -12 -19 -16 -27 -11 -9 6 -11 4 -5 -5 6 -10 3 -12
-13 -8 -15 4 -25 0 -32 -10 -5 -10 -10 -13 -10 -8 0 6 -7 1 -16 -10 -8 -10
-13 -13 -9 -6 3 6 1 12 -4 12 -6 0 -11 -4 -11 -10 0 -5 -10 -14 -21 -21 -15
-8 -19 -8 -15 0 4 6 2 11 -3 11 -6 0 -11 -4 -11 -9 0 -6 -9 -8 -20 -6 -11 2
-20 -1 -20 -6 0 -6 -4 -8 -9 -4 -5 3 -12 1 -16 -5 -4 -6 -11 -7 -17 -4 -7 5
-8 2 -3 -6 6 -10 4 -12 -8 -7 -9 3 -19 2 -22 -4 -4 -5 -11 -7 -16 -4 -5 4 -12
-1 -15 -9 -3 -9 -10 -13 -15 -10 -8 4 -13 -8 -11 -27 1 -3 -17 -4 -39 -2 -26
2 -39 -1 -39 -10 0 -9 -3 -8 -9 2 -7 11 -10 10 -15 -6 -5 -14 -16 -20 -49 -21
-63 -4 -67 -5 -67 -15 0 -5 -7 -7 -15 -3 -8 3 -20 0 -27 -7 -7 -7 -24 -13 -38
-15 -14 -1 -32 -5 -40 -8 -15 -6 -52 -14 -77 -16 -7 -1 -13 -5 -13 -10 0 -4 6
-8 13 -8 6 -1 0 -8 -16 -16 -15 -8 -32 -12 -38 -8 -6 3 -17 -2 -25 -12 -14
-18 -15 -18 -5 3 8 16 7 22 -5 27 -9 4 -12 2 -8 -5 4 -8 -1 -9 -17 -4 -22 7
-23 6 -6 -7 17 -13 16 -14 -9 -13 -15 1 -30 7 -32 13 -2 6 -10 8 -18 5 -7 -3
-11 -10 -7 -17 4 -6 -1 -5 -10 3 -9 7 -15 17 -12 20 2 4 -2 8 -10 8 -8 0 -12
-4 -10 -8 7 -10 -18 -27 -35 -23 -8 1 -25 5 -37 8 -27 6 -29 3 -6 -15 14 -12
16 -12 8 0 -5 10 -4 12 4 7 6 -4 9 -12 5 -17 -3 -6 -20 -1 -42 11 -23 14 -31
16 -23 6 14 -16 7 -36 -12 -35 -9 0 -8 2 1 6 6 2 9 9 6 14 -3 6 -12 5 -22 -3
-14 -11 -15 -10 -9 6 6 16 5 17 -8 6 -8 -7 -12 -17 -9 -22 4 -6 -3 -5 -15 1
-11 7 -21 9 -21 6 0 -3 -9 -1 -20 5 -15 8 -20 8 -20 -1 0 -6 -9 -9 -20 -6 -11
3 -22 1 -25 -4 -3 -4 -16 -4 -30 1 -13 5 -26 6 -29 2 -6 -9 -120 -7 -135 2 -7
5 -8 1 -4 -10 5 -15 3 -14 -23 2 -26 17 -28 17 -15 1 12 -15 12 -17 -3 -11 -9
3 -16 9 -16 14 0 4 -12 6 -27 6 -16 -1 -36 2 -47 7 -12 6 -16 5 -12 -1 8 -13
-36 -24 -48 -12 -14 14 -38 12 -31 -3 4 -6 1 -5 -7 3 -14 16 -38 24 -38 14 0
-4 8 -13 18 -21 9 -9 4 -7 -13 3 -30 18 -109 28 -99 13 3 -5 -2 -6 -10 -3 -9
3 -13 11 -9 17 3 6 1 7 -5 3 -6 -4 -22 -2 -34 4 -21 10 -21 10 2 -9 l25 -20
-30 4 c-16 2 -36 4 -43 4 -7 1 -17 11 -22 23 -5 13 -9 17 -9 10 -1 -10 -6 -10
-21 -2 -15 8 -20 8 -20 -2 0 -8 -5 -6 -11 5 -15 25 -32 21 -26 -6 6 -21 6 -21
-14 3 -12 14 -18 19 -14 13 4 -9 1 -11 -9 -7 -9 3 -14 9 -12 13 2 3 -6 6 -19
6 -13 0 -21 -3 -18 -7 7 -13 -2 -9 -57 19 -40 21 -53 24 -60 14 -4 -7 -9 -9
-11 -5 -2 5 -19 17 -38 27 -32 17 -33 17 -20 1 12 -16 12 -17 -4 -11 -10 4
-21 7 -23 7 -3 0 -3 4 0 9 4 5 -3 7 -15 4 -16 -4 -17 -8 -7 -14 7 -5 9 -9 3
-9 -5 1 -19 8 -30 17 -16 13 -17 15 -2 10 9 -4 17 -2 17 3 0 6 -6 10 -13 10
-8 0 -15 8 -16 18 -5 47 -3 454 3 477 5 19 4 25 -5 19 -8 -5 -9 -3 -4 6 12 20
12 260 0 260 -5 0 -3 5 5 10 13 9 13 10 0 10 -13 0 -13 1 0 10 13 9 13 10 0
10 -9 0 -11 3 -5 8 13 9 14 55 0 64 -6 5 -4 8 5 8 13 0 13 1 0 10 -8 5 -10 10
-5 10 14 0 13 73 0 82 -7 5 -6 8 1 8 13 0 14 53 0 62 -7 5 -5 8 4 8 13 0 13 1
0 10 -12 8 -12 10 5 11 l20 0 -20 9 c-11 5 -15 9 -9 9 13 1 15 81 2 81 -5 0
-3 7 6 15 11 12 13 22 6 40 -7 18 -6 25 3 26 6 0 3 4 -8 9 -11 5 -14 9 -6 9 9
1 12 11 9 36 -2 19 1 37 7 39 6 3 5 5 -2 5 -7 1 -10 7 -7 14 11 29 11 97 0 97
-7 0 -7 3 -1 8 16 11 12 76 -5 84 -13 6 -13 7 0 7 12 1 15 18 15 94 0 51 -4
95 -10 99 -7 5 -7 8 1 8 6 0 10 39 9 110 0 69 3 110 10 110 7 0 7 3 0 8 -5 4
-10 14 -10 22 0 8 5 18 10 22 6 5 5 8 -2 8 -15 0 -13 21 2 32 6 5 5 8 -2 8 -7
0 -13 9 -13 20 0 11 6 20 13 20 8 0 7 4 -3 10 -13 9 -13 10 0 10 9 0 11 3 5 8
-13 9 -19 46 -7 38 12 -7 10 13 -1 32 -5 7 -3 12 5 12 9 0 9 3 -2 10 -13 9
-13 10 0 10 13 0 13 1 0 10 -12 8 -12 10 -1 10 11 0 11 3 0 17 -12 15 -12 16
1 8 13 -8 13 -7 0 10 -9 11 -10 16 -2 11 6 -4 12 -2 12 3 0 6 -6 11 -12 11 -9
0 -8 4 2 10 13 9 13 10 0 10 -13 0 -13 1 0 10 13 9 13 10 0 10 -13 0 -13 1 0
10 12 8 13 13 2 30 -10 16 -10 20 0 20 9 0 8 3 -2 10 -13 9 -13 10 0 10 13 0
13 1 0 10 -10 6 -11 10 -2 10 7 0 12 13 12 30 0 17 -5 30 -12 30 -10 0 -9 3 1
9 11 7 11 9 0 14 -10 4 -10 6 -1 6 6 1 12 8 12 16 0 13 33 15 228 17 224 2
225 2 77 8 l-150 6 165 2 c109 1 160 -2 150 -8 -13 -8 -12 -10 3 -10 9 0 17 5
17 10 0 15 57 12 63 -2 4 -10 6 -10 6 0 1 7 14 12 32 12 21 0 28 -4 23 -12 -6
-10 -4 -10 7 -2 18 14 86 17 94 3 5 -7 11 -7 19 0 7 6 32 9 55 8 25 -2 49 3
57 10 9 10 13 10 16 1 5 -15 111 -14 116 2 3 7 9 4 18 -7 7 -10 14 -13 14 -6
0 7 7 10 16 6 9 -3 20 0 25 8 7 12 9 12 9 -1 0 -13 1 -13 10 0 7 10 10 11 10
2 0 -15 60 -13 60 3 0 5 5 3 10 -5 5 -8 10 -10 10 -4 0 6 7 11 15 11 8 0 15
-3 15 -7 0 -10 40 -6 41 5 0 5 4 1 9 -10 l9 -20 0 20 c1 17 3 17 11 5 5 -8 10
-10 10 -5 0 6 12 12 27 13 15 1 30 7 34 13 4 7 12 8 20 4 9 -6 11 -3 6 8 -5
12 -1 17 12 17 27 0 70 25 88 49 8 12 19 19 24 16 5 -4 9 1 9 9 0 10 9 16 23
17 21 1 21 1 -3 9 l-25 8 28 1 c15 1 27 6 27 12 0 5 5 7 10 4 6 -3 10 2 10 11
0 10 3 14 6 11 9 -9 45 33 38 44 -3 5 0 9 6 9 19 0 60 48 60 72 0 14 3 18 8
12 5 -9 10 -8 19 1 10 11 10 15 0 18 -7 3 -5 6 5 6 22 1 58 64 59 104 1 31 1
31 9 7 7 -22 8 -20 10 15 2 35 3 37 10 15 8 -24 8 -24 9 -2 1 12 7 22 14 22 8
0 7 4 -3 10 -12 8 -12 10 -1 10 8 0 11 3 8 6 -4 4 3 15 15 25 14 13 17 19 7
19 -10 1 -9 3 3 10 10 6 15 19 13 30 -2 11 0 20 6 20 5 0 9 21 10 48 0 35 3
42 9 27 7 -15 9 -10 9 23 1 26 5 41 11 37 9 -6 13 15 13 68 0 9 3 17 7 17 4 0
7 6 8 13 0 6 3 28 5 47 2 19 -1 38 -7 42 -7 5 -3 8 9 9 l20 0 -20 9 c-19 8
-19 9 -1 9 15 1 16 4 7 15 -9 11 -9 15 0 18 8 3 6 9 -5 21 -15 14 -15 17 -2
17 10 0 13 7 10 27 -3 15 -7 30 -10 35 -3 4 0 8 6 8 8 0 8 6 0 20 -8 15 -8 20
2 21 7 0 4 4 -7 9 -11 5 -15 9 -9 9 15 1 7 73 -9 83 -9 6 -8 8 3 8 13 0 13 1
0 10 -13 8 -13 10 -1 10 12 0 12 3 3 12 -7 7 -12 20 -12 30 0 10 -6 18 -12 18
-9 0 -8 4 2 10 10 6 11 10 3 10 -7 0 -12 3 -12 8 1 4 0 21 -1 37 l-2 30 -8
-30 c-7 -29 -8 -29 -9 10 -1 30 -4 36 -11 25 -5 -8 -10 -10 -10 -5 0 6 5 16
10 21 11 11 -8 64 -23 64 -5 0 -5 5 -2 10 3 6 1 10 -5 10 -6 0 -8 5 -5 10 3 6
-2 10 -12 10 -15 0 -16 2 -3 10 10 6 11 10 3 10 -7 0 -13 10 -13 23 0 18 -2
19 -10 7 -8 -13 -10 -13 -10 1 0 22 -29 79 -41 79 -5 0 -9 5 -9 11 0 14 -26
39 -41 39 -7 0 -10 3 -6 6 7 7 -64 80 -75 77 -4 -2 -10 6 -13 17 -4 11 -23 29
-43 41 -20 11 -28 18 -17 15 20 -6 20 -6 1 9 -11 8 -24 15 -29 15 -4 0 -6 4
-2 9 3 6 -5 15 -17 21 -22 11 -22 10 -4 -4 11 -9 16 -16 10 -16 -15 0 -30 14
-37 33 -4 10 -11 16 -16 13 -5 -4 -11 -3 -14 1 -2 5 -2 3 -1 -4 2 -7 -3 -10
-11 -6 -8 3 -13 9 -10 13 6 9 -21 7 -31 -3 -3 -3 -19 4 -35 15 -31 23 -89 32
-89 14 0 -7 -3 -8 -8 -1 -9 12 -62 14 -62 2 0 -4 -4 -6 -9 -3 -5 4 -12 0 -14
-6 -4 -10 -6 -10 -6 0 -1 7 -5 10 -11 7 -5 -3 -10 -1 -10 5 0 6 -5 8 -12 3
-21 -12 -38 -12 -39 0 -1 7 -5 1 -9 -13 -5 -16 -8 -19 -9 -8 -1 11 -8 16 -21
13 -11 -2 -20 1 -20 7 0 7 -6 6 -15 -2 -8 -7 -15 -9 -15 -4 0 5 -5 2 -10 -6
-6 -9 -10 -10 -10 -3 0 7 -10 10 -26 7 -19 -3 -24 -1 -18 8 6 10 4 10 -7 2 -8
-5 -21 -10 -29 -9 -8 0 -18 -6 -22 -15 -6 -13 -7 -13 -7 0 -1 11 -11 15 -33
15 -18 -1 -36 4 -40 9 -4 6 -8 0 -9 -14 0 -23 -1 -23 -9 -5 -6 13 -9 15 -9 5
-1 -9 -4 -11 -9 -5 -8 12 -82 14 -82 2 0 -5 -4 -6 -8 -3 -20 12 -62 14 -62 3
0 -7 -4 -6 -10 3 -9 13 -10 13 -10 0 0 -13 -1 -13 -10 0 -9 13 -10 13 -10 0 0
-9 -3 -11 -8 -5 -4 6 -28 10 -54 10 -27 0 -48 -4 -48 -10 0 -7 -3 -7 -8 0 -4
6 -14 10 -22 10 -8 0 -18 -4 -22 -10 -5 -6 -8 -4 -8 5 0 13 -1 13 -10 0 -9
-13 -10 -13 -10 0 0 13 -1 13 -10 0 -9 -13 -10 -13 -10 0 0 13 -1 13 -10 0 -6
-10 -10 -11 -10 -3 0 9 -7 10 -24 3 -17 -6 -26 -5 -30 3 -3 8 -5 8 -5 -2 -1
-11 -4 -11 -18 0 -15 12 -16 12 -8 -1 7 -12 6 -13 -6 -5 -20 15 -48 12 -59 -5
-8 -12 -10 -11 -10 5 0 17 -2 17 -10 5 -5 -8 -10 -10 -10 -4 0 8 -11 9 -35 4
-24 -5 -35 -4 -35 4 0 7 -3 8 -8 1 -8 -12 -22 -13 -39 -2 -7 5 -13 4 -13 0 0
-12 -244 -11 -252 2 -5 6 -8 6 -8 0 0 -6 -41 -10 -105 -10 -78 0 -108 -4 -114
-14 -7 -11 -9 -11 -14 0 -4 10 -6 10 -6 2 -1 -7 -7 -13 -15 -13 -17 0 -24 -18
-19 -50 2 -14 3 -32 3 -40 0 -8 0 -25 0 -38 0 -15 -4 -21 -12 -16 -7 5 -8 3
-2 -7 4 -8 9 -97 9 -199 0 -102 5 -191 9 -199 6 -9 5 -12 -1 -8 -6 4 -9 -24
-7 -76 1 -50 -3 -88 -10 -96 -8 -10 -8 -13 0 -8 8 4 11 -9 11 -43 -1 -26 -5
-46 -10 -43 -6 3 -6 -1 -1 -10 5 -9 7 -52 4 -96 -3 -45 -1 -81 3 -81 5 0 5
-10 2 -21 -6 -16 -4 -20 6 -14 11 6 12 5 2 -6 -15 -15 -17 -43 -3 -34 6 3 7
-1 4 -9 -3 -9 -10 -13 -15 -10 -5 3 -5 -5 -1 -18 5 -13 7 -44 7 -70 -1 -28 3
-48 8 -48 6 0 2 -6 -8 -14 -17 -13 -17 -14 -1 -23 17 -9 17 -10 1 -17 -14 -5
-15 -9 -6 -20 8 -9 8 -16 2 -20 -7 -5 -7 -15 -1 -31 5 -14 6 -25 2 -25 -4 0 0
-5 8 -10 11 -7 11 -10 2 -10 -7 0 -10 -4 -7 -10 3 -5 1 -10 -5 -10 -7 0 -8 -6
-2 -16 5 -9 7 -26 5 -38 -4 -17 -3 -18 6 -6 8 11 11 11 11 2 0 -7 -7 -15 -15
-18 -10 -4 -12 -11 -5 -23 5 -10 7 -32 5 -49 -2 -18 -1 -32 3 -32 12 0 13 -48
2 -55 -6 -3 -10 -11 -10 -16 0 -6 4 -8 9 -5 5 4 7 -3 4 -14 -3 -11 -10 -17
-17 -13 -6 3 -6 0 2 -8 14 -16 16 -43 2 -34 -6 4 -7 -2 -2 -17 7 -20 8 -43 2
-50 -8 -10 -5 -48 4 -48 7 0 7 -3 1 -8 -12 -9 -16 -64 -4 -56 5 3 9 0 9 -5 0
-6 -8 -11 -17 -11 -11 0 -14 -3 -8 -8 6 -4 11 -27 12 -51 0 -24 -3 -38 -7 -31
-4 6 -7 -2 -6 -19 1 -17 4 -31 9 -31 4 0 7 -5 7 -11 0 -5 -3 -8 -7 -6 -5 3 -8
-6 -8 -19 0 -13 3 -24 8 -24 4 0 7 -5 7 -11 0 -5 -4 -8 -9 -5 -5 4 -7 -3 -4
-13 3 -10 0 -28 -6 -40 -9 -16 -9 -21 0 -21 6 0 9 -9 6 -20 -3 -11 0 -20 6
-20 8 0 7 -3 -1 -9 -11 -7 -11 -9 2 -14 9 -4 16 -12 16 -19 0 -10 -2 -10 -9 0
-7 11 -9 11 -13 0 -6 -15 16 -40 28 -30 4 4 4 1 0 -6 -5 -9 -12 -10 -20 -3 -9
8 -12 -4 -12 -49 1 -33 5 -60 10 -60 6 0 1 -6 -10 -14 -18 -14 -18 -14 0 -13
10 1 21 -5 23 -13 4 -13 3 -13 -6 0 -12 17 -11 21 -14 -52 -1 -20 1 -34 6 -31
4 2 7 -1 7 -6 0 -6 -3 -11 -7 -11 -5 0 -8 -11 -8 -24 0 -13 3 -22 8 -19 4 2 7
-1 7 -6 0 -6 -6 -11 -12 -11 -7 0 -5 -5 5 -11 21 -12 22 -29 2 -29 -11 0 -13
-8 -8 -32 4 -18 7 -53 7 -78 0 -25 5 -48 10 -52 6 -4 6 -16 -2 -32 -7 -16 -8
-26 -2 -26 6 0 10 -8 10 -17 0 -14 -2 -15 -9 -5 -5 9 -8 3 -7 -17 1 -20 5 -29
13 -27 7 3 10 -1 6 -9 -3 -8 -8 -13 -12 -11 -3 2 -6 -7 -6 -20 0 -13 3 -24 7
-24 3 0 5 -8 4 -17 -2 -10 2 -21 8 -25 8 -6 7 -8 -1 -8 -7 0 -10 -6 -7 -13 3
-8 0 -26 -6 -41 -6 -17 -6 -25 0 -21 6 3 10 -1 10 -10 0 -9 -4 -14 -8 -11 -12
7 -9 -38 3 -46 6 -5 4 -8 -5 -8 -12 -1 -11 -3 3 -11 9 -5 17 -15 17 -22 0 -7
-4 -6 -10 3 -6 9 -10 10 -10 3 0 -6 -3 -20 -6 -30 -5 -15 -4 -15 5 -3 14 19
14 0 1 -35 -5 -14 -6 -24 -2 -21 4 2 8 -13 7 -35 0 -21 -4 -39 -10 -39 -5 0
-2 -5 8 -11 9 -5 17 -15 17 -22 0 -7 -4 -6 -10 3 -9 13 -10 13 -11 0 -6 -63
-4 -170 3 -170 5 0 4 -9 -2 -19 -13 -25 -13 -34 0 -26 6 3 10 1 10 -4 0 -6 -4
-11 -8 -11 -5 0 -7 -23 -6 -52 1 -28 -1 -46 -5 -40 -4 7 -7 -14 -7 -46 1 -31
5 -60 10 -64 6 -4 5 -17 -2 -32 -8 -18 -8 -26 -1 -26 7 0 8 -10 3 -27 -11 -39
-11 -97 0 -104 5 -4 4 -20 -2 -38 -7 -18 -7 -29 -2 -26 6 4 10 -1 10 -10 0 -9
-4 -14 -9 -11 -4 3 -6 -6 -3 -19 2 -15 9 -22 16 -18 6 3 6 0 -1 -8 -15 -15
-18 -43 -4 -35 5 3 11 -1 14 -9 4 -8 1 -12 -7 -9 -7 3 -12 -4 -12 -20 0 -14 4
-22 8 -20 4 3 8 0 8 -5 0 -6 -8 -11 -17 -12 -14 0 -13 -2 5 -9 12 -5 22 -15
22 -22 0 -9 -3 -9 -10 2 -7 11 -10 11 -10 2 0 -7 -5 -10 -12 -6 -7 4 -8 3 -4
-5 4 -6 8 -40 9 -75 1 -36 5 -62 9 -60 4 3 8 0 8 -5 0 -6 -4 -11 -10 -11 -5 0
-7 -7 -4 -15 4 -8 10 -12 15 -9 5 3 9 0 9 -5 0 -6 -6 -11 -13 -11 -8 0 -12
-14 -12 -39 0 -33 1 -36 12 -22 12 14 12 14 7 -3 -4 -10 -1 -22 7 -28 11 -8
11 -9 -2 -5 -12 4 -18 -2 -22 -18 -2 -14 0 -22 4 -19 5 3 9 0 9 -5 0 -6 -4
-11 -8 -11 -4 0 -8 -9 -8 -21 0 -19 1 -20 14 -2 14 17 14 17 8 0 -3 -10 -6
-23 -6 -28 0 -6 -4 -8 -9 -5 -4 3 -8 -8 -7 -24 1 -17 4 -30 7 -30 3 0 11 -12
18 -28 l12 -27 -21 25 -20 25 10 -29 c6 -16 9 -35 6 -42 -3 -7 0 -15 7 -18 7
-2 3 -5 -8 -6 -19 -1 -18 -2 3 -10 12 -5 22 -15 22 -22 0 -10 -2 -10 -9 0 -7
11 -10 10 -15 -3 -9 -24 -8 -27 7 -19 8 5 8 3 -2 -9 -11 -14 -11 -18 3 -23 15
-6 15 -8 -1 -19 -16 -12 -17 -14 -2 -20 9 -3 19 -20 23 -36 4 -20 10 -28 18
-24 7 4 4 -1 -6 -9 -17 -13 -18 -18 -6 -29 10 -10 11 -9 5 2 -6 10 -4 12 4 7
9 -6 9 -11 -1 -24 -11 -13 -11 -14 1 -7 11 6 13 4 8 -9 -4 -10 -3 -15 3 -11 6
3 10 1 10 -5 0 -6 4 -9 9 -6 4 3 23 -5 40 -19 18 -13 41 -22 51 -20 13 3 17
-1 13 -11 -3 -10 0 -12 10 -8 9 3 25 -4 36 -15 12 -12 30 -21 42 -21 11 0 18
-4 15 -9 -4 -5 4 -7 16 -3 15 4 19 2 13 -7 -5 -10 -2 -11 14 -6 16 5 21 2 22
-12 0 -10 3 -13 6 -5 2 6 12 12 21 12 13 0 14 -2 4 -9 -10 -6 -6 -11 17 -19
23 -8 31 -8 31 1 0 9 2 9 8 0 10 -16 62 -35 62 -23 0 6 5 10 11 10 5 0 8 -4 5
-9 -4 -5 18 -17 46 -26 29 -9 59 -18 66 -21 7 -2 10 1 7 6 -3 6 -1 10 4 10 6
0 11 -4 11 -9 0 -5 10 -7 22 -3 14 3 19 1 14 -6 -5 -8 -1 -10 9 -5 10 3 21 0
26 -8 7 -11 9 -10 9 5 0 20 0 20 16 0 8 -10 13 -13 9 -7 -4 8 0 13 10 13 9 0
14 -4 11 -9 -3 -5 17 -8 44 -7 28 0 50 -3 50 -9 0 -5 5 -2 11 8 5 9 15 17 22
17 7 0 6 -4 -3 -10 -13 -8 -12 -10 5 -11 57 -5 85 -3 85 6 0 7 3 7 8 0 4 -5
16 -10 27 -10 11 0 23 5 27 10 5 6 8 4 8 -4 0 -11 4 -10 16 5 8 10 13 14 10 7
-7 -13 29 -28 45 -18 6 4 70 9 142 12 73 2 138 9 145 15 7 6 15 8 19 4 3 -3 1
-6 -5 -6 -7 0 -12 -5 -12 -11 0 -5 4 -8 9 -5 4 3 34 6 65 7 33 1 56 7 56 13 0
7 3 7 8 -1 8 -13 29 -12 51 1 10 7 12 6 6 -4 -5 -8 -4 -11 3 -7 5 4 32 9 59
11 26 2 77 8 113 12 36 4 71 7 78 7 6 0 12 5 12 11 0 6 5 4 10 -4 7 -11 10
-11 10 -2 0 7 5 10 10 7 6 -3 10 0 10 7 0 9 3 9 10 -2 5 -8 10 -10 10 -4 0 6
16 10 35 9 19 -1 32 2 29 6 -3 5 13 9 36 9 25 0 39 4 35 10 -3 6 -1 10 4 10 6
0 11 -6 11 -12 0 -10 3 -9 9 1 7 11 9 11 14 0 4 -10 6 -10 6 -1 1 7 15 12 36
12 19 0 35 5 35 10 0 6 5 10 11 10 5 0 7 -5 3 -12 -5 -7 -3 -8 7 -2 8 4 19 9
24 10 6 1 26 5 45 9 19 4 45 8 57 9 11 0 19 5 15 10 -3 5 2 6 12 3 10 -4 19
-1 23 9 4 12 8 13 14 3 6 -10 11 -10 22 -1 7 7 17 8 21 4 4 -4 14 2 22 12 9
13 14 15 14 6 0 -9 5 -8 16 6 8 10 13 14 10 8 -3 -7 3 -9 19 -6 14 2 25 9 25
16 0 6 5 4 10 -4 8 -12 10 -12 10 -1 0 8 7 11 20 8 14 -4 20 0 20 11 0 15 2
15 10 2 5 -8 10 -10 10 -5 0 6 5 3 10 -5 5 -8 10 -10 10 -4 0 7 15 15 34 18
19 4 37 12 39 19 4 9 6 8 6 -1 1 -10 5 -10 17 2 8 9 20 14 25 10 5 -3 12 2 15
11 6 13 8 14 15 3 7 -10 9 -10 9 0 0 7 15 12 38 13 30 0 33 2 17 9 -16 7 -12
9 20 9 30 1 36 4 25 11 -11 7 -2 10 33 10 26 0 47 5 47 11 0 5 5 7 10 4 6 -3
10 2 11 12 0 10 3 13 6 6 7 -18 38 -16 53 2 11 13 15 13 21 3 6 -9 9 -5 10 12
0 14 3 19 6 13 2 -7 14 -13 26 -12 21 0 21 1 2 9 -17 7 -14 9 13 9 26 1 35 6
39 22 4 16 8 17 14 7 7 -10 9 -11 9 0 0 7 5 10 10 7 6 -3 10 -2 10 4 0 6 6 8
14 5 8 -3 25 6 39 20 17 17 27 21 30 13 4 -9 6 -9 6 1 1 6 11 12 24 12 18 0
19 2 7 10 -12 7 -8 10 15 11 26 0 28 2 10 10 -17 8 -16 9 8 6 20 -3 27 0 27
12 0 14 2 14 10 1 6 -10 10 -11 10 -2 0 6 7 12 15 12 9 0 27 11 41 25 14 14
33 25 42 26 11 1 8 4 -8 9 -23 7 -22 8 10 9 23 1 41 8 50 21 10 14 16 16 22 7
6 -9 8 -8 8 4 0 8 16 22 36 29 29 12 32 15 17 21 -14 6 -12 8 10 8 15 1 27 5
27 10 0 8 21 17 44 19 5 0 13 7 18 16 5 9 14 13 20 10 7 -4 8 -2 4 4 -4 8 0
12 11 12 15 0 16 2 3 10 -12 8 -9 10 12 10 16 0 33 9 42 22 9 12 16 18 16 13
0 -6 13 5 29 23 16 17 37 32 47 32 15 0 16 2 5 9 -11 7 -9 10 9 13 16 2 27 12
31 28 6 21 7 22 9 5 1 -19 2 -19 9 -2 4 10 11 19 16 20 6 1 9 5 7 10 -1 4 1 6
5 6 5 -1 17 -1 28 1 l20 1 -20 9 c-14 6 -15 9 -5 9 9 1 22 10 30 21 10 14 16
16 22 7 5 -8 8 -5 8 8 0 17 2 17 10 5 6 -9 10 -10 10 -3 0 7 11 23 25 37 16
16 20 26 12 29 -7 3 -2 6 11 6 12 1 22 6 22 12 0 5 4 8 9 5 13 -9 61 52 61 77
0 18 2 19 10 7 9 -13 10 -13 10 0 0 13 1 13 10 0 8 -13 10 -12 10 3 0 10 4 16
9 13 5 -3 12 1 15 10 3 8 10 12 16 9 5 -3 10 1 10 9 0 9 5 16 10 16 6 0 10 9
10 20 0 13 7 20 18 20 24 0 72 51 72 76 0 12 3 15 8 7 5 -8 15 -3 31 18 13 16
28 26 34 22 6 -3 7 -1 3 5 -4 7 -2 12 3 12 6 0 11 9 11 20 0 11 6 20 13 20 8
0 7 4 -3 10 -12 8 -9 10 13 10 20 0 30 6 34 20 3 11 9 17 14 14 8 -5 13 9 10
29 0 4 7 7 16 8 10 0 13 3 6 6 -10 3 -10 7 0 18 7 7 15 11 20 8 4 -2 7 6 8 19
0 22 1 22 9 3 l9 -20 1 20 c2 11 2 23 1 28 0 4 5 6 11 5 7 -2 12 3 10 10 -1 6
3 12 9 12 5 0 7 5 4 10 -3 6 0 10 8 10 10 0 13 9 10 28 -3 23 -2 24 6 7 9 -18
10 -18 10 -2 1 10 6 15 11 12 6 -3 10 1 10 9 0 9 6 16 13 16 8 0 7 4 -3 10
-12 8 -8 10 15 11 29 1 30 1 5 9 l-25 8 27 1 c21 1 26 5 23 20 -2 12 1 18 8
15 7 -2 21 13 32 33 11 21 26 42 33 46 7 5 10 12 7 18 -4 5 -1 9 5 9 6 0 8 5
5 10 -3 6 -1 10 5 10 6 0 8 5 5 10 -3 6 -1 10 4 10 6 0 27 33 47 72 20 40 42
76 48 80 6 4 7 8 3 8 -4 0 -2 10 5 23 7 12 12 26 13 30 0 4 6 11 13 16 8 5 14
12 14 17 0 21 41 103 49 98 5 -3 6 1 3 9 -7 18 30 89 41 79 4 -4 2 4 -5 17 -6
13 -7 21 -2 17 6 -3 13 3 17 14 3 11 11 20 16 20 6 0 8 4 4 9 -3 5 0 13 6 16
5 4 8 13 6 19 -3 7 3 19 14 26 14 11 15 16 6 22 -9 6 -9 8 1 8 7 0 12 14 12
38 0 27 3 33 10 22 9 -13 10 -13 11 0 1 8 1 18 0 23 0 4 4 7 10 7 5 0 7 5 4
10 -3 6 0 10 8 10 8 0 18 11 21 25 4 14 12 25 19 25 8 0 7 4 -3 10 -10 6 -11
10 -2 10 8 0 12 17 13 48 1 42 2 44 9 17 7 -26 8 -24 9 20 1 36 4 46 11 35 8
-12 10 -11 10 6 0 11 6 26 13 33 10 11 10 13 0 7 -18 -10 -16 2 3 22 11 10 13
17 5 20 -7 2 -6 9 4 19 16 16 21 38 6 29 -5 -4 -7 3 -4 14 3 11 10 20 16 20 6
0 7 3 4 6 -3 4 -2 15 3 25 7 12 6 19 -3 22 -7 3 -4 6 7 6 12 1 16 6 12 17 -3
8 1 29 10 45 8 17 13 36 10 42 -2 7 -5 4 -5 -5 -1 -9 -5 -19 -10 -22 -5 -4 -7
3 -4 15 3 11 11 23 18 26 7 2 12 18 11 34 -1 16 2 29 7 29 4 0 5 5 2 10 -3 6
-2 10 2 10 5 0 9 8 9 18 1 9 5 26 9 36 7 15 5 18 -6 12 -10 -5 -10 -4 1 6 16
14 20 32 8 43 -9 9 2 36 12 30 5 -3 12 0 16 6 5 8 3 9 -6 4 -10 -6 -11 -4 -5
11 4 10 9 31 10 46 2 14 6 31 10 37 3 6 2 11 -3 11 -5 0 -14 -10 -20 -22 -6
-13 -11 -17 -11 -10 -1 7 -5 10 -11 7 -6 -3 -7 1 -3 10 3 11 8 13 12 6 4 -6
15 3 26 21 16 28 17 31 1 25 -10 -4 -15 -3 -11 3 3 6 14 10 23 10 10 0 13 3 7
8 -15 11 -17 32 -2 32 8 0 7 4 -3 10 -10 6 -11 10 -3 10 15 0 13 21 -2 32 -6
5 -6 8 2 8 6 0 10 13 9 30 -1 17 2 30 6 30 5 0 5 8 -1 17 -5 11 -5 26 0 42 6
13 8 30 5 38 -3 7 -2 13 2 13 4 0 7 16 8 35 0 19 -4 35 -10 35 -6 0 -5 4 2 8
12 8 12 37 -1 58 -3 6 -3 14 0 18 11 10 11 46 0 46 -5 0 -4 6 2 14 9 10 9 16
1 21 -7 4 -7 11 -2 18 5 7 7 32 5 57 -2 25 -5 60 -6 78 -1 17 -6 32 -11 32 -6
0 -1 7 10 16 10 8 14 13 8 10 -7 -3 -14 0 -17 8 -3 8 1 17 9 20 21 8 6 29 -15
22 -14 -5 -14 -4 -1 7 23 18 25 41 3 33 -14 -6 -16 -5 -5 5 6 7 12 19 12 27 0
8 -5 10 -12 6 -8 -5 -7 0 2 11 11 14 12 19 2 22 -6 3 -9 10 -5 16 4 6 0 8 -10
4 -9 -3 -19 -2 -22 4 -4 5 -3 9 2 8 4 -1 17 -1 28 0 17 1 18 3 5 11 -11 7 -11
10 -2 10 9 0 10 6 4 18 -4 9 -8 40 -8 69 1 28 -2 49 -6 47 -3 -2 -6 10 -6 28
0 52 -1 60 -13 52 -7 -4 -7 1 1 15 8 17 8 26 0 36 -8 9 -8 15 0 20 7 4 8 11 2
18 -5 7 -9 25 -8 41 1 16 -4 31 -12 34 -11 4 -11 6 0 13 10 7 8 9 -7 10 l-20
0 20 9 c11 5 15 9 8 9 -7 1 -10 8 -6 17 4 11 -3 24 -18 36 -13 11 -19 17 -13
14 7 -3 15 1 18 10 3 8 2 13 -3 10 -5 -3 -12 1 -15 10 -3 8 -2 13 3 10 5 -3 8
5 7 18 0 13 -3 23 -6 21 -3 -2 -5 19 -5 46 0 30 -4 48 -10 45 -7 -2 -10 8 -9
25 1 16 -2 29 -7 29 -4 0 -6 7 -2 16 4 11 -3 24 -18 36 -23 18 -23 19 -1 8 26
-13 29 -3 5 17 -10 8 -13 12 -7 9 13 -6 10 50 -5 68 -8 9 -7 16 2 26 9 10 9
11 0 6 -8 -4 -13 -1 -13 8 0 9 -8 16 -17 17 -15 0 -15 2 2 9 11 5 14 9 7 9 -7
1 -10 6 -7 11 3 6 2 10 -4 10 -6 0 -7 7 -4 17 4 10 2 14 -4 10 -6 -4 -10 3
-10 18 0 15 4 22 11 19 6 -3 4 0 -4 8 -8 7 -16 24 -18 38 -1 14 -8 30 -16 35
-7 6 -11 16 -9 23 3 6 -4 12 -14 13 -11 0 -13 3 -5 6 10 4 9 9 -5 20 -11 9
-12 12 -3 8 8 -4 6 1 -4 9 -12 9 -14 16 -7 16 10 0 10 3 -1 15 -36 40 -38 43
-25 48 7 3 3 6 -8 6 -17 1 -17 3 -5 11 11 7 11 10 2 10 -7 0 -10 5 -7 10 3 6
1 10 -6 10 -6 0 -9 8 -6 20 3 11 2 18 -2 16 -4 -3 -13 15 -19 40 -7 25 -16 43
-20 40 -5 -3 -14 15 -20 40 -7 25 -16 43 -20 41 -4 -3 -13 1 -20 9 -11 12 -10
14 4 14 14 0 14 3 -4 19 -12 10 -19 21 -15 25 3 3 1 6 -6 6 -7 0 -9 5 -6 10 3
6 2 10 -3 10 -6 0 -13 17 -17 37 -4 25 -9 32 -15 23 -6 -10 -9 -7 -12 11 -2
13 -9 23 -15 22 -7 -2 -10 4 -6 12 3 9 -4 23 -16 34 -11 10 -18 21 -14 25 3 3
0 6 -8 6 -11 0 -11 2 1 10 13 8 12 10 -2 10 -11 0 -18 8 -18 19 0 10 -7 22
-16 25 -9 4 -14 13 -10 21 3 8 1 15 -4 15 -6 0 -10 6 -10 14 0 8 -10 22 -22
30 -12 9 -18 16 -13 16 5 0 0 7 -11 15 -16 13 -17 16 -4 25 13 8 13 10 -2 10
-10 0 -19 12 -23 31 -4 19 -10 27 -14 20 -5 -7 -13 5 -20 29 -6 22 -15 39 -19
36 -4 -2 -12 2 -19 9 -10 11 -10 15 0 18 7 3 6 6 -4 6 -9 1 -19 10 -22 22 -3
12 -10 18 -16 14 -6 -3 -11 -1 -11 4 0 6 5 11 10 11 6 0 1 9 -10 20 -11 11
-26 20 -32 20 -9 0 -8 4 2 10 13 8 12 10 -2 10 -10 0 -17 4 -15 9 1 5 -10 20
-25 34 -16 14 -28 28 -28 31 0 8 -27 41 -77 93 -24 25 -43 47 -43 50 0 3 -18
23 -40 45 -22 22 -40 44 -40 49 0 5 -7 9 -17 9 -9 0 -13 3 -10 6 4 4 -11 25
-33 47 -22 21 -40 43 -40 48 0 5 -5 8 -12 7 -7 -2 -12 2 -13 9 0 6 -4 15 -9
20 -5 5 -6 3 -2 -4 5 -9 0 -13 -16 -13 -16 0 -19 3 -10 9 11 7 11 9 -2 14 -9
4 -16 13 -16 21 0 11 -8 14 -27 12 -16 -2 -23 -2 -17 1 14 5 -35 63 -53 63 -6
0 -20 11 -31 25 -11 14 -28 25 -38 25 -9 0 -15 3 -11 6 8 8 -16 33 -25 27 -5
-2 -8 1 -8 6 0 6 -6 11 -14 11 -8 0 -18 9 -21 20 -4 11 -11 18 -16 15 -5 -4
-9 -1 -9 4 0 6 -9 11 -20 11 -11 0 -23 7 -26 15 -4 8 -18 15 -33 15 -14 0 -21
4 -15 8 6 4 4 13 -8 25 -10 9 -18 13 -18 7 0 -5 -8 -10 -17 -10 -11 0 -14 3
-7 8 6 4 4 13 -8 25 -10 9 -18 13 -18 7 0 -5 -8 -10 -17 -9 -11 0 -13 3 -5 6
16 6 -29 43 -52 43 -9 0 -16 8 -16 18 0 13 -2 14 -9 3 -7 -11 -10 -9 -16 8 -3
11 -14 21 -23 21 -15 0 -15 -2 -2 -11 13 -9 13 -10 0 -6 -8 2 -14 12 -14 21 1
11 -8 19 -29 23 -27 5 -28 7 -12 14 19 7 18 8 -2 8 -13 1 -23 6 -23 12 0 5 -4
7 -10 4 -5 -3 -10 -1 -10 4 0 6 -7 11 -15 11 -8 0 -15 5 -15 10 0 6 -6 10 -14
10 -7 0 -25 11 -39 24 -18 16 -34 23 -49 19 -17 -3 -19 -2 -9 5 9 7 10 12 2
16 -6 4 -11 4 -11 -1 0 -4 -5 0 -11 10 -5 9 -19 17 -29 17 -11 0 -20 4 -20 9
0 5 -10 7 -22 4 -19 -4 -20 -3 -8 6 13 10 13 11 0 12 -36 2 -54 9 -63 25 -8
13 -11 14 -18 3 -6 -10 -9 -11 -9 -1 0 6 -7 12 -16 12 -9 0 -12 5 -8 12 5 7 2
9 -8 5 -9 -3 -21 0 -27 6 -13 13 -16 14 -58 16 -22 1 -25 3 -13 11 13 8 13 10
-2 10 -9 0 -29 5 -45 12 -15 6 -37 10 -48 9 -15 -1 -17 0 -6 7 10 7 5 12 -20
17 -18 4 -39 14 -47 21 -7 8 -20 14 -28 14 -8 0 -14 4 -14 9 0 4 -11 6 -25 3
-15 -2 -25 0 -25 7 0 7 -4 9 -10 6 -5 -3 -10 -1 -10 4 0 6 -7 11 -15 11 -8 0
-15 6 -15 13 0 8 -4 7 -10 -3 -6 -10 -10 -11 -10 -3 0 7 -3 12 -7 11 -5 -1
-18 3 -30 10 -15 9 -23 9 -23 2 0 -6 -9 -2 -21 8 -12 12 -28 18 -41 14 -14 -3
-19 -1 -14 6 6 11 -50 32 -86 32 -10 0 -18 5 -18 11 0 5 -4 7 -10 4 -5 -3 -10
-1 -10 4 0 6 -11 11 -25 11 -14 0 -25 4 -25 10 0 5 -7 7 -16 3 -11 -4 -22 1
-30 12 -8 10 -14 13 -14 7 0 -7 -8 -12 -17 -12 -14 0 -15 2 -5 9 10 6 9 10 -7
14 -12 3 -21 1 -21 -4 0 -5 -8 -9 -17 -9 -14 0 -15 2 -4 9 15 10 4 15 -62 27
-20 3 -39 10 -42 14 -3 5 -14 6 -25 3 -12 -3 -20 0 -20 6 0 7 -4 9 -10 6 -17
-10 -81 6 -73 19 4 7 1 6 -9 -1 -8 -7 -17 -11 -19 -9 -10 10 -59 14 -59 5 0
-5 -8 -9 -17 -9 -14 0 -15 2 -5 9 11 7 10 10 -3 15 -23 8 -27 8 -20 -4 3 -5
-1 -10 -9 -10 -8 0 -20 8 -25 18 -6 9 -11 11 -11 5 0 -7 -7 -13 -16 -13 -8 0
-13 3 -10 8 2 4 -15 7 -39 7 -24 0 -41 -3 -38 -7 2 -5 -1 -8 -6 -8 -6 0 -11 6
-11 14 0 8 -13 16 -30 18 -16 3 -30 1 -30 -4 0 -14 -22 -9 -37 10 -8 9 -12 11
-8 5 4 -8 0 -13 -10 -13 -9 0 -14 4 -10 9 3 6 -4 8 -16 6 -12 -3 -39 -1 -60 4
-24 6 -39 5 -39 -1 0 -5 -16 -7 -37 -3 -24 3 -39 1 -45 -7 -6 -10 -8 -10 -8
-1 0 7 -7 10 -17 6 -11 -4 -14 -3 -9 5 4 7 6 11 4 11 -2 -1 -14 -4 -28 -6z
m-53 -29 c-3 -3 -12 -4 -19 -1 -8 3 -5 6 6 6 11 1 17 -2 13 -5z m-130 -10 c-3
-3 -12 -4 -19 -1 -8 3 -5 6 6 6 11 1 17 -2 13 -5z m180 0 c-3 -3 -12 -4 -19
-1 -8 3 -5 6 6 6 11 1 17 -2 13 -5z m170 0 c-3 -3 -12 -4 -19 -1 -8 3 -5 6 6
6 11 1 17 -2 13 -5z m196 -1 c-7 -2 -19 -2 -25 0 -7 3 -2 5 12 5 14 0 19 -2
13 -5z m-558 -35 c6 -4 2 -8 -7 -8 -10 0 -18 7 -18 17 0 9 3 12 8 7 4 -5 12
-12 17 -16z m452 16 c-3 -3 -12 -4 -19 -1 -8 3 -5 6 6 6 11 1 17 -2 13 -5z
m200 0 c-3 -3 -12 -4 -19 -1 -8 3 -5 6 6 6 11 1 17 -2 13 -5z m-150 -10 c-3
-3 -12 -4 -19 -1 -8 3 -5 6 6 6 11 1 17 -2 13 -5z m330 -10 c-3 -3 -12 -4 -19
-1 -8 3 -5 6 6 6 11 1 17 -2 13 -5z m0 -20 c-3 -3 -12 -4 -19 -1 -8 3 -5 6 6
6 11 1 17 -2 13 -5z m90 0 c-3 -3 -12 -4 -19 -1 -8 3 -5 6 6 6 11 1 17 -2 13
-5z m-347 -29 c0 -2 -9 -3 -19 -2 -11 0 -18 5 -15 9 4 6 34 0 34 -7z m457 9
c-3 -3 -12 -4 -19 -1 -8 3 -5 6 6 6 11 1 17 -2 13 -5z m50 -10 c-3 -3 -12 -4
-19 -1 -8 3 -5 6 6 6 11 1 17 -2 13 -5z m-267 -34 c0 -5 -5 -10 -11 -10 -5 0
-7 5 -4 10 3 6 8 10 11 10 2 0 4 -4 4 -10z m35 0 c3 -5 1 -10 -4 -10 -6 0 -11
5 -11 10 0 6 2 10 4 10 3 0 8 -4 11 -10z m139 -26 c3 -8 2 -12 -4 -9 -6 3 -10
10 -10 16 0 14 7 11 14 -7z m6 -34 c0 -5 -2 -10 -4 -10 -3 0 -8 5 -11 10 -3 6
-1 10 4 10 6 0 11 -4 11 -10z m60 -14 c0 -3 -4 -8 -10 -11 -5 -3 -10 -1 -10 4
0 6 5 11 10 11 6 0 10 -2 10 -4z m115 -6 c3 -5 1 -10 -4 -10 -6 0 -11 5 -11
10 0 6 2 10 4 10 3 0 8 -4 11 -10z m105 -40 c0 -5 -2 -10 -4 -10 -3 0 -8 5
-11 10 -3 6 -1 10 4 10 6 0 11 -4 11 -10z m35 -9 c3 -5 2 -12 -3 -15 -5 -3 -9
1 -9 9 0 17 3 19 12 6z m-1225 -107 c0 -8 -19 -13 -24 -6 -3 5 1 9 9 9 8 0 15
-2 15 -3z m1524 -3 c3 -5 -2 -15 -12 -22 -15 -12 -16 -12 -5 2 7 9 10 19 6 22
-3 4 -4 7 0 7 3 0 8 -4 11 -9z m-1289 -41 c-3 -5 -12 -10 -18 -10 -7 0 -6 4 3
10 19 12 23 12 15 0z m1622 -16 c-3 -3 -12 -4 -19 -1 -8 3 -5 6 6 6 11 1 17
-2 13 -5z m-1887 -18 c0 -3 -4 -8 -10 -11 -5 -3 -10 -1 -10 4 0 6 5 11 10 11
6 0 10 -2 10 -4z m185 -6 c-3 -5 -12 -10 -18 -10 -7 0 -6 4 3 10 19 12 23 12
15 0z m49 -2 c-3 -4 -11 -5 -19 -1 -21 7 -19 12 4 10 11 0 18 -5 15 -9z m1653
6 c-3 -3 -12 -4 -19 -1 -8 3 -5 6 6 6 11 1 17 -2 13 -5z m-187 -8 c0 -2 -8
-10 -17 -17 -16 -13 -17 -12 -4 4 13 16 21 21 21 13z m297 -52 c-3 -3 -12 -4
-19 -1 -8 3 -5 6 6 6 11 1 17 -2 13 -5z m110 -20 c-3 -3 -12 -4 -19 -1 -8 3
-5 6 6 6 11 1 17 -2 13 -5z m-147 -18 c0 -3 -4 -8 -10 -11 -5 -3 -10 -1 -10 4
0 6 5 11 10 11 6 0 10 -2 10 -4z m147 -2 c-3 -3 -12 -4 -19 -1 -8 3 -5 6 6 6
11 1 17 -2 13 -5z m-60 -10 c-3 -3 -12 -4 -19 -1 -8 3 -5 6 6 6 11 1 17 -2 13
-5z m50 -10 c-3 -3 -12 -4 -19 -1 -8 3 -5 6 6 6 11 1 17 -2 13 -5z m-2114 -11
c-7 -2 -19 -2 -25 0 -7 3 -2 5 12 5 14 0 19 -2 13 -5z m110 0 c-7 -2 -19 -2
-25 0 -7 3 -2 5 12 5 14 0 19 -2 13 -5z m174 -9 c-3 -3 -12 -4 -19 -1 -8 3 -5
6 6 6 11 1 17 -2 13 -5z m1950 -20 c-3 -3 -12 -4 -19 -1 -8 3 -5 6 6 6 11 1
17 -2 13 -5z m-64 -11 c-7 -2 -19 -2 -25 0 -7 3 -2 5 12 5 14 0 19 -2 13 -5z
m-1566 -9 c-3 -3 -12 -4 -19 -1 -8 3 -5 6 6 6 11 1 17 -2 13 -5z m1630 0 c-3
-3 -12 -4 -19 -1 -8 3 -5 6 6 6 11 1 17 -2 13 -5z m50 -10 c-3 -3 -12 -4 -19
-1 -8 3 -5 6 6 6 11 1 17 -2 13 -5z m70 -50 c-3 -3 -12 -4 -19 -1 -8 3 -5 6 6
6 11 1 17 -2 13 -5z m-980 -33 c0 -11 -5 -18 -9 -15 -4 3 -5 11 -1 19 7 21 12
19 10 -4z m23 -31 c0 -5 -5 -10 -11 -10 -5 0 -7 5 -4 10 3 6 8 10 11 10 2 0 4
-4 4 -10z m-227 -27 c-7 -2 -19 -2 -25 0 -7 3 -2 5 12 5 14 0 19 -2 13 -5z
m47 -3 c0 -5 -5 -10 -11 -10 -5 0 -7 5 -4 10 3 6 8 10 11 10 2 0 4 -4 4 -10z
m-93 -6 c-3 -3 -12 -4 -19 -1 -8 3 -5 6 6 6 11 1 17 -2 13 -5z m0 -20 c-3 -3
-12 -4 -19 -1 -8 3 -5 6 6 6 11 1 17 -2 13 -5z m150 -10 c-3 -3 -12 -4 -19 -1
-8 3 -5 6 6 6 11 1 17 -2 13 -5z m98 -34 c-3 -5 -12 -10 -18 -10 -7 0 -6 4 3
10 19 12 23 12 15 0z m240 -19 c3 -5 2 -12 -3 -15 -5 -3 -9 1 -9 9 0 17 3 19
12 6z m-137 -46 c-3 -3 -9 2 -12 12 -6 14 -5 15 5 6 7 -7 10 -15 7 -18z m217
5 c3 -5 1 -10 -4 -10 -6 0 -11 5 -11 10 0 6 2 10 4 10 3 0 8 -4 11 -10z m942
-6 c-3 -3 -12 -4 -19 -1 -8 3 -5 6 6 6 11 1 17 -2 13 -5z m-877 -34 c0 -5 -5
-10 -11 -10 -5 0 -7 5 -4 10 3 6 8 10 11 10 2 0 4 -4 4 -10z m-180 -20 c0 -5
-8 -10 -17 -10 -15 0 -16 2 -3 10 19 12 20 12 20 0z m17 -12 c-3 -8 -6 -5 -6
6 -1 11 2 17 5 13 3 -3 4 -12 1 -19z m220 7 c0 -8 -4 -12 -9 -9 -5 3 -6 10 -3
15 9 13 12 11 12 -6z m1010 -31 c-3 -3 -12 -4 -19 -1 -8 3 -5 6 6 6 11 1 17
-2 13 -5z m-750 -260 c-3 -3 -12 -4 -19 -1 -8 3 -5 6 6 6 11 1 17 -2 13 -5z
m884 -41 c13 -16 12 -17 -3 -4 -10 7 -18 15 -18 17 0 8 8 3 21 -13z m-764 1
c-3 -3 -12 -4 -19 -1 -8 3 -5 6 6 6 11 1 17 -2 13 -5z m-70 -10 c-3 -3 -12 -4
-19 -1 -8 3 -5 6 6 6 11 1 17 -2 13 -5z m269 -96 c3 -4 -1 -5 -10 -4 -8 1 -18
5 -22 8 -3 4 1 5 10 4 8 -1 18 -5 22 -8z m-79 -54 c-3 -3 -12 -4 -19 -1 -8 3
-5 6 6 6 11 1 17 -2 13 -5z m868 -24 c3 -6 -1 -7 -9 -4 -18 7 -21 14 -7 14 6
0 13 -4 16 -10z m-645 -14 c0 -3 -4 -8 -10 -11 -5 -3 -10 -1 -10 4 0 6 5 11
10 11 6 0 10 -2 10 -4z m-22 -51 c-3 -3 -9 2 -12 12 -6 14 -5 15 5 6 7 -7 10
-15 7 -18z m47 -35 c3 -6 -1 -7 -9 -4 -18 7 -21 14 -7 14 6 0 13 -4 16 -10z
m80 -60 c3 -6 -1 -7 -9 -4 -18 7 -21 14 -7 14 6 0 13 -4 16 -10z m-128 -6 c-3
-3 -12 -4 -19 -1 -8 3 -5 6 6 6 11 1 17 -2 13 -5z m198 -74 c3 -5 1 -10 -4
-10 -6 0 -11 5 -11 10 0 6 2 10 4 10 3 0 8 -4 11 -10z m690 1 c-9 -8 -36 -10
-30 -2 2 4 11 8 20 8 8 0 13 -3 10 -6z m-787 -62 c-3 -8 -7 -3 -11 10 -4 17
-3 21 5 13 5 -5 8 -16 6 -23z m236 -57 c2 -4 -5 -9 -17 -9 -17 -2 -19 0 -7 7
18 12 18 12 24 2z m41 -122 c3 -5 1 -10 -4 -10 -6 0 -11 5 -11 10 0 6 2 10 4
10 3 0 8 -4 11 -10z m40 0 c3 -5 1 -10 -4 -10 -6 0 -11 5 -11 10 0 6 2 10 4
10 3 0 8 -4 11 -10z m2 -72 c2 -17 0 -19 -7 -8 -5 8 -6 18 -4 22 8 12 10 10
11 -14z m60 -5 c-4 -3 -1 -13 6 -22 11 -14 10 -14 -5 -2 -16 12 -16 31 -1 31
4 0 3 -3 0 -7z m120 -276 c0 -8 -6 -14 -14 -14 -9 0 -10 4 -2 14 6 7 12 13 14
13 1 0 2 -6 2 -13z m603 -27 c0 -5 -2 -10 -4 -10 -3 0 -8 5 -11 10 -3 6 -1 10
4 10 6 0 11 -4 11 -10z m157 -22 c-3 -8 -6 -5 -6 6 -1 11 2 17 5 13 3 -3 4
-12 1 -19z m-119 -23 c-3 -3 -9 2 -12 12 -6 14 -5 15 5 6 7 -7 10 -15 7 -18z
m159 -57 c-3 -8 -6 -5 -6 6 -1 11 2 17 5 13 3 -3 4 -12 1 -19z m-717 8 c0 -3
-4 -8 -10 -11 -5 -3 -10 -1 -10 4 0 6 5 11 10 11 6 0 10 -2 10 -4z m31 -79
c-10 -9 -11 -8 -5 6 3 10 9 15 12 12 3 -3 0 -11 -7 -18z m9 -47 c0 -5 -5 -10
-11 -10 -5 0 -7 5 -4 10 3 6 8 10 11 10 2 0 4 -4 4 -10z m50 -56 c0 -8 -19
-13 -24 -6 -3 5 1 9 9 9 8 0 15 -2 15 -3z m-9 -41 c13 -16 12 -17 -3 -4 -10 7
-18 15 -18 17 0 8 8 3 21 -13z m782 -93 c3 -11 1 -18 -4 -14 -5 3 -9 12 -9 20
0 20 7 17 13 -6z m-723 -10 c0 -5 -5 -10 -11 -10 -5 0 -7 5 -4 10 3 6 8 10 11
10 2 0 4 -4 4 -10z m6 -38 c-17 -16 -18 -16 -5 5 7 12 15 20 18 17 3 -2 -3
-12 -13 -22z m614 -22 c0 -5 -5 -10 -11 -10 -5 0 -7 5 -4 10 3 6 8 10 11 10 2
0 4 -4 4 -10z m-562 -125 c-3 -3 -9 2 -12 12 -6 14 -5 15 5 6 7 -7 10 -15 7
-18z m602 5 c0 -5 -2 -10 -4 -10 -3 0 -8 5 -11 10 -3 6 -1 10 4 10 6 0 11 -4
11 -10z m40 -114 c0 -2 -7 -7 -16 -10 -8 -3 -12 -2 -9 4 6 10 25 14 25 6z
m-699 -33 c-12 -20 -14 -14 -5 12 4 9 9 14 11 11 3 -2 0 -13 -6 -23z m813 -59
c3 -8 2 -12 -4 -9 -6 3 -10 10 -10 16 0 14 7 11 14 -7z m-4529 -94 c-3 -5 -12
-10 -18 -10 -7 0 -6 4 3 10 19 12 23 12 15 0z m-264 -17 c13 -16 12 -17 -3 -4
-10 7 -18 15 -18 17 0 8 8 3 21 -13z m56 -8 c0 -8 -4 -12 -9 -9 -5 3 -6 10 -3
15 9 13 12 11 12 -6z m580 -10 c0 -8 -4 -12 -9 -9 -5 3 -6 10 -3 15 9 13 12
11 12 -6z m-416 -12 c13 -16 12 -17 -3 -4 -10 7 -18 15 -18 17 0 8 8 3 21 -13z
m194 7 c3 -5 1 -10 -4 -10 -6 0 -11 5 -11 10 0 6 2 10 4 10 3 0 8 -4 11 -10z
m40 1 c3 -5 2 -12 -3 -15 -5 -3 -9 1 -9 9 0 17 3 19 12 6z m120 -9 c-3 -3 -11
0 -18 7 -9 10 -8 11 6 5 10 -3 15 -9 12 -12z m-685 -32 c-8 -5 -10 -10 -5 -10
6 0 8 -44 5 -122 l-5 -123 -5 125 c-5 135 -5 140 13 140 7 0 6 -4 -3 -10z
m203 3 c-29 -2 -78 -2 -110 0 -32 2 -8 3 52 3 61 0 87 -1 58 -3z m120 0 c-7
-2 -19 -2 -25 0 -7 3 -2 5 12 5 14 0 19 -2 13 -5z m50 -20 c-62 -2 -164 -2
-225 0 -62 1 -12 3 112 3 124 0 174 -2 113 -3z m195 0 c-16 -2 -40 -2 -55 0
-16 2 -3 4 27 4 30 0 43 -2 28 -4z m150 0 c-21 -2 -57 -2 -80 0 -24 2 -7 4 37
4 44 0 63 -2 43 -4z m-608 -23 c-13 -8 -12 -10 3 -10 9 0 17 5 17 10 0 7 116
9 333 8 l332 -3 -330 -5 -330 -5 440 -4 c250 -3 410 -8 370 -11 l-70 -7 78 1
c42 0 77 -2 77 -6 0 -4 11 -10 25 -14 14 -3 25 -11 25 -18 0 -6 5 -4 10 4 6
10 10 11 10 3 0 -7 9 -13 21 -13 11 0 17 -4 14 -10 -3 -5 3 -10 15 -10 12 0
18 -4 15 -10 -3 -5 1 -10 9 -10 9 0 16 -6 16 -12 0 -9 4 -8 10 2 8 12 10 9 10
-12 0 -24 4 -28 28 -28 17 0 22 -3 15 -8 -9 -6 -7 -12 7 -22 11 -8 20 -24 21
-35 1 -17 2 -16 9 5 7 22 8 21 9 -12 1 -29 5 -38 19 -38 14 0 15 -2 2 -10 -12
-8 -12 -10 -1 -10 8 0 11 -3 8 -6 -3 -4 -1 -16 5 -28 7 -11 11 -24 10 -28 -1
-5 6 -8 16 -8 14 0 15 -2 2 -10 -10 -6 -11 -10 -2 -10 8 0 12 -17 13 -47 1
-43 2 -45 9 -18 4 17 8 -50 8 -155 0 -105 -4 -172 -8 -155 -7 29 -8 29 -10
-10 -1 -32 -3 -36 -10 -20 -7 17 -9 16 -10 -10 -2 -16 -2 -33 -1 -37 0 -5 -5
-8 -12 -8 -9 0 -8 -3 2 -9 11 -7 9 -10 -7 -15 -14 -5 -18 -13 -15 -26 3 -12 0
-20 -6 -20 -7 0 -10 -4 -6 -9 3 -5 -2 -16 -10 -24 -8 -9 -15 -18 -15 -22 0
-11 -49 -55 -62 -55 -9 0 -9 -3 2 -10 13 -8 12 -10 -3 -10 -10 0 -20 -7 -23
-15 -4 -8 -12 -15 -18 -15 -7 0 -22 -9 -34 -20 -23 -22 -48 -27 -36 -8 4 7 3
8 -4 4 -6 -4 -9 -13 -6 -20 3 -8 -4 -16 -15 -19 -14 -3 -19 -1 -15 6 3 7 0 5
-8 -4 -7 -9 -19 -14 -27 -11 -8 2 -11 0 -8 -5 8 -13 -26 -12 -35 1 -5 8 -8 8
-8 0 0 -16 -95 -10 -117 7 -16 12 -17 12 -6 -1 10 -13 5 -15 -28 -15 -21 0
-39 5 -40 10 0 6 -4 1 -9 -10 l-9 -20 0 20 c-1 17 -3 17 -11 5 -7 -11 -10 -11
-10 -2 0 7 -4 11 -8 8 -20 -12 -62 -14 -62 -3 0 7 -4 6 -10 -3 -9 -13 -10 -13
-10 0 0 12 -2 12 -9 1 -6 -9 -11 -10 -15 -2 -5 8 -13 8 -27 1 -13 -8 -19 -7
-19 0 0 7 -6 8 -19 1 -10 -6 -21 -7 -25 -4 -12 12 -36 12 -36 0 0 -7 -5 -5
-10 3 -9 13 -10 13 -10 0 0 -13 -1 -13 -10 0 -9 13 -10 13 -10 0 0 -13 -1 -13
-10 0 -8 12 -10 12 -10 1 0 -11 -3 -11 -15 -1 -12 10 -15 10 -15 -1 0 -11 -2
-11 -10 1 -9 13 -10 13 -10 0 0 -13 -1 -13 -10 0 -9 13 -10 13 -10 0 0 -13 -1
-13 -10 0 -9 13 -10 13 -10 0 0 -13 -1 -13 -10 0 -9 13 -11 13 -20 0 -8 -12
-10 -12 -10 5 0 17 -2 17 -10 5 -5 -8 -10 -10 -11 -5 0 6 -4 1 -9 -10 -6 -15
-9 -16 -9 -4 -1 11 -10 15 -36 14 -20 -1 -35 3 -36 9 0 6 -4 2 -9 -9 -5 -11
-9 -15 -9 -9 -1 6 -16 10 -36 9 -19 -1 -35 3 -35 9 0 6 -5 4 -10 -4 -5 -8 -10
-10 -10 -5 0 6 -5 3 -10 -5 -8 -12 -10 -12 -10 5 0 15 -3 17 -9 7 -11 -19 -15
-19 -34 -3 -14 11 -17 11 -18 0 0 -10 -2 -11 -6 -1 -2 6 -8 10 -12 8 -11 -7
-7 38 4 46 6 5 6 8 -1 8 -6 0 -11 7 -11 15 0 8 3 15 7 15 3 0 6 9 7 20 1 11
-4 20 -10 20 -7 0 -6 4 3 10 13 9 13 10 0 10 -13 0 -13 1 0 10 13 9 13 10 0
10 -9 0 -11 3 -5 8 14 9 14 82 1 83 -6 0 -2 4 9 9 11 5 15 9 8 9 -7 1 -10 7
-8 14 3 6 6 47 8 90 2 64 0 77 -13 78 -8 1 -4 5 10 9 14 4 20 8 13 9 -14 1
-13 41 2 41 6 0 7 3 0 8 -14 10 -15 52 -1 52 6 0 4 5 -4 10 -13 9 -13 11 0 20
13 9 13 10 0 10 -13 0 -13 1 0 10 13 9 13 10 0 10 -13 0 -13 1 0 10 13 9 13
10 0 10 -13 0 -13 1 0 10 13 9 13 10 0 10 -13 0 -13 1 0 10 13 9 13 11 0 20
-10 6 -11 10 -2 10 6 0 12 7 12 15 0 8 -6 15 -12 16 -9 0 -9 2 1 6 11 5 11 7
0 14 -10 6 -11 9 -1 9 6 0 12 5 12 11 0 5 -6 7 -12 3 -10 -6 -10 -5 0 8 8 11
12 62 13 172 l1 156 31 1 32 2 -35 7 c-33 7 -32 7 15 9 36 0 46 -2 35 -9z
m717 4 c-3 -3 -12 -4 -19 -1 -8 3 -5 6 6 6 11 1 17 -2 13 -5z m46 -1 c-7 -2
-19 -2 -25 0 -7 3 -2 5 12 5 14 0 19 -2 13 -5z m352 -3 c3 -5 1 -10 -4 -10 -6
0 -11 5 -11 10 0 6 2 10 4 10 3 0 8 -4 11 -10z m3725 -41 c-12 -22 -16 -23
-26 -7 -5 7 -3 8 6 3 10 -6 12 -4 7 7 -6 18 1 30 14 22 5 -3 4 -14 -1 -25z
m-4933 -46 c-3 -10 -5 -2 -5 17 0 19 2 27 5 18 2 -10 2 -26 0 -35z m1373 31
c0 -8 -19 -13 -24 -6 -3 5 1 9 9 9 8 0 15 -2 15 -3z m-1373 -106 c-3 -7 -5 -2
-5 12 0 14 2 19 5 13 2 -7 2 -19 0 -25z m-427 -2 c0 -2 -8 -10 -17 -17 -16
-13 -17 -12 -4 4 13 16 21 21 21 13z m1727 -68 c-3 -8 -6 -5 -6 6 -1 11 2 17
5 13 3 -3 4 -12 1 -19z m3593 -48 c0 -5 -5 -10 -11 -10 -5 0 -7 5 -4 10 3 6 8
10 11 10 2 0 4 -4 4 -10z m-5000 -40 c0 -5 -2 -10 -4 -10 -3 0 -8 5 -11 10 -3
6 -1 10 4 10 6 0 11 -4 11 -10z m5088 -35 c-3 -3 -9 2 -12 12 -6 14 -5 15 5 6
7 -7 10 -15 7 -18z m12 -26 c0 -15 -18 -19 -23 -6 -3 8 1 14 9 14 8 0 14 -4
14 -8z m0 -41 c0 -4 -4 -8 -9 -8 -6 0 -12 4 -15 8 -3 5 1 9 9 9 8 0 15 -4 15
-9z m-3603 -250 c-2 -35 -3 -7 -3 62 0 69 1 97 3 63 2 -35 2 -91 0 -125z m20
130 c-3 -8 -6 -5 -6 6 -1 11 2 17 5 13 3 -3 4 -12 1 -19z m3577 -24 c3 -8 2
-12 -4 -9 -6 3 -10 10 -10 16 0 14 7 11 14 -7z m-3577 -71 c-2 -16 -4 -3 -4
27 0 30 2 43 4 28 2 -16 2 -40 0 -55z m3523 3 c0 -2 -7 -7 -16 -10 -8 -3 -12
-2 -9 4 6 10 25 14 25 6z m-3133 -268 c-2 -13 -4 -5 -4 17 -1 22 1 32 4 23 2
-10 2 -28 0 -40z m-2359 -533 c-3 -3 -9 2 -12 12 -6 14 -5 15 5 6 7 -7 10 -15
7 -18z m747 -64 c3 -5 2 -12 -3 -15 -5 -3 -9 1 -9 9 0 17 3 19 12 6z m-218
-16 c0 -8 -7 -15 -15 -15 -12 0 -12 3 -2 15 7 8 13 15 15 15 1 0 2 -7 2 -15z
m5013 7 c0 -5 -7 -17 -15 -28 -14 -18 -14 -17 -4 9 12 27 19 34 19 19z m-4870
-12 c0 -5 -5 -10 -11 -10 -5 0 -7 5 -4 10 3 6 8 10 11 10 2 0 4 -4 4 -10z
m-82 -57 c-10 -2 -28 -2 -40 0 -13 2 -5 4 17 4 22 1 32 -1 23 -4z m220 0 c-16
-2 -40 -2 -55 0 -16 2 -3 4 27 4 30 0 43 -2 28 -4z m75 0 c-7 -2 -21 -2 -30 0
-10 3 -4 5 12 5 17 0 24 -2 18 -5z m155 0 c-21 -2 -55 -2 -75 0 -21 2 -4 4 37
4 41 0 58 -2 38 -4z m99 1 c-3 -3 -12 -4 -19 -1 -8 3 -5 6 6 6 11 1 17 -2 13
-5z m-519 -21 c-21 -2 -57 -2 -80 0 -24 2 -7 4 37 4 44 0 63 -2 43 -4z m4855
-30 c-3 -7 -6 -13 -8 -13 -2 0 -5 6 -8 13 -3 8 1 14 8 14 7 0 11 -6 8 -14z
m-43 -7 c0 -3 -4 -8 -10 -11 -5 -3 -10 -1 -10 4 0 6 5 11 10 11 6 0 10 -2 10
-4z m63 -19 c3 -8 -1 -14 -8 -14 -7 0 -11 6 -8 14 3 7 6 13 8 13 2 0 5 -6 8
-13z m-5046 -74 c-3 -10 -5 -2 -5 17 0 19 2 27 5 18 2 -10 2 -26 0 -35z m5034
24 c-10 -9 -11 -8 -5 6 3 10 9 15 12 12 3 -3 0 -11 -7 -18z m-71 -11 c0 -3 -4
-8 -10 -11 -5 -3 -10 -1 -10 4 0 6 5 11 10 11 6 0 10 -2 10 -4z m-4963 -98
c-2 -13 -4 -3 -4 22 0 25 2 35 4 23 2 -13 2 -33 0 -45z m-470 0 c-3 -8 -6 -5
-6 6 -1 11 2 17 5 13 3 -3 4 -12 1 -19z m5408 -8 c3 -5 1 -10 -4 -10 -6 0 -11
5 -11 10 0 6 2 10 4 10 3 0 8 -4 11 -10z m-18 -45 c0 -8 -4 -12 -9 -9 -5 3 -6
10 -3 15 9 13 12 11 12 -6z m-72 -115 c-3 -5 -12 -10 -18 -10 -7 0 -6 4 3 10
19 12 23 12 15 0z m-5298 -212 c-3 -8 -6 -5 -6 6 -1 11 2 17 5 13 3 -3 4 -12
1 -19z m5190 7 c0 -8 -4 -12 -9 -9 -5 3 -6 10 -3 15 9 13 12 11 12 -6z m150
-37 c-3 -8 -6 -5 -6 6 -1 11 2 17 5 13 3 -3 4 -12 1 -19z m-5350 -120 c-3 -8
-6 -5 -6 6 -1 11 2 17 5 13 3 -3 4 -12 1 -19z m5020 -83 c0 -8 -4 -12 -9 -9
-5 3 -6 10 -3 15 9 13 12 11 12 -6z m-767 -389 c0 -2 -8 -10 -17 -17 -16 -13
-17 -12 -4 4 13 16 21 21 21 13z m-4238 -280 c7 4 8 2 4 -5 -9 -13 -26 -5 -25
12 0 9 2 8 6 -1 2 -6 10 -9 15 -6z m4645 -211 c0 -8 -4 -12 -9 -9 -5 3 -6 10
-3 15 9 13 12 11 12 -6z m-4664 -130 c-3 -9 -8 -14 -10 -11 -3 3 -2 9 2 15 9
16 15 13 8 -4z m4467 -101 c0 -8 -19 -13 -24 -6 -3 5 1 9 9 9 8 0 15 -2 15 -3z
m-260 -58 c0 -2 -7 -7 -16 -10 -8 -3 -12 -2 -9 4 6 10 25 14 25 6z m-4213 -38
c-3 -8 -6 -5 -6 6 -1 11 2 17 5 13 3 -3 4 -12 1 -19z m4308 13 c3 -6 -5 -15
-17 -21 -21 -10 -21 -10 -6 3 10 8 15 17 11 20 -3 4 -4 7 0 7 3 0 8 -4 12 -9z
m80 0 c3 -5 2 -12 -3 -15 -5 -3 -9 1 -9 9 0 17 3 19 12 6z m-125 -77 c0 -8
-19 -13 -24 -6 -3 5 1 9 9 9 8 0 15 -2 15 -3z m97 -26 c-3 -7 -5 -2 -5 12 0
14 2 19 5 13 2 -7 2 -19 0 -25z m-127 -62 c-7 -7 -13 -7 -20 0 -6 6 -3 10 10
10 13 0 16 -4 10 -10z m47 -2 c-3 -3 -12 -4 -19 -1 -8 3 -5 6 6 6 11 1 17 -2
13 -5z m-227 -14 c0 -5 -2 -10 -4 -10 -3 0 -8 5 -11 10 -3 6 -1 10 4 10 6 0
11 -4 11 -10z m37 -85 c0 -8 -4 -12 -9 -9 -5 3 -6 10 -3 15 9 13 12 11 12 -6z
m-4064 -115 c-3 -12 -8 -19 -11 -16 -5 6 5 36 12 36 2 0 2 -9 -1 -20z m3907
-34 c0 -3 -4 -8 -10 -11 -5 -3 -10 -1 -10 4 0 6 5 11 10 11 6 0 10 -2 10 -4z
m-140 -26 c0 -5 -5 -10 -11 -10 -5 0 -7 5 -4 10 3 6 8 10 11 10 2 0 4 -4 4
-10z m-1098 -80 c-20 -20 -25 -19 -17 2 3 8 12 15 20 15 12 0 11 -4 -3 -17z
m1145 -86 c-3 -3 -12 -4 -19 -1 -8 3 -5 6 6 6 11 1 17 -2 13 -5z m-3212 -62
c-3 -3 -11 0 -18 7 -9 10 -8 11 6 5 10 -3 15 -9 12 -12z m1319 -58 c3 -8 2
-12 -4 -9 -6 3 -10 10 -10 16 0 14 7 11 14 -7z m-998 -25 c3 -6 -5 -3 -20 6
-14 10 -26 19 -26 22 0 7 39 -17 46 -28z m1035 -2 c-10 -9 -11 -8 -5 6 3 10 9
15 12 12 3 -3 0 -11 -7 -18z m-94 -2 c0 -8 -4 -15 -9 -15 -10 0 -11 14 -1 23
9 10 10 9 10 -8z m-577 -5 c0 -5 -2 -10 -4 -10 -3 0 -8 5 -11 10 -3 6 -1 10 4
10 6 0 11 -4 11 -10z m44 1 c4 -5 -3 -7 -14 -4 -23 6 -26 13 -6 13 8 0 17 -4
20 -9z m491 -9 c-3 -3 -11 0 -18 7 -9 10 -8 11 6 5 10 -3 15 -9 12 -12z m106
-5 c-10 -9 -11 -8 -5 6 3 10 9 15 12 12 3 -3 0 -11 -7 -18z m-1087 -113 c3 -8
2 -12 -4 -9 -6 3 -10 10 -10 16 0 14 7 11 14 -7z m401 -34 c3 -5 1 -10 -4 -10
-6 0 -11 5 -11 10 0 6 2 10 4 10 3 0 8 -4 11 -10z m1908 -87 c-7 -2 -19 -2
-25 0 -7 3 -2 5 12 5 14 0 19 -2 13 -5z m-2556 -359 c-3 -3 -12 -4 -19 -1 -8
3 -5 6 6 6 11 1 17 -2 13 -5z"/>
<path d="M4568 5323 c6 -2 18 -2 25 0 6 3 1 5 -13 5 -14 0 -19 -2 -12 -5z"/>
<path d="M4643 5323 c9 -2 25 -2 35 0 9 3 1 5 -18 5 -19 0 -27 -2 -17 -5z"/>
<path d="M5191 4644 c0 -11 3 -14 6 -6 3 7 2 16 -1 19 -3 4 -6 -2 -5 -13z"/>
<path d="M4775 4210 c3 -5 8 -10 11 -10 2 0 4 5 4 10 0 6 -5 10 -11 10 -5 0
-7 -4 -4 -10z"/>
<path d="M4440 8710 c-13 -8 -12 -10 3 -10 9 0 17 5 17 10 0 12 -1 12 -20 0z"/>
<path d="M3460 8030 c-9 -6 -10 -10 -3 -10 6 0 15 5 18 10 8 12 4 12 -15 0z"/>
<path d="M3100 7870 c-9 -6 -10 -10 -3 -10 6 0 15 5 18 10 8 12 4 12 -15 0z"/>
<path d="M5828 7853 c7 -3 16 -2 19 1 4 3 -2 6 -13 5 -11 0 -14 -3 -6 -6z"/>
<path d="M6078 7743 c7 -3 16 -2 19 1 4 3 -2 6 -13 5 -11 0 -14 -3 -6 -6z"/>
<path d="M3683 7530 c0 -25 2 -35 4 -22 2 12 2 32 0 45 -2 12 -4 2 -4 -23z"/>
<path d="M935 6750 c-3 -5 -1 -10 4 -10 6 0 11 5 11 10 0 6 -2 10 -4 10 -3 0
-8 -4 -11 -10z"/>
<path d="M517 5975 c3 -8 9 -12 14 -9 12 7 11 11 -5 17 -10 4 -13 1 -9 -8z"/>
<path d="M5218 5863 c7 -3 16 -2 19 1 4 3 -2 6 -13 5 -11 0 -14 -3 -6 -6z"/>
<path d="M330 5549 c0 -5 5 -7 10 -4 6 3 10 8 10 11 0 2 -4 4 -10 4 -5 0 -10
-5 -10 -11z"/>
<path d="M317 5284 c-10 -13 -14 -24 -10 -24 9 0 36 40 31 45 -2 2 -11 -8 -21
-21z"/>
<path d="M276 5227 c3 -10 9 -15 12 -12 3 3 0 11 -7 18 -10 9 -11 8 -5 -6z"/>
<path d="M267 5108 c7 -8 10 -18 6 -21 -3 -4 -1 -7 5 -7 21 0 21 16 -1 30 -19
12 -21 11 -10 -2z"/>
<path d="M233 5019 c-2 -23 3 -25 10 -4 4 8 3 16 -1 19 -4 3 -9 -4 -9 -15z"/>
<path d="M240 4941 c0 -7 -5 -9 -12 -5 -7 5 -8 3 -3 -5 5 -9 10 -10 18 -2 6 6
8 14 4 18 -4 3 -7 1 -7 -6z"/>
<path d="M242 4896 c-9 -20 -8 -27 6 -37 14 -11 15 -11 5 0 -12 14 -7 44 6 36
4 -2 8 2 8 10 0 23 -13 18 -25 -9z"/>
<path d="M6541 4884 c0 -11 3 -14 6 -6 3 7 2 16 -1 19 -3 4 -6 -2 -5 -13z"/>
<path d="M216 4852 c-3 -5 1 -9 9 -9 8 0 12 4 9 9 -3 4 -7 8 -9 8 -2 0 -6 -4
-9 -8z"/>
<path d="M232 4816 c7 -8 17 -12 22 -9 4 3 2 9 -5 14 -22 13 -31 11 -17 -5z"/>
<path d="M193 4533 c0 -9 4 -10 14 -2 7 6 13 12 13 14 0 1 -6 2 -13 2 -8 0
-14 -6 -14 -14z"/>
<path d="M242 4480 c-6 -11 -8 -21 -3 -25 5 -3 13 4 16 16 9 28 2 33 -13 9z"/>
<path d="M196 4353 c-6 -14 -5 -15 5 -6 7 7 10 15 7 18 -3 3 -9 -2 -12 -12z"/>
<path d="M196 4257 c3 -10 9 -15 12 -12 3 3 0 11 -7 18 -10 9 -11 8 -5 -6z"/>
<path d="M237 4233 c-4 -3 -7 -11 -7 -17 0 -6 5 -5 12 2 6 6 9 14 7 17 -3 3
-9 2 -12 -2z"/>
<path d="M220 4190 c-9 -6 -10 -10 -3 -10 6 0 15 5 18 10 8 12 4 12 -15 0z"/>
<path d="M3256 4125 c4 -8 8 -15 10 -15 2 0 4 7 4 15 0 8 -4 15 -10 15 -5 0
-7 -7 -4 -15z"/>
<path d="M911 4114 c0 -11 3 -14 6 -6 3 7 2 16 -1 19 -3 4 -6 -2 -5 -13z"/>
<path d="M245 4050 c-4 -6 -2 -17 4 -24 6 -7 8 -16 4 -19 -3 -4 -1 -7 6 -7 7
0 9 -5 5 -12 -4 -7 -3 -8 5 -4 9 6 8 14 -4 32 -9 14 -13 29 -10 34 3 6 4 10 1
10 -3 0 -8 -5 -11 -10z"/>
<path d="M276 3884 c-4 -11 -3 -20 4 -22 7 -3 5 -12 -7 -26 l-17 -21 22 21
c18 16 21 25 14 44 -8 21 -9 22 -16 4z"/>
<path d="M4288 3743 c6 -2 18 -2 25 0 6 3 1 5 -13 5 -14 0 -19 -2 -12 -5z"/>
<path d="M5898 3313 c6 -2 18 -2 25 0 6 3 1 5 -13 5 -14 0 -19 -2 -12 -5z"/>
<path d="M5873 3285 c0 -12 3 -12 16 -3 9 7 18 14 20 15 2 2 -5 3 -16 3 -11 0
-20 -7 -20 -15z"/>
<path d="M5058 3093 c7 -3 16 -2 19 1 4 3 -2 6 -13 5 -11 0 -14 -3 -6 -6z"/>
<path d="M5098 3093 c6 -2 18 -2 25 0 6 3 1 5 -13 5 -14 0 -19 -2 -12 -5z"/>
<path d="M5140 3090 c0 -5 7 -7 15 -4 8 4 15 8 15 10 0 2 -7 4 -15 4 -8 0 -15
-4 -15 -10z"/>
<path d="M583 2790 c0 -25 2 -35 4 -22 2 12 2 32 0 45 -2 12 -4 2 -4 -23z"/>
<path d="M561 2794 c0 -11 3 -14 6 -6 3 7 2 16 -1 19 -3 4 -6 -2 -5 -13z"/>
<path d="M7596 2732 c-3 -5 1 -9 9 -9 8 0 12 4 9 9 -3 4 -7 8 -9 8 -2 0 -6 -4
-9 -8z"/>
<path d="M597 2714 c7 -3 9 -13 6 -22 -7 -18 -5 -17 16 11 12 15 11 17 -10 16
-13 0 -19 -3 -12 -5z"/>
<path d="M803 2309 c9 -5 17 -18 18 -27 0 -11 2 -12 6 -4 6 15 -14 42 -31 42
-6 0 -3 -5 7 -11z"/>
<path d="M7166 2124 c-9 -24 -2 -26 12 -4 7 11 8 20 3 20 -5 0 -12 -7 -15 -16z"/>
<path d="M7086 2032 c-3 -5 1 -9 9 -9 8 0 12 4 9 9 -3 4 -7 8 -9 8 -2 0 -6 -4
-9 -8z"/>
<path d="M7055 1975 c0 -13 3 -21 8 -18 4 2 7 10 7 18 0 8 -3 16 -7 18 -5 3
-8 -5 -8 -18z"/>
<path d="M6964 1894 c-10 -8 -13 -13 -6 -9 6 3 12 0 12 -7 0 -8 5 -6 11 5 15
25 7 30 -17 11z"/>
<path d="M6830 1769 c0 -5 5 -7 10 -4 6 3 10 8 10 11 0 2 -4 4 -10 4 -5 0 -10
-5 -10 -11z"/>
<path d="M1278 1578 c20 -20 52 -20 52 0 0 14 -2 15 -10 2 -9 -13 -10 -13 -10
0 0 13 -1 13 -10 0 -6 -10 -10 -11 -10 -2 0 6 -5 12 -12 12 -9 0 -9 -3 0 -12z"/>
<path d="M1358 1473 c7 -3 16 -2 19 1 4 3 -2 6 -13 5 -11 0 -14 -3 -6 -6z"/>
<path d="M1405 1460 c-4 -6 -12 -7 -18 -3 -7 4 -5 -2 3 -13 22 -29 24 -30 17
-13 -3 9 0 22 6 28 6 6 8 11 5 11 -4 0 -10 -5 -13 -10z"/>
<path d="M6405 1450 c-3 -5 -1 -10 4 -10 6 0 11 5 11 10 0 6 -2 10 -4 10 -3 0
-8 -4 -11 -10z"/>
<path d="M1461 1374 c0 -11 3 -14 6 -6 3 7 2 16 -1 19 -3 4 -6 -2 -5 -13z"/>
<path d="M1502 1336 c7 -8 15 -12 17 -11 5 6 -10 25 -20 25 -5 0 -4 -6 3 -14z"/>
<path d="M1626 1233 c5 -5 12 -12 16 -18 4 -6 8 -2 8 8 0 9 -7 17 -17 17 -9 0
-12 -3 -7 -7z"/>
<path d="M5685 1140 c-3 -6 1 -7 9 -4 18 7 21 14 7 14 -6 0 -13 -4 -16 -10z"/>
<path d="M5380 1051 c0 -6 -10 -8 -22 -6 -21 4 -21 4 -4 -13 14 -12 20 -14 23
-4 3 6 9 10 14 7 5 -4 6 1 3 9 -7 18 -14 21 -14 7z"/>
<path d="M4210 1016 c0 -3 9 -10 20 -16 11 -6 20 -8 20 -6 0 3 -9 10 -20 16
-11 6 -20 8 -20 6z"/>
<path d="M4500 990 c0 -5 5 -10 11 -10 5 0 7 5 4 10 -3 6 -8 10 -11 10 -2 0
-4 -4 -4 -10z"/>
<path d="M2078 923 c7 -3 16 -2 19 1 4 3 -2 6 -13 5 -11 0 -14 -3 -6 -6z"/>
<path d="M3108 793 c7 -3 16 -2 19 1 4 3 -2 6 -13 5 -11 0 -14 -3 -6 -6z"/>
<path d="M3115 699 c-4 -6 -5 -12 -2 -15 2 -3 7 2 10 11 7 17 1 20 -8 4z"/>
<path d="M3273 673 c1 -18 6 -28 10 -24 4 4 3 18 -2 32 -9 23 -9 22 -8 -8z"/>
</g>
</svg>
