<?xml version="1.0" standalone="no"?>
<!DOCTYPE svg PUBLIC "-//W3C//DTD SVG 20010904//EN"
 "http://www.w3.org/TR/2001/REC-SVG-20010904/DTD/svg10.dtd">
<svg version="1.0" xmlns="http://www.w3.org/2000/svg"
 width="800.000000pt" height="800.000000pt" viewBox="0 0 800.000000 800.000000"
 preserveAspectRatio="xMidYMid meet">
<metadata>
Created by potrace 1.14, written by Peter Selinger 2001-2017
</metadata>
<g transform="translate(0.000000,800.000000) scale(0.100000,-0.100000)"
fill="#000000" stroke="none">
<path d="M628 4180 c-2 -1958 0 -3560 3 -3560 3 0 303 277 667 617 l662 616 0
638 0 637 623 5 c479 3 654 8 763 20 624 71 1025 213 1414 500 126 94 295 260
385 378 353 469 515 1225 410 1919 -28 189 -30 193 -95 244 -121 95 -288 164
-490 202 -79 14 -169 18 -527 22 l-433 4 0 -98 c0 -91 2 -100 29 -143 246
-384 256 -1002 22 -1406 -69 -120 -226 -275 -357 -352 -127 -74 -275 -134
-430 -173 -236 -59 -285 -63 -822 -67 l-492 -4 2 1253 3 1253 93 3 92 3 -2
522 -3 522 -757 3 -758 2 -2 -3560z"/>
<path d="M2412 6088 l3 -1643 115 -3 c63 -2 186 2 273 8 407 28 703 127 901
301 l46 41 0 950 0 950 553 -5 c444 -3 573 -8 657 -21 346 -54 582 -164 761
-354 143 -151 226 -326 275 -577 25 -126 25 -434 0 -559 -43 -218 -131 -413
-242 -536 -22 -24 -47 -77 -79 -165 -123 -341 -274 -584 -505 -815 -184 -185
-375 -322 -635 -458 l-140 -73 290 5 c663 12 1113 103 1520 309 322 163 595
395 772 654 181 265 306 609 370 1013 25 159 25 599 0 780 -61 437 -193 760
-433 1056 -289 357 -700 586 -1254 698 -410 83 -481 86 -1973 86 l-1277 0 2
-1642z"/>
<path d="M3670 2929 c-205 -41 -609 -69 -997 -69 l-263 0 0 -1121 c0 -668 4
-1119 9 -1117 5 2 303 277 663 612 l653 610 6 265 c4 146 7 393 8 549 1 317 9
288 -79 271z"/>
</g>
</svg>
